<svg width="50" height="50" viewBox="0 0 50 50" fill="none" xmlns="http://www.w3.org/2000/svg">
<path d="M0 5C0 2.23858 2.23858 0 5 0H45C47.7614 0 50 2.23858 50 5V45C50 47.7614 47.7614 50 45 50H5C2.23858 50 0 47.7614 0 45V5Z" fill="#D9D9D9"/>
<path d="M0 5C0 2.23858 2.23858 0 5 0H45C47.7614 0 50 2.23858 50 5V45C50 47.7614 47.7614 50 45 50H5C2.23858 50 0 47.7614 0 45V5Z" fill="#006EFF"/>
<path d="M27.1349 7.14379C27.0489 7.22837 26.3377 8.23489 25.556 9.3852C24.5321 10.8823 24.0866 11.4828 23.9772 11.4828C23.6255 11.4828 22.5937 11.1952 21.5464 10.8062C20.03 10.2479 19.2562 10.0957 18.1229 10.1549C16.3408 10.2479 14.9496 10.933 13.699 12.3371C12.6594 13.5128 12.1045 14.6546 11.698 16.4731C11.6355 16.7607 11.5964 17.4374 11.5964 18.2493C11.6043 19.8056 11.7449 20.5246 12.3077 21.7933C12.6907 22.673 13.0346 23.2227 13.613 23.8909L13.996 24.3308L14.1523 27.1389L14.3086 29.947L13.1049 31.2495L11.9091 32.5436H8.64194H5.37479L5.18721 32.7551C4.94491 33.0088 4.93709 33.3049 5.17157 33.5417C5.35135 33.7278 5.36698 33.7278 8.86079 33.7278H12.3624L13.3941 32.6282L14.4181 31.5286L14.5197 32.5944C14.7307 34.9626 15.1606 36.6543 15.9891 38.4051C17.9353 42.5242 20.6006 43.2093 21.8825 39.9107C22.2342 39.0056 22.4765 37.7115 22.6563 35.8423C22.9298 33.0004 23.1409 32.0192 23.6176 31.351C24.2898 30.3952 24.9855 30.3276 25.6811 31.148C26.2204 31.7824 26.4705 32.6959 26.6816 34.785C26.7441 35.4363 26.8379 36.3498 26.8848 36.815C27.1427 39.2763 27.8774 41.0948 28.8935 41.7461C29.4172 42.076 30.1676 42.076 30.7929 41.7376C32.2701 40.9595 33.8568 38.2529 34.529 35.3771C34.654 34.8189 34.9276 33.0934 34.9276 32.8227C34.9276 32.7804 35.2402 32.7043 35.6232 32.6451C35.9984 32.5944 36.5299 32.476 36.7956 32.3829L37.2724 32.2222L37.5773 32.7804L37.8821 33.3471L37.6867 33.5417C37.546 33.6855 37.4991 33.8039 37.5225 33.973C37.5694 34.2945 40.7662 40.2744 41.0867 40.6296C41.5557 41.1456 41.9074 41.2978 42.7046 41.2978C43.283 41.2978 43.4628 41.264 43.7364 41.1117C44.7056 40.545 45.2214 39.2763 44.9088 38.2021C44.7525 37.6439 41.5713 31.7063 41.3446 31.5456C41.2039 31.4441 41.118 31.4356 40.9382 31.5033C40.7193 31.5963 40.7037 31.5878 40.3989 31.0381L40.0862 30.4714L40.438 30.1161C42.7203 27.7394 43.6113 24.2462 42.7828 20.8883C42.1028 18.1394 40.2035 15.8049 37.7805 14.7308C37.1865 14.4685 37.1396 14.4263 36.8816 13.9526C35.7717 11.9311 34.2085 10.6708 32.2701 10.2479C31.7621 10.138 31.3947 10.1211 30.6678 10.1549C29.6517 10.2141 29.128 10.341 27.7289 10.8738C26.8535 11.2037 25.642 11.5336 25.5717 11.449C25.556 11.4321 26.0328 10.6878 26.6425 9.79965L27.7524 8.18414H35.8264C43.5566 8.18414 43.9083 8.17569 44.0803 8.03189C44.1975 7.92194 44.2522 7.77815 44.2522 7.59207C44.2522 7.40599 44.1975 7.2622 44.0803 7.15224C43.9083 7.00846 43.5488 7 35.592 7C27.7915 7 27.2756 7.00846 27.1349 7.14379ZM19.6236 11.4321C19.9362 11.4997 20.6006 11.7112 21.093 11.8973C21.5855 12.0833 22.2967 12.3202 22.6719 12.4132L23.3519 12.5993L23.0393 13.0814C22.6641 13.665 22.6406 14.0626 22.9767 14.2656C23.3285 14.477 23.5317 14.3332 24.1257 13.4874L24.6728 12.6923L25.4075 12.6416C26.2986 12.5824 26.8457 12.4471 28.2057 11.948C30.5037 11.0937 31.8168 11.0937 33.4425 11.9565C34.0756 12.2948 34.2945 12.464 34.912 13.1406C35.3028 13.572 35.631 13.9526 35.631 13.9949C35.631 14.0287 35.0448 14.0626 34.3179 14.0626C33.1455 14.071 32.9345 14.0964 32.231 14.2994C29.1827 15.2044 26.8613 17.7249 26.0328 21.0236C25.8531 21.7679 25.8296 21.9878 25.8296 23.3665C25.8296 24.7537 25.8452 24.9651 26.0406 25.7348C26.2908 26.7413 26.9551 28.23 27.4945 28.9997C28.8623 30.945 30.9648 32.2983 33.169 32.6451L33.8412 32.7466L33.7943 33.1357C33.5832 34.8189 33.2237 36.206 32.6609 37.5086C31.809 39.4793 30.4958 40.9426 29.7064 40.7988C28.7607 40.6381 28.1588 38.8872 27.854 35.4617C27.5804 32.3406 27.1896 30.9958 26.2751 30.0908C25.3294 29.1519 24.1257 29.1604 23.1643 30.1077C22.3202 30.9366 21.8512 32.4421 21.648 34.9626C21.3353 38.7265 20.71 40.6296 19.7408 40.8072C18.9749 40.9341 17.7712 39.64 16.8801 37.7115C16.1767 36.1975 15.8171 34.7004 15.5827 32.2983C15.3873 30.2684 15.2622 30.6067 16.7473 28.9912C17.4898 28.1877 18.0526 27.5026 18.0838 27.3841C18.1542 27.0627 17.8728 26.7075 17.5523 26.7075C17.3413 26.7075 17.1615 26.8597 16.3096 27.7817L15.3091 28.8643V28.4837C15.3091 28.2723 15.2544 27.2234 15.1919 26.1577C15.1293 25.0835 15.0746 24.1278 15.0746 24.0178C15.0746 23.8909 14.8792 23.6034 14.5431 23.2143C13.3082 21.8018 12.7689 20.4485 12.6751 18.5877C12.4875 14.6377 15.0668 11.339 18.373 11.3221C18.7404 11.3137 19.3031 11.3644 19.6236 11.4321ZM36.5143 15.492C39.3203 16.4055 41.2899 18.7568 41.8918 21.9286C42.0246 22.6222 42.0012 24.2546 41.8605 24.982C41.2352 28.0608 39.2812 30.3445 36.5221 31.2411C35.5842 31.5456 33.9428 31.6217 32.9657 31.4018C31.551 31.0973 30.277 30.3783 29.2609 29.3126C27.768 27.7648 26.9864 25.9378 26.9004 23.7894C26.8535 22.563 26.9473 21.7933 27.299 20.6768C28.0963 18.1648 30.1363 16.101 32.4733 15.4666C33.3956 15.2129 33.3878 15.2129 34.654 15.2382C35.6545 15.2636 35.9281 15.2974 36.5143 15.492ZM39.5313 31.757L39.7658 32.1968L39.3515 32.459C39.1249 32.5944 38.8982 32.7128 38.8591 32.7128C38.7809 32.7128 38.312 31.8078 38.3667 31.757C38.5386 31.5878 39.1952 31.2072 39.2421 31.258C39.2655 31.2918 39.3984 31.5117 39.5313 31.757ZM42.3842 35.6478C43.4706 37.6862 43.8692 38.5066 43.8927 38.7604C43.9396 39.2171 43.6582 39.7923 43.2909 40.0037C42.9391 40.2152 42.3138 40.1729 41.9934 39.9276C41.6964 39.6908 38.7888 34.2522 38.8982 34.1338C38.9763 34.0492 40.7975 32.8989 40.8679 32.8904C40.8913 32.8819 41.5713 34.1253 42.3842 35.6478Z" fill="#D9D9D9"/>
<path d="M27.1349 7.14379C27.0489 7.22837 26.3377 8.23489 25.556 9.3852C24.5321 10.8823 24.0866 11.4828 23.9772 11.4828C23.6255 11.4828 22.5937 11.1952 21.5464 10.8062C20.03 10.2479 19.2562 10.0957 18.1229 10.1549C16.3408 10.2479 14.9496 10.933 13.699 12.3371C12.6594 13.5128 12.1045 14.6546 11.698 16.4731C11.6355 16.7607 11.5964 17.4374 11.5964 18.2493C11.6043 19.8056 11.7449 20.5246 12.3077 21.7933C12.6907 22.673 13.0346 23.2227 13.613 23.8909L13.996 24.3308L14.1523 27.1389L14.3086 29.947L13.1049 31.2495L11.9091 32.5436H8.64194H5.37479L5.18721 32.7551C4.94491 33.0088 4.93709 33.3049 5.17157 33.5417C5.35135 33.7278 5.36698 33.7278 8.86079 33.7278H12.3624L13.3941 32.6282L14.4181 31.5286L14.5197 32.5944C14.7307 34.9626 15.1606 36.6543 15.9891 38.4051C17.9353 42.5242 20.6006 43.2093 21.8825 39.9107C22.2342 39.0056 22.4765 37.7115 22.6563 35.8423C22.9298 33.0004 23.1409 32.0192 23.6176 31.351C24.2898 30.3952 24.9855 30.3276 25.6811 31.148C26.2204 31.7824 26.4705 32.6959 26.6816 34.785C26.7441 35.4363 26.8379 36.3498 26.8848 36.815C27.1427 39.2763 27.8774 41.0948 28.8935 41.7461C29.4172 42.076 30.1676 42.076 30.7929 41.7376C32.2701 40.9595 33.8568 38.2529 34.529 35.3771C34.654 34.8189 34.9276 33.0934 34.9276 32.8227C34.9276 32.7804 35.2402 32.7043 35.6232 32.6451C35.9984 32.5944 36.5299 32.476 36.7956 32.3829L37.2724 32.2222L37.5773 32.7804L37.8821 33.3471L37.6867 33.5417C37.546 33.6855 37.4991 33.8039 37.5225 33.973C37.5694 34.2945 40.7662 40.2744 41.0867 40.6296C41.5557 41.1456 41.9074 41.2978 42.7046 41.2978C43.283 41.2978 43.4628 41.264 43.7364 41.1117C44.7056 40.545 45.2214 39.2763 44.9088 38.2021C44.7525 37.6439 41.5713 31.7063 41.3446 31.5456C41.2039 31.4441 41.118 31.4356 40.9382 31.5033C40.7193 31.5963 40.7037 31.5878 40.3989 31.0381L40.0862 30.4714L40.438 30.1161C42.7203 27.7394 43.6113 24.2462 42.7828 20.8883C42.1028 18.1394 40.2035 15.8049 37.7805 14.7308C37.1865 14.4685 37.1396 14.4263 36.8816 13.9526C35.7717 11.9311 34.2085 10.6708 32.2701 10.2479C31.7621 10.138 31.3947 10.1211 30.6678 10.1549C29.6517 10.2141 29.128 10.341 27.7289 10.8738C26.8535 11.2037 25.642 11.5336 25.5717 11.449C25.556 11.4321 26.0328 10.6878 26.6425 9.79965L27.7524 8.18414H35.8264C43.5566 8.18414 43.9083 8.17569 44.0803 8.03189C44.1975 7.92194 44.2522 7.77815 44.2522 7.59207C44.2522 7.40599 44.1975 7.2622 44.0803 7.15224C43.9083 7.00846 43.5488 7 35.592 7C27.7915 7 27.2756 7.00846 27.1349 7.14379ZM19.6236 11.4321C19.9362 11.4997 20.6006 11.7112 21.093 11.8973C21.5855 12.0833 22.2967 12.3202 22.6719 12.4132L23.3519 12.5993L23.0393 13.0814C22.6641 13.665 22.6406 14.0626 22.9767 14.2656C23.3285 14.477 23.5317 14.3332 24.1257 13.4874L24.6728 12.6923L25.4075 12.6416C26.2986 12.5824 26.8457 12.4471 28.2057 11.948C30.5037 11.0937 31.8168 11.0937 33.4425 11.9565C34.0756 12.2948 34.2945 12.464 34.912 13.1406C35.3028 13.572 35.631 13.9526 35.631 13.9949C35.631 14.0287 35.0448 14.0626 34.3179 14.0626C33.1455 14.071 32.9345 14.0964 32.231 14.2994C29.1827 15.2044 26.8613 17.7249 26.0328 21.0236C25.8531 21.7679 25.8296 21.9878 25.8296 23.3665C25.8296 24.7537 25.8452 24.9651 26.0406 25.7348C26.2908 26.7413 26.9551 28.23 27.4945 28.9997C28.8623 30.945 30.9648 32.2983 33.169 32.6451L33.8412 32.7466L33.7943 33.1357C33.5832 34.8189 33.2237 36.206 32.6609 37.5086C31.809 39.4793 30.4958 40.9426 29.7064 40.7988C28.7607 40.6381 28.1588 38.8872 27.854 35.4617C27.5804 32.3406 27.1896 30.9958 26.2751 30.0908C25.3294 29.1519 24.1257 29.1604 23.1643 30.1077C22.3202 30.9366 21.8512 32.4421 21.648 34.9626C21.3353 38.7265 20.71 40.6296 19.7408 40.8072C18.9749 40.9341 17.7712 39.64 16.8801 37.7115C16.1767 36.1975 15.8171 34.7004 15.5827 32.2983C15.3873 30.2684 15.2622 30.6067 16.7473 28.9912C17.4898 28.1877 18.0526 27.5026 18.0838 27.3841C18.1542 27.0627 17.8728 26.7075 17.5523 26.7075C17.3413 26.7075 17.1615 26.8597 16.3096 27.7817L15.3091 28.8643V28.4837C15.3091 28.2723 15.2544 27.2234 15.1919 26.1577C15.1293 25.0835 15.0746 24.1278 15.0746 24.0178C15.0746 23.8909 14.8792 23.6034 14.5431 23.2143C13.3082 21.8018 12.7689 20.4485 12.6751 18.5877C12.4875 14.6377 15.0668 11.339 18.373 11.3221C18.7404 11.3137 19.3031 11.3644 19.6236 11.4321ZM36.5143 15.492C39.3203 16.4055 41.2899 18.7568 41.8918 21.9286C42.0246 22.6222 42.0012 24.2546 41.8605 24.982C41.2352 28.0608 39.2812 30.3445 36.5221 31.2411C35.5842 31.5456 33.9428 31.6217 32.9657 31.4018C31.551 31.0973 30.277 30.3783 29.2609 29.3126C27.768 27.7648 26.9864 25.9378 26.9004 23.7894C26.8535 22.563 26.9473 21.7933 27.299 20.6768C28.0963 18.1648 30.1363 16.101 32.4733 15.4666C33.3956 15.2129 33.3878 15.2129 34.654 15.2382C35.6545 15.2636 35.9281 15.2974 36.5143 15.492ZM39.5313 31.757L39.7658 32.1968L39.3515 32.459C39.1249 32.5944 38.8982 32.7128 38.8591 32.7128C38.7809 32.7128 38.312 31.8078 38.3667 31.757C38.5386 31.5878 39.1952 31.2072 39.2421 31.258C39.2655 31.2918 39.3984 31.5117 39.5313 31.757ZM42.3842 35.6478C43.4706 37.6862 43.8692 38.5066 43.8927 38.7604C43.9396 39.2171 43.6582 39.7923 43.2909 40.0037C42.9391 40.2152 42.3138 40.1729 41.9934 39.9276C41.6964 39.6908 38.7888 34.2522 38.8982 34.1338C38.9763 34.0492 40.7975 32.8989 40.8679 32.8904C40.8913 32.8819 41.5713 34.1253 42.3842 35.6478Z" fill="white"/>
<path d="M27.1349 7.14379C27.0489 7.22837 26.3377 8.23489 25.556 9.3852C24.5321 10.8823 24.0866 11.4828 23.9772 11.4828C23.6255 11.4828 22.5937 11.1952 21.5464 10.8062C20.03 10.2479 19.2562 10.0957 18.1229 10.1549C16.3408 10.2479 14.9496 10.933 13.699 12.3371C12.6594 13.5128 12.1045 14.6546 11.698 16.4731C11.6355 16.7607 11.5964 17.4374 11.5964 18.2493C11.6043 19.8056 11.7449 20.5246 12.3077 21.7933C12.6907 22.673 13.0346 23.2227 13.613 23.8909L13.996 24.3308L14.1523 27.1389L14.3086 29.947L13.1049 31.2495L11.9091 32.5436H8.64194H5.37479L5.18721 32.7551C4.94491 33.0088 4.93709 33.3049 5.17157 33.5417C5.35135 33.7278 5.36698 33.7278 8.86079 33.7278H12.3624L13.3941 32.6282L14.4181 31.5286L14.5197 32.5944C14.7307 34.9626 15.1606 36.6543 15.9891 38.4051C17.9353 42.5242 20.6006 43.2093 21.8825 39.9107C22.2342 39.0056 22.4765 37.7115 22.6563 35.8423C22.9298 33.0004 23.1409 32.0192 23.6176 31.351C24.2898 30.3952 24.9855 30.3276 25.6811 31.148C26.2204 31.7824 26.4705 32.6959 26.6816 34.785C26.7441 35.4363 26.8379 36.3498 26.8848 36.815C27.1427 39.2763 27.8774 41.0948 28.8935 41.7461C29.4172 42.076 30.1676 42.076 30.7929 41.7376C32.2701 40.9595 33.8568 38.2529 34.529 35.3771C34.654 34.8189 34.9276 33.0934 34.9276 32.8227C34.9276 32.7804 35.2402 32.7043 35.6232 32.6451C35.9984 32.5944 36.5299 32.476 36.7956 32.3829L37.2724 32.2222L37.5773 32.7804L37.8821 33.3471L37.6867 33.5417C37.546 33.6855 37.4991 33.8039 37.5225 33.973C37.5694 34.2945 40.7662 40.2744 41.0867 40.6296C41.5557 41.1456 41.9074 41.2978 42.7046 41.2978C43.283 41.2978 43.4628 41.264 43.7364 41.1117C44.7056 40.545 45.2214 39.2763 44.9088 38.2021C44.7525 37.6439 41.5713 31.7063 41.3446 31.5456C41.2039 31.4441 41.118 31.4356 40.9382 31.5033C40.7193 31.5963 40.7037 31.5878 40.3989 31.0381L40.0862 30.4714L40.438 30.1161C42.7203 27.7394 43.6113 24.2462 42.7828 20.8883C42.1028 18.1394 40.2035 15.8049 37.7805 14.7308C37.1865 14.4685 37.1396 14.4263 36.8816 13.9526C35.7717 11.9311 34.2085 10.6708 32.2701 10.2479C31.7621 10.138 31.3947 10.1211 30.6678 10.1549C29.6517 10.2141 29.128 10.341 27.7289 10.8738C26.8535 11.2037 25.642 11.5336 25.5717 11.449C25.556 11.4321 26.0328 10.6878 26.6425 9.79965L27.7524 8.18414H35.8264C43.5566 8.18414 43.9083 8.17569 44.0803 8.03189C44.1975 7.92194 44.2522 7.77815 44.2522 7.59207C44.2522 7.40599 44.1975 7.2622 44.0803 7.15224C43.9083 7.00846 43.5488 7 35.592 7C27.7915 7 27.2756 7.00846 27.1349 7.14379ZM19.6236 11.4321C19.9362 11.4997 20.6006 11.7112 21.093 11.8973C21.5855 12.0833 22.2967 12.3202 22.6719 12.4132L23.3519 12.5993L23.0393 13.0814C22.6641 13.665 22.6406 14.0626 22.9767 14.2656C23.3285 14.477 23.5317 14.3332 24.1257 13.4874L24.6728 12.6923L25.4075 12.6416C26.2986 12.5824 26.8457 12.4471 28.2057 11.948C30.5037 11.0937 31.8168 11.0937 33.4425 11.9565C34.0756 12.2948 34.2945 12.464 34.912 13.1406C35.3028 13.572 35.631 13.9526 35.631 13.9949C35.631 14.0287 35.0448 14.0626 34.3179 14.0626C33.1455 14.071 32.9345 14.0964 32.231 14.2994C29.1827 15.2044 26.8613 17.7249 26.0328 21.0236C25.8531 21.7679 25.8296 21.9878 25.8296 23.3665C25.8296 24.7537 25.8452 24.9651 26.0406 25.7348C26.2908 26.7413 26.9551 28.23 27.4945 28.9997C28.8623 30.945 30.9648 32.2983 33.169 32.6451L33.8412 32.7466L33.7943 33.1357C33.5832 34.8189 33.2237 36.206 32.6609 37.5086C31.809 39.4793 30.4958 40.9426 29.7064 40.7988C28.7607 40.6381 28.1588 38.8872 27.854 35.4617C27.5804 32.3406 27.1896 30.9958 26.2751 30.0908C25.3294 29.1519 24.1257 29.1604 23.1643 30.1077C22.3202 30.9366 21.8512 32.4421 21.648 34.9626C21.3353 38.7265 20.71 40.6296 19.7408 40.8072C18.9749 40.9341 17.7712 39.64 16.8801 37.7115C16.1767 36.1975 15.8171 34.7004 15.5827 32.2983C15.3873 30.2684 15.2622 30.6067 16.7473 28.9912C17.4898 28.1877 18.0526 27.5026 18.0838 27.3841C18.1542 27.0627 17.8728 26.7075 17.5523 26.7075C17.3413 26.7075 17.1615 26.8597 16.3096 27.7817L15.3091 28.8643V28.4837C15.3091 28.2723 15.2544 27.2234 15.1919 26.1577C15.1293 25.0835 15.0746 24.1278 15.0746 24.0178C15.0746 23.8909 14.8792 23.6034 14.5431 23.2143C13.3082 21.8018 12.7689 20.4485 12.6751 18.5877C12.4875 14.6377 15.0668 11.339 18.373 11.3221C18.7404 11.3137 19.3031 11.3644 19.6236 11.4321ZM36.5143 15.492C39.3203 16.4055 41.2899 18.7568 41.8918 21.9286C42.0246 22.6222 42.0012 24.2546 41.8605 24.982C41.2352 28.0608 39.2812 30.3445 36.5221 31.2411C35.5842 31.5456 33.9428 31.6217 32.9657 31.4018C31.551 31.0973 30.277 30.3783 29.2609 29.3126C27.768 27.7648 26.9864 25.9378 26.9004 23.7894C26.8535 22.563 26.9473 21.7933 27.299 20.6768C28.0963 18.1648 30.1363 16.101 32.4733 15.4666C33.3956 15.2129 33.3878 15.2129 34.654 15.2382C35.6545 15.2636 35.9281 15.2974 36.5143 15.492ZM39.5313 31.757L39.7658 32.1968L39.3515 32.459C39.1249 32.5944 38.8982 32.7128 38.8591 32.7128C38.7809 32.7128 38.312 31.8078 38.3667 31.757C38.5386 31.5878 39.1952 31.2072 39.2421 31.258C39.2655 31.2918 39.3984 31.5117 39.5313 31.757ZM42.3842 35.6478C43.4706 37.6862 43.8692 38.5066 43.8927 38.7604C43.9396 39.2171 43.6582 39.7923 43.2909 40.0037C42.9391 40.2152 42.3138 40.1729 41.9934 39.9276C41.6964 39.6908 38.7888 34.2522 38.8982 34.1338C38.9763 34.0492 40.7975 32.8989 40.8679 32.8904C40.8913 32.8819 41.5713 34.1253 42.3842 35.6478Z" stroke="white" stroke-width="0.5"/>
<path d="M17.091 12.8277C15.0979 13.5213 13.691 15.9995 13.8473 18.5623C13.902 19.4589 14.2068 20.5753 14.457 20.8037C14.6602 20.9898 14.9103 20.9983 15.137 20.8206C15.3558 20.6515 15.3558 20.347 15.137 19.6619C14.9025 18.9429 14.8868 17.4966 15.1057 16.8115C15.6059 15.2213 16.5908 14.1133 17.6928 13.885C18.0367 13.8173 18.3572 13.5213 18.3572 13.276C18.3572 13.1829 18.2869 13.0138 18.1931 12.8869C17.9977 12.6247 17.7397 12.6078 17.091 12.8277Z" fill="#D9D9D9"/>
<path d="M17.091 12.8277C15.0979 13.5213 13.691 15.9995 13.8473 18.5623C13.902 19.4589 14.2068 20.5753 14.457 20.8037C14.6602 20.9898 14.9103 20.9983 15.137 20.8206C15.3558 20.6515 15.3558 20.347 15.137 19.6619C14.9025 18.9429 14.8868 17.4966 15.1057 16.8115C15.6059 15.2213 16.5908 14.1133 17.6928 13.885C18.0367 13.8173 18.3572 13.5213 18.3572 13.276C18.3572 13.1829 18.2869 13.0138 18.1931 12.8869C17.9977 12.6247 17.7397 12.6078 17.091 12.8277Z" fill="white"/>
<path d="M17.091 12.8277C15.0979 13.5213 13.691 15.9995 13.8473 18.5623C13.902 19.4589 14.2068 20.5753 14.457 20.8037C14.6602 20.9898 14.9103 20.9983 15.137 20.8206C15.3558 20.6515 15.3558 20.347 15.137 19.6619C14.9025 18.9429 14.8868 17.4966 15.1057 16.8115C15.6059 15.2213 16.5908 14.1133 17.6928 13.885C18.0367 13.8173 18.3572 13.5213 18.3572 13.276C18.3572 13.1829 18.2869 13.0138 18.1931 12.8869C17.9977 12.6247 17.7397 12.6078 17.091 12.8277Z" stroke="white" stroke-width="0.5"/>
<path d="M32.8719 16.4731C29.9018 17.2851 27.8931 20.0679 27.8931 23.3665C27.8931 26.6652 29.8784 29.4226 32.8563 30.2684C34.1303 30.6236 35.8577 30.4629 37.1005 29.8709C38.4761 29.2111 39.8283 27.7479 40.438 26.2508C40.9929 24.8806 41.1414 23.0705 40.7975 21.6749C40.1878 19.1967 38.5543 17.3359 36.2954 16.5577C35.4982 16.2786 33.7317 16.2363 32.8719 16.4731ZM35.8186 17.6573C37.3662 18.0802 38.6559 19.239 39.3515 20.8291C39.7345 21.7003 39.8752 22.3854 39.8752 23.3665C39.8752 24.7198 39.5 25.9124 38.7262 27.0205C38.0619 27.9762 36.866 28.8136 35.7092 29.135C34.529 29.4564 33.0126 29.245 31.8402 28.5852C31.0039 28.1116 29.9722 26.9697 29.5579 26.0309C29.1358 25.092 28.9873 24.3984 28.9873 23.3665C28.9873 22.3346 29.1358 21.6411 29.5579 20.7022C29.8237 20.1186 30.0112 19.8395 30.5896 19.222C31.7152 17.9956 32.786 17.505 34.3883 17.4966C34.9745 17.4881 35.3887 17.5389 35.8186 17.6573Z" fill="#D9D9D9"/>
<path d="M32.8719 16.4731C29.9018 17.2851 27.8931 20.0679 27.8931 23.3665C27.8931 26.6652 29.8784 29.4226 32.8563 30.2684C34.1303 30.6236 35.8577 30.4629 37.1005 29.8709C38.4761 29.2111 39.8283 27.7479 40.438 26.2508C40.9929 24.8806 41.1414 23.0705 40.7975 21.6749C40.1878 19.1967 38.5543 17.3359 36.2954 16.5577C35.4982 16.2786 33.7317 16.2363 32.8719 16.4731ZM35.8186 17.6573C37.3662 18.0802 38.6559 19.239 39.3515 20.8291C39.7345 21.7003 39.8752 22.3854 39.8752 23.3665C39.8752 24.7198 39.5 25.9124 38.7262 27.0205C38.0619 27.9762 36.866 28.8136 35.7092 29.135C34.529 29.4564 33.0126 29.245 31.8402 28.5852C31.0039 28.1116 29.9722 26.9697 29.5579 26.0309C29.1358 25.092 28.9873 24.3984 28.9873 23.3665C28.9873 22.3346 29.1358 21.6411 29.5579 20.7022C29.8237 20.1186 30.0112 19.8395 30.5896 19.222C31.7152 17.9956 32.786 17.505 34.3883 17.4966C34.9745 17.4881 35.3887 17.5389 35.8186 17.6573Z" fill="white"/>
<path d="M32.8719 16.4731C29.9018 17.2851 27.8931 20.0679 27.8931 23.3665C27.8931 26.6652 29.8784 29.4226 32.8563 30.2684C34.1303 30.6236 35.8577 30.4629 37.1005 29.8709C38.4761 29.2111 39.8283 27.7479 40.438 26.2508C40.9929 24.8806 41.1414 23.0705 40.7975 21.6749C40.1878 19.1967 38.5543 17.3359 36.2954 16.5577C35.4982 16.2786 33.7317 16.2363 32.8719 16.4731ZM35.8186 17.6573C37.3662 18.0802 38.6559 19.239 39.3515 20.8291C39.7345 21.7003 39.8752 22.3854 39.8752 23.3665C39.8752 24.7198 39.5 25.9124 38.7262 27.0205C38.0619 27.9762 36.866 28.8136 35.7092 29.135C34.529 29.4564 33.0126 29.245 31.8402 28.5852C31.0039 28.1116 29.9722 26.9697 29.5579 26.0309C29.1358 25.092 28.9873 24.3984 28.9873 23.3665C28.9873 22.3346 29.1358 21.6411 29.5579 20.7022C29.8237 20.1186 30.0112 19.8395 30.5896 19.222C31.7152 17.9956 32.786 17.505 34.3883 17.4966C34.9745 17.4881 35.3887 17.5389 35.8186 17.6573Z" stroke="white" stroke-width="0.5"/>
<path d="M39.4609 9.53739C39.242 9.77422 39.2498 10.2479 39.4765 10.417C39.625 10.5355 39.9846 10.5524 41.7901 10.5524H43.9239L44.1193 10.3325C44.3538 10.0872 44.3303 9.76576 44.0568 9.51202C43.9161 9.38514 43.6816 9.36823 41.7588 9.36823C39.7188 9.36823 39.6094 9.37669 39.4609 9.53739Z" fill="#D9D9D9"/>
<path d="M39.4609 9.53739C39.242 9.77422 39.2498 10.2479 39.4765 10.417C39.625 10.5355 39.9846 10.5524 41.7901 10.5524H43.9239L44.1193 10.3325C44.3538 10.0872 44.3303 9.76576 44.0568 9.51202C43.9161 9.38514 43.6816 9.36823 41.7588 9.36823C39.7188 9.36823 39.6094 9.37669 39.4609 9.53739Z" fill="white"/>
<path d="M39.4609 9.53739C39.242 9.77422 39.2498 10.2479 39.4765 10.417C39.625 10.5355 39.9846 10.5524 41.7901 10.5524H43.9239L44.1193 10.3325C44.3538 10.0872 44.3303 9.76576 44.0568 9.51202C43.9161 9.38514 43.6816 9.36823 41.7588 9.36823C39.7188 9.36823 39.6094 9.37669 39.4609 9.53739Z" stroke="white" stroke-width="0.5"/>
<path d="M39.4609 11.9056C39.242 12.1424 39.2498 12.6161 39.4765 12.7853C39.625 12.9037 39.9846 12.9206 41.8135 12.9206H43.9864L44.1506 12.6922C44.346 12.4216 44.3069 12.1086 44.0568 11.8802C43.9161 11.7534 43.6816 11.7365 41.7588 11.7365C39.7188 11.7365 39.6094 11.7449 39.4609 11.9056Z" fill="#D9D9D9"/>
<path d="M39.4609 11.9056C39.242 12.1424 39.2498 12.6161 39.4765 12.7853C39.625 12.9037 39.9846 12.9206 41.8135 12.9206H43.9864L44.1506 12.6922C44.346 12.4216 44.3069 12.1086 44.0568 11.8802C43.9161 11.7534 43.6816 11.7365 41.7588 11.7365C39.7188 11.7365 39.6094 11.7449 39.4609 11.9056Z" fill="white"/>
<path d="M39.4609 11.9056C39.242 12.1424 39.2498 12.6161 39.4765 12.7853C39.625 12.9037 39.9846 12.9206 41.8135 12.9206H43.9864L44.1506 12.6922C44.346 12.4216 44.3069 12.1086 44.0568 11.8802C43.9161 11.7534 43.6816 11.7365 41.7588 11.7365C39.7188 11.7365 39.6094 11.7449 39.4609 11.9056Z" stroke="white" stroke-width="0.5"/>
<path d="M5.18724 35.1234C4.95276 35.3687 4.93712 35.6647 5.14816 35.91C5.30448 36.0961 5.35138 36.0961 7.493 36.0961C9.57991 36.0961 9.68933 36.0876 9.83784 35.9269C10.0645 35.6816 10.0411 35.301 9.79094 35.0895C9.58772 34.9204 9.48611 34.9119 7.47737 34.9119H5.37483L5.18724 35.1234Z" fill="#D9D9D9"/>
<path d="M5.18724 35.1234C4.95276 35.3687 4.93712 35.6647 5.14816 35.91C5.30448 36.0961 5.35138 36.0961 7.493 36.0961C9.57991 36.0961 9.68933 36.0876 9.83784 35.9269C10.0645 35.6816 10.0411 35.301 9.79094 35.0895C9.58772 34.9204 9.48611 34.9119 7.47737 34.9119H5.37483L5.18724 35.1234Z" fill="white"/>
<path d="M5.18724 35.1234C4.95276 35.3687 4.93712 35.6647 5.14816 35.91C5.30448 36.0961 5.35138 36.0961 7.493 36.0961C9.57991 36.0961 9.68933 36.0876 9.83784 35.9269C10.0645 35.6816 10.0411 35.301 9.79094 35.0895C9.58772 34.9204 9.48611 34.9119 7.47737 34.9119H5.37483L5.18724 35.1234Z" stroke="white" stroke-width="0.5"/>
<path d="M5.18724 37.4917C4.95276 37.737 4.93712 38.0668 5.14816 38.2952C5.29667 38.4559 5.40609 38.4644 7.493 38.4644C9.57991 38.4644 9.68933 38.4559 9.83784 38.2952C10.0645 38.0499 10.0411 37.6693 9.79094 37.4578C9.58772 37.2887 9.48611 37.2802 7.47737 37.2802H5.37483L5.18724 37.4917Z" fill="#D9D9D9"/>
<path d="M5.18724 37.4917C4.95276 37.737 4.93712 38.0668 5.14816 38.2952C5.29667 38.4559 5.40609 38.4644 7.493 38.4644C9.57991 38.4644 9.68933 38.4559 9.83784 38.2952C10.0645 38.0499 10.0411 37.6693 9.79094 37.4578C9.58772 37.2887 9.48611 37.2802 7.47737 37.2802H5.37483L5.18724 37.4917Z" fill="white"/>
<path d="M5.18724 37.4917C4.95276 37.737 4.93712 38.0668 5.14816 38.2952C5.29667 38.4559 5.40609 38.4644 7.493 38.4644C9.57991 38.4644 9.68933 38.4559 9.83784 38.2952C10.0645 38.0499 10.0411 37.6693 9.79094 37.4578C9.58772 37.2887 9.48611 37.2802 7.47737 37.2802H5.37483L5.18724 37.4917Z" stroke="white" stroke-width="0.5"/>
</svg>
