<svg width="50" height="50" viewBox="0 0 50 50" fill="none" xmlns="http://www.w3.org/2000/svg">
<path d="M8.47529 0.14389C8.30402 0.243507 8.13276 0.52022 7.94134 1.06258L7.65925 1.83738L6.75255 2.23585L5.83576 2.62325L5.1507 2.30226C4.50593 2.01447 4.42533 2.00341 4.12309 2.1473C3.68989 2.34653 1.95707 4.2946 1.87647 4.67093C1.8261 4.87016 1.89662 5.19115 2.10819 5.7003L2.40035 6.44189L2.06789 7.2831C1.87647 7.74798 1.72535 8.19072 1.72535 8.2682C1.72535 8.33461 1.40297 8.53385 1.01006 8.69988C0.617155 8.8659 0.234323 9.10941 0.153727 9.23117C-0.0578387 9.56322 -0.0477641 12.6956 0.163801 13.0277C0.244397 13.1494 0.607081 13.3708 0.979838 13.5147C1.34252 13.6586 1.67498 13.8468 1.7052 13.9464C1.72535 14.0349 1.89662 14.4887 2.07796 14.9425L2.40035 15.7837L2.11826 16.4921C1.95707 16.8906 1.83617 17.3112 1.8261 17.4219C1.8261 17.5436 2.28953 18.1524 2.95445 18.894C4.24399 20.3218 4.30443 20.344 5.31189 19.857L5.89621 19.5803L6.55106 19.9012C6.91374 20.0894 7.31672 20.2665 7.43761 20.3108C7.58873 20.3551 7.72978 20.5986 7.92119 21.152C8.29395 22.2256 8.40477 22.2699 10.2383 22.2256C11.9309 22.1814 11.9712 22.1703 12.3238 21.0745C12.5454 20.3883 12.5656 20.3661 13.0592 20.189C13.3312 20.0894 13.7342 19.9123 13.9558 19.7906L14.3387 19.5692L14.923 19.857C15.9204 20.3551 16.0211 20.3108 17.2603 18.9494C18.4995 17.5879 18.5297 17.4994 18.0864 16.4479L17.8245 15.817L18.1569 14.9093C18.3383 14.4112 18.5398 13.9464 18.5901 13.8689C18.6506 13.8025 18.9528 13.6364 19.255 13.5036C20.192 13.1052 20.1618 13.1716 20.1618 11.1128C20.1618 9.31971 20.1618 9.30865 19.9099 9.09834C19.7688 8.97659 19.4263 8.78842 19.1442 8.67774C18.8722 8.56705 18.6103 8.42316 18.57 8.35675C18.5297 8.30141 18.3383 7.83653 18.1569 7.33844L17.8345 6.41976L18.0864 5.79992C18.5196 4.75947 18.4995 4.67093 17.2804 3.30949C16.686 2.65645 16.1017 2.09195 15.9707 2.05875C15.8096 2.01447 15.4872 2.10302 15.0338 2.31333L14.3487 2.64538L13.4521 2.22478L12.5555 1.7931L12.3238 1.15113C11.9309 0.0553417 11.8301 -1.90735e-06 10.1577 -1.90735e-06C9.21073 -1.90735e-06 8.64656 0.0553417 8.47529 0.14389ZM11.0846 2.54576L11.3566 3.26522L12.2029 3.60835C12.6764 3.78544 13.2909 4.07322 13.5831 4.23925C14.2178 4.60452 14.3185 4.60452 15.0237 4.26139L15.5778 3.99574L16.0614 4.51597C16.3234 4.79268 16.5349 5.09153 16.5349 5.18008C16.5349 5.25756 16.4442 5.51213 16.3334 5.75564C16.0614 6.34228 16.0816 6.71861 16.4241 7.42699C16.5853 7.75905 16.8069 8.33461 16.9178 8.71095C17.22 9.71818 17.2804 9.79566 17.9454 10.0724L18.5498 10.3159V11.1239V11.9319L17.9454 12.1754C17.2704 12.4521 17.2301 12.5185 16.8775 13.6475C16.7465 14.0681 16.5248 14.6326 16.3838 14.8983C16.0816 15.4628 16.0614 15.9166 16.3334 16.4921C16.4442 16.7356 16.5349 16.9902 16.5349 17.0677C16.5349 17.1452 16.3234 17.444 16.0715 17.7207L15.598 18.252L15.0439 17.9753C14.3487 17.6433 14.2279 17.6433 13.5831 18.0085C13.2909 18.1635 12.6965 18.4402 12.2633 18.6062C11.82 18.7833 11.4271 18.9604 11.3768 19.0158C11.3365 19.06 11.1853 19.3921 11.0544 19.7574L10.8126 20.4215L10.1074 20.4547L9.41222 20.4879L9.18051 19.8238C9.05962 19.4585 8.88835 19.0932 8.79768 19.0047C8.69693 18.9272 8.26373 18.7169 7.82045 18.5398C7.37717 18.3738 6.83314 18.1192 6.60143 17.9753C6.07755 17.6433 5.83576 17.6433 5.16077 17.9975L4.60667 18.2742L4.10294 17.7207L3.60929 17.1673L3.87123 16.5143C4.02235 16.149 4.14324 15.7948 4.14324 15.7063C4.14324 15.6288 3.99212 15.2414 3.80071 14.8429C3.61937 14.4445 3.37758 13.8135 3.27683 13.4483C3.04512 12.596 2.9343 12.4521 2.21901 12.1533L1.62461 11.8987V11.1018V10.3159L2.10819 10.1388C2.84363 9.86207 2.99475 9.69605 3.24661 8.88804C3.3675 8.46744 3.61937 7.80332 3.80071 7.39379C3.99212 6.98425 4.14324 6.58578 4.14324 6.51937C4.14324 6.45296 4.02235 6.09877 3.87123 5.73351L3.60929 5.08046L4.10294 4.52703L4.60667 3.97361L5.18092 4.26139C5.5033 4.41635 5.84584 4.5381 5.94658 4.5381C6.04733 4.5381 6.43016 4.36101 6.80292 4.1507C7.17568 3.9404 7.73985 3.68583 8.05216 3.58621C8.7876 3.35377 8.9085 3.23201 9.18051 2.42401L9.41222 1.7599L10.1074 1.7931L10.8025 1.82631L11.0846 2.54576Z" fill="#D9D9D9"/>
<path d="M8.47529 0.14389C8.30402 0.243507 8.13276 0.52022 7.94134 1.06258L7.65925 1.83738L6.75255 2.23585L5.83576 2.62325L5.1507 2.30226C4.50593 2.01447 4.42533 2.00341 4.12309 2.1473C3.68989 2.34653 1.95707 4.2946 1.87647 4.67093C1.8261 4.87016 1.89662 5.19115 2.10819 5.7003L2.40035 6.44189L2.06789 7.2831C1.87647 7.74798 1.72535 8.19072 1.72535 8.2682C1.72535 8.33461 1.40297 8.53385 1.01006 8.69988C0.617155 8.8659 0.234323 9.10941 0.153727 9.23117C-0.0578387 9.56322 -0.0477641 12.6956 0.163801 13.0277C0.244397 13.1494 0.607081 13.3708 0.979838 13.5147C1.34252 13.6586 1.67498 13.8468 1.7052 13.9464C1.72535 14.0349 1.89662 14.4887 2.07796 14.9425L2.40035 15.7837L2.11826 16.4921C1.95707 16.8906 1.83617 17.3112 1.8261 17.4219C1.8261 17.5436 2.28953 18.1524 2.95445 18.894C4.24399 20.3218 4.30443 20.344 5.31189 19.857L5.89621 19.5803L6.55106 19.9012C6.91374 20.0894 7.31672 20.2665 7.43761 20.3108C7.58873 20.3551 7.72978 20.5986 7.92119 21.152C8.29395 22.2256 8.40477 22.2699 10.2383 22.2256C11.9309 22.1814 11.9712 22.1703 12.3238 21.0745C12.5454 20.3883 12.5656 20.3661 13.0592 20.189C13.3312 20.0894 13.7342 19.9123 13.9558 19.7906L14.3387 19.5692L14.923 19.857C15.9204 20.3551 16.0211 20.3108 17.2603 18.9494C18.4995 17.5879 18.5297 17.4994 18.0864 16.4479L17.8245 15.817L18.1569 14.9093C18.3383 14.4112 18.5398 13.9464 18.5901 13.8689C18.6506 13.8025 18.9528 13.6364 19.255 13.5036C20.192 13.1052 20.1618 13.1716 20.1618 11.1128C20.1618 9.31971 20.1618 9.30865 19.9099 9.09834C19.7688 8.97659 19.4263 8.78842 19.1442 8.67774C18.8722 8.56705 18.6103 8.42316 18.57 8.35675C18.5297 8.30141 18.3383 7.83653 18.1569 7.33844L17.8345 6.41976L18.0864 5.79992C18.5196 4.75947 18.4995 4.67093 17.2804 3.30949C16.686 2.65645 16.1017 2.09195 15.9707 2.05875C15.8096 2.01447 15.4872 2.10302 15.0338 2.31333L14.3487 2.64538L13.4521 2.22478L12.5555 1.7931L12.3238 1.15113C11.9309 0.0553417 11.8301 -1.90735e-06 10.1577 -1.90735e-06C9.21073 -1.90735e-06 8.64656 0.0553417 8.47529 0.14389ZM11.0846 2.54576L11.3566 3.26522L12.2029 3.60835C12.6764 3.78544 13.2909 4.07322 13.5831 4.23925C14.2178 4.60452 14.3185 4.60452 15.0237 4.26139L15.5778 3.99574L16.0614 4.51597C16.3234 4.79268 16.5349 5.09153 16.5349 5.18008C16.5349 5.25756 16.4442 5.51213 16.3334 5.75564C16.0614 6.34228 16.0816 6.71861 16.4241 7.42699C16.5853 7.75905 16.8069 8.33461 16.9178 8.71095C17.22 9.71818 17.2804 9.79566 17.9454 10.0724L18.5498 10.3159V11.1239V11.9319L17.9454 12.1754C17.2704 12.4521 17.2301 12.5185 16.8775 13.6475C16.7465 14.0681 16.5248 14.6326 16.3838 14.8983C16.0816 15.4628 16.0614 15.9166 16.3334 16.4921C16.4442 16.7356 16.5349 16.9902 16.5349 17.0677C16.5349 17.1452 16.3234 17.444 16.0715 17.7207L15.598 18.252L15.0439 17.9753C14.3487 17.6433 14.2279 17.6433 13.5831 18.0085C13.2909 18.1635 12.6965 18.4402 12.2633 18.6062C11.82 18.7833 11.4271 18.9604 11.3768 19.0158C11.3365 19.06 11.1853 19.3921 11.0544 19.7574L10.8126 20.4215L10.1074 20.4547L9.41222 20.4879L9.18051 19.8238C9.05962 19.4585 8.88835 19.0932 8.79768 19.0047C8.69693 18.9272 8.26373 18.7169 7.82045 18.5398C7.37717 18.3738 6.83314 18.1192 6.60143 17.9753C6.07755 17.6433 5.83576 17.6433 5.16077 17.9975L4.60667 18.2742L4.10294 17.7207L3.60929 17.1673L3.87123 16.5143C4.02235 16.149 4.14324 15.7948 4.14324 15.7063C4.14324 15.6288 3.99212 15.2414 3.80071 14.8429C3.61937 14.4445 3.37758 13.8135 3.27683 13.4483C3.04512 12.596 2.9343 12.4521 2.21901 12.1533L1.62461 11.8987V11.1018V10.3159L2.10819 10.1388C2.84363 9.86207 2.99475 9.69605 3.24661 8.88804C3.3675 8.46744 3.61937 7.80332 3.80071 7.39379C3.99212 6.98425 4.14324 6.58578 4.14324 6.51937C4.14324 6.45296 4.02235 6.09877 3.87123 5.73351L3.60929 5.08046L4.10294 4.52703L4.60667 3.97361L5.18092 4.26139C5.5033 4.41635 5.84584 4.5381 5.94658 4.5381C6.04733 4.5381 6.43016 4.36101 6.80292 4.1507C7.17568 3.9404 7.73985 3.68583 8.05216 3.58621C8.7876 3.35377 8.9085 3.23201 9.18051 2.42401L9.41222 1.7599L10.1074 1.7931L10.8025 1.82631L11.0846 2.54576Z" fill="white"/>
<path d="M8.83799 5.60067C6.59137 6.19837 4.94922 8.52277 4.94922 11.1239C4.94922 15.4074 9.07978 18.1303 12.5454 16.1379C14.4394 15.0421 15.5779 12.5628 15.2353 10.2827C14.7417 6.95103 11.7999 4.8148 8.83799 5.60067ZM11.6085 7.5598C12.354 7.95827 12.9786 8.65559 13.3514 9.51893C13.976 10.9689 13.6838 12.7288 12.626 13.8689C12.3641 14.1456 11.8805 14.5219 11.548 14.6879C11.0342 14.9536 10.8227 14.9979 10.0872 14.9979C9.38201 14.9868 9.14022 14.9425 8.6768 14.699C7.90106 14.3005 7.35703 13.7471 6.95405 12.928C6.63167 12.2639 6.61152 12.1754 6.61152 11.1239C6.61152 10.1277 6.64174 9.96168 6.88353 9.44145C7.62904 7.90293 8.77754 7.16133 10.2988 7.22775C10.8831 7.26095 11.2055 7.33843 11.6085 7.5598Z" fill="#D9D9D9"/>
<path d="M8.83799 5.60067C6.59137 6.19837 4.94922 8.52277 4.94922 11.1239C4.94922 15.4074 9.07978 18.1303 12.5454 16.1379C14.4394 15.0421 15.5779 12.5628 15.2353 10.2827C14.7417 6.95103 11.7999 4.8148 8.83799 5.60067ZM11.6085 7.5598C12.354 7.95827 12.9786 8.65559 13.3514 9.51893C13.976 10.9689 13.6838 12.7288 12.626 13.8689C12.3641 14.1456 11.8805 14.5219 11.548 14.6879C11.0342 14.9536 10.8227 14.9979 10.0872 14.9979C9.38201 14.9868 9.14022 14.9425 8.6768 14.699C7.90106 14.3005 7.35703 13.7471 6.95405 12.928C6.63167 12.2639 6.61152 12.1754 6.61152 11.1239C6.61152 10.1277 6.64174 9.96168 6.88353 9.44145C7.62904 7.90293 8.77754 7.16133 10.2988 7.22775C10.8831 7.26095 11.2055 7.33843 11.6085 7.5598Z" fill="white"/>
<path d="M32.2209 1.12898C32.1302 1.20646 31.8582 1.81523 31.6164 2.49041L31.1832 3.70795L30.3067 4.05107C29.8131 4.25031 29.1179 4.56023 28.7653 4.75946L28.1004 5.11366L27.0526 4.6045C26.4683 4.32779 25.8739 4.09535 25.7228 4.09535C25.5112 4.09535 25.1284 4.46061 23.8691 5.84418C22.4788 7.37164 22.2773 7.63728 22.2773 7.9472C22.2773 8.13537 22.4788 8.79948 22.7307 9.41932L23.184 10.5262L22.8415 11.2678C22.6501 11.6773 22.378 12.4078 22.2269 12.8948C22.0657 13.3819 21.8945 13.8357 21.834 13.9021C21.7736 13.9685 21.3807 14.1567 20.9676 14.3338C19.799 14.8097 19.5975 14.9315 19.4665 15.2303C19.396 15.4074 19.3557 16.3261 19.3557 17.8093C19.3557 20.6096 19.3053 20.4879 20.746 21.0966C21.2799 21.318 21.7736 21.5615 21.834 21.6279C21.8945 21.6943 22.0657 22.1481 22.2269 22.6352C22.378 23.1222 22.6501 23.8527 22.8415 24.2622L23.1739 24.9928L22.7307 26.0885C22.0355 27.7599 22.0053 27.6381 23.8187 29.6194C24.7758 30.682 25.4508 31.335 25.6321 31.3904C25.8437 31.4457 26.1761 31.335 27.0123 30.9366L28.1105 30.4053L28.9466 30.848C29.4101 31.0915 30.1052 31.4125 30.488 31.5453L31.2033 31.7999L31.5862 32.9178C32.1806 34.6445 31.969 34.5338 34.669 34.5338C36.3313 34.5338 36.9962 34.5006 37.1171 34.39C37.2178 34.3235 37.4898 33.7037 37.7216 33.0396L38.1648 31.8221L39.0111 31.49C39.4745 31.3018 40.1797 30.9808 40.5827 30.7816L41.298 30.4164L42.3357 30.9255C42.8999 31.2022 43.4842 31.4347 43.6252 31.4347C43.8066 31.4347 44.2499 31.0251 45.4084 29.7633C46.2547 28.8335 47.0002 27.9481 47.0607 27.771C47.1614 27.5053 47.1211 27.3282 46.6778 26.2103L46.1842 24.9596L46.567 24.1073C46.7786 23.6313 47.0707 22.9008 47.2017 22.4581C47.3327 22.0264 47.4838 21.639 47.5241 21.5947C47.5745 21.5394 48.0782 21.318 48.6524 21.0856C49.2468 20.831 49.7606 20.5543 49.8412 20.4325C50.0528 20.1005 50.0528 15.4185 49.8412 15.0975C49.7606 14.9868 49.1864 14.6658 48.5718 14.3891L47.4435 13.891L47.1916 13.0609C47.0607 12.6071 46.7685 11.8544 46.5569 11.3895L46.1741 10.5372L46.6677 9.3197C47.0103 8.46742 47.1513 8.00255 47.111 7.82545C47.0707 7.68156 46.3353 6.77394 45.4588 5.82204C44.2398 4.50488 43.8167 4.09535 43.6152 4.09535C43.4741 4.09535 42.8898 4.32779 42.3155 4.6045L41.2779 5.10259L40.4921 4.70412C40.0689 4.48275 39.3637 4.16176 38.9406 4.0068L38.1749 3.70795L37.7316 2.49041C37.4898 1.8263 37.2178 1.21753 37.1272 1.14005C36.8753 0.940815 32.4627 0.940815 32.2209 1.12898ZM36.4824 3.85184C36.6839 4.41634 36.9357 4.96976 37.0365 5.08045C37.1473 5.19114 37.641 5.41251 38.1245 5.57854C38.6182 5.74456 39.4544 6.12089 39.9883 6.43081C40.5223 6.72966 41.0663 6.97317 41.1973 6.97317C41.3282 6.97317 41.8622 6.76287 42.3961 6.50829L43.3431 6.05448L44.3506 7.15027L45.3581 8.25712L44.8946 9.35291C44.6528 9.96168 44.4413 10.5262 44.4413 10.6037C44.4413 10.6922 44.6428 11.1681 44.8846 11.6552C45.1364 12.1532 45.4991 13.1051 45.7006 13.7803C45.9122 14.4444 46.1439 15.0864 46.2245 15.186C46.3151 15.2967 46.8289 15.5624 47.373 15.7948L48.3703 16.2154V17.765V19.3146L47.373 19.7352C46.8289 19.9676 46.3051 20.2333 46.2245 20.344C46.1338 20.4436 45.9323 21.0081 45.761 21.5947C45.5898 22.1703 45.2271 23.1332 44.945 23.7309C44.673 24.3176 44.4413 24.871 44.4413 24.9374C44.4413 25.0149 44.6528 25.5683 44.8946 26.1771L45.3581 27.2729L44.3506 28.3797L43.3431 29.4755L42.3961 29.0217C41.8622 28.7671 41.3282 28.5568 41.1973 28.5568C41.0663 28.5568 40.5223 28.8003 39.9883 29.0992C39.4544 29.4091 38.6182 29.7854 38.1245 29.9515C37.641 30.1175 37.1473 30.3389 37.0365 30.4606C36.9257 30.5713 36.6738 31.1247 36.4723 31.6892L36.1197 32.7075H34.6791H33.2485L32.8253 31.5453L32.4022 30.3831L31.294 29.9736C30.6895 29.7522 29.7828 29.3427 29.2791 29.0549C28.7854 28.7782 28.2716 28.5568 28.1508 28.5568C28.0299 28.5568 27.4959 28.7671 26.962 29.0217L25.9847 29.4755L24.9974 28.3797L24.0101 27.284L24.4534 26.1882C24.6952 25.5905 24.8967 25.0149 24.8967 24.9042C24.8967 24.8046 24.675 24.2512 24.403 23.6756C24.131 23.1 23.7885 22.2146 23.6374 21.6943C23.2243 20.2222 23.2646 20.2776 22.0758 19.7573L21.018 19.3035L20.9878 17.765L20.9676 16.2154L21.9751 15.7948C22.5292 15.5624 23.0631 15.2746 23.1639 15.1639C23.2646 15.0421 23.4258 14.5994 23.5265 14.1677C23.6273 13.7361 23.9799 12.7842 24.3023 12.0647C24.6347 11.3342 24.8967 10.6701 24.8967 10.5815C24.8967 10.504 24.6952 9.93954 24.4534 9.34184L24.0101 8.24605L24.9974 7.15027L25.9948 6.04341L26.962 6.50829C27.4959 6.76287 28.0399 6.97317 28.1709 6.97317C28.3019 6.97317 28.7653 6.76287 29.1985 6.50829C29.6317 6.24265 30.5283 5.83311 31.1933 5.5896L32.4022 5.14686L32.7246 4.26138C32.9059 3.77436 33.0973 3.24307 33.1477 3.06598L33.2485 2.75606L34.6891 2.78926L36.1197 2.82247L36.4824 3.85184Z" fill="#D9D9D9"/>
<path d="M32.2209 1.12898C32.1302 1.20646 31.8582 1.81523 31.6164 2.49041L31.1832 3.70795L30.3067 4.05107C29.8131 4.25031 29.1179 4.56023 28.7653 4.75946L28.1004 5.11366L27.0526 4.6045C26.4683 4.32779 25.8739 4.09535 25.7228 4.09535C25.5112 4.09535 25.1284 4.46061 23.8691 5.84418C22.4788 7.37164 22.2773 7.63728 22.2773 7.9472C22.2773 8.13537 22.4788 8.79948 22.7307 9.41932L23.184 10.5262L22.8415 11.2678C22.6501 11.6773 22.378 12.4078 22.2269 12.8948C22.0657 13.3819 21.8945 13.8357 21.834 13.9021C21.7736 13.9685 21.3807 14.1567 20.9676 14.3338C19.799 14.8097 19.5975 14.9315 19.4665 15.2303C19.396 15.4074 19.3557 16.3261 19.3557 17.8093C19.3557 20.6096 19.3053 20.4879 20.746 21.0966C21.2799 21.318 21.7736 21.5615 21.834 21.6279C21.8945 21.6943 22.0657 22.1481 22.2269 22.6352C22.378 23.1222 22.6501 23.8527 22.8415 24.2622L23.1739 24.9928L22.7307 26.0885C22.0355 27.7599 22.0053 27.6381 23.8187 29.6194C24.7758 30.682 25.4508 31.335 25.6321 31.3904C25.8437 31.4457 26.1761 31.335 27.0123 30.9366L28.1105 30.4053L28.9466 30.848C29.4101 31.0915 30.1052 31.4125 30.488 31.5453L31.2033 31.7999L31.5862 32.9178C32.1806 34.6445 31.969 34.5338 34.669 34.5338C36.3313 34.5338 36.9962 34.5006 37.1171 34.39C37.2178 34.3235 37.4898 33.7037 37.7216 33.0396L38.1648 31.8221L39.0111 31.49C39.4745 31.3018 40.1797 30.9808 40.5827 30.7816L41.298 30.4164L42.3357 30.9255C42.8999 31.2022 43.4842 31.4347 43.6252 31.4347C43.8066 31.4347 44.2499 31.0251 45.4084 29.7633C46.2547 28.8335 47.0002 27.9481 47.0607 27.771C47.1614 27.5053 47.1211 27.3282 46.6778 26.2103L46.1842 24.9596L46.567 24.1073C46.7786 23.6313 47.0707 22.9008 47.2017 22.4581C47.3327 22.0264 47.4838 21.639 47.5241 21.5947C47.5745 21.5394 48.0782 21.318 48.6524 21.0856C49.2468 20.831 49.7606 20.5543 49.8412 20.4325C50.0528 20.1005 50.0528 15.4185 49.8412 15.0975C49.7606 14.9868 49.1864 14.6658 48.5718 14.3891L47.4435 13.891L47.1916 13.0609C47.0607 12.6071 46.7685 11.8544 46.5569 11.3895L46.1741 10.5372L46.6677 9.3197C47.0103 8.46742 47.1513 8.00255 47.111 7.82545C47.0707 7.68156 46.3353 6.77394 45.4588 5.82204C44.2398 4.50488 43.8167 4.09535 43.6152 4.09535C43.4741 4.09535 42.8898 4.32779 42.3155 4.6045L41.2779 5.10259L40.4921 4.70412C40.0689 4.48275 39.3637 4.16176 38.9406 4.0068L38.1749 3.70795L37.7316 2.49041C37.4898 1.8263 37.2178 1.21753 37.1272 1.14005C36.8753 0.940815 32.4627 0.940815 32.2209 1.12898ZM36.4824 3.85184C36.6839 4.41634 36.9357 4.96976 37.0365 5.08045C37.1473 5.19114 37.641 5.41251 38.1245 5.57854C38.6182 5.74456 39.4544 6.12089 39.9883 6.43081C40.5223 6.72966 41.0663 6.97317 41.1973 6.97317C41.3282 6.97317 41.8622 6.76287 42.3961 6.50829L43.3431 6.05448L44.3506 7.15027L45.3581 8.25712L44.8946 9.35291C44.6528 9.96168 44.4413 10.5262 44.4413 10.6037C44.4413 10.6922 44.6428 11.1681 44.8846 11.6552C45.1364 12.1532 45.4991 13.1051 45.7006 13.7803C45.9122 14.4444 46.1439 15.0864 46.2245 15.186C46.3151 15.2967 46.8289 15.5624 47.373 15.7948L48.3703 16.2154V17.765V19.3146L47.373 19.7352C46.8289 19.9676 46.3051 20.2333 46.2245 20.344C46.1338 20.4436 45.9323 21.0081 45.761 21.5947C45.5898 22.1703 45.2271 23.1332 44.945 23.7309C44.673 24.3176 44.4413 24.871 44.4413 24.9374C44.4413 25.0149 44.6528 25.5683 44.8946 26.1771L45.3581 27.2729L44.3506 28.3797L43.3431 29.4755L42.3961 29.0217C41.8622 28.7671 41.3282 28.5568 41.1973 28.5568C41.0663 28.5568 40.5223 28.8003 39.9883 29.0992C39.4544 29.4091 38.6182 29.7854 38.1245 29.9515C37.641 30.1175 37.1473 30.3389 37.0365 30.4606C36.9257 30.5713 36.6738 31.1247 36.4723 31.6892L36.1197 32.7075H34.6791H33.2485L32.8253 31.5453L32.4022 30.3831L31.294 29.9736C30.6895 29.7522 29.7828 29.3427 29.2791 29.0549C28.7854 28.7782 28.2716 28.5568 28.1508 28.5568C28.0299 28.5568 27.4959 28.7671 26.962 29.0217L25.9847 29.4755L24.9974 28.3797L24.0101 27.284L24.4534 26.1882C24.6952 25.5905 24.8967 25.0149 24.8967 24.9042C24.8967 24.8046 24.675 24.2512 24.403 23.6756C24.131 23.1 23.7885 22.2146 23.6374 21.6943C23.2243 20.2222 23.2646 20.2776 22.0758 19.7573L21.018 19.3035L20.9878 17.765L20.9676 16.2154L21.9751 15.7948C22.5292 15.5624 23.0631 15.2746 23.1639 15.1639C23.2646 15.0421 23.4258 14.5994 23.5265 14.1677C23.6273 13.7361 23.9799 12.7842 24.3023 12.0647C24.6347 11.3342 24.8967 10.6701 24.8967 10.5815C24.8967 10.504 24.6952 9.93954 24.4534 9.34184L24.0101 8.24605L24.9974 7.15027L25.9948 6.04341L26.962 6.50829C27.4959 6.76287 28.0399 6.97317 28.1709 6.97317C28.3019 6.97317 28.7653 6.76287 29.1985 6.50829C29.6317 6.24265 30.5283 5.83311 31.1933 5.5896L32.4022 5.14686L32.7246 4.26138C32.9059 3.77436 33.0973 3.24307 33.1477 3.06598L33.2485 2.75606L34.6891 2.78926L36.1197 2.82247L36.4824 3.85184Z" fill="white"/>
<path d="M33.2084 8.78842C30.5891 9.36398 28.4835 11.1017 27.3249 13.6364C26.5895 15.2524 26.4585 15.8944 26.4585 17.765C26.4585 19.5249 26.5995 20.2444 27.1738 21.5726C29.6723 27.4057 36.5733 28.6786 40.6233 24.063C42.205 22.2478 42.9304 20.2776 42.9304 17.765C42.9304 14.7654 41.7718 12.2307 39.5655 10.4044C38.9005 9.851 37.5103 9.13154 36.6741 8.91017C35.7472 8.66666 34.0648 8.60025 33.2084 8.78842ZM36.8252 10.825C38.7696 11.5556 40.2304 13.1494 40.996 15.3631C41.2278 16.0272 41.258 16.2597 41.2681 17.6543C41.2681 18.9604 41.2278 19.3257 41.0464 19.9787C40.3714 22.3031 38.5479 24.218 36.3819 24.8599C35.5759 25.0924 33.9338 25.1256 33.1581 24.9153C31.7879 24.539 30.317 23.5317 29.5212 22.3917C28.8965 21.5172 28.695 21.1188 28.3626 20.1447C28.1107 19.3921 28.0805 19.1707 28.0805 17.8204C28.0704 16.5364 28.1006 16.2154 28.3021 15.5513C28.9167 13.5258 30.1256 12.0315 31.8887 11.1128C33.3998 10.3269 35.2233 10.2163 36.8252 10.825Z" fill="#D9D9D9"/>
<path d="M33.2084 8.78842C30.5891 9.36398 28.4835 11.1017 27.3249 13.6364C26.5895 15.2524 26.4585 15.8944 26.4585 17.765C26.4585 19.5249 26.5995 20.2444 27.1738 21.5726C29.6723 27.4057 36.5733 28.6786 40.6233 24.063C42.205 22.2478 42.9304 20.2776 42.9304 17.765C42.9304 14.7654 41.7718 12.2307 39.5655 10.4044C38.9005 9.851 37.5103 9.13154 36.6741 8.91017C35.7472 8.66666 34.0648 8.60025 33.2084 8.78842ZM36.8252 10.825C38.7696 11.5556 40.2304 13.1494 40.996 15.3631C41.2278 16.0272 41.258 16.2597 41.2681 17.6543C41.2681 18.9604 41.2278 19.3257 41.0464 19.9787C40.3714 22.3031 38.5479 24.218 36.3819 24.8599C35.5759 25.0924 33.9338 25.1256 33.1581 24.9153C31.7879 24.539 30.317 23.5317 29.5212 22.3917C28.8965 21.5172 28.695 21.1188 28.3626 20.1447C28.1107 19.3921 28.0805 19.1707 28.0805 17.8204C28.0704 16.5364 28.1006 16.2154 28.3021 15.5513C28.9167 13.5258 30.1256 12.0315 31.8887 11.1128C33.3998 10.3269 35.2233 10.2163 36.8252 10.825Z" fill="white"/>
<path d="M5.55391 28.3466C5.36249 28.413 4.65728 28.6122 4.00243 28.8004C2.99498 29.0881 2.73304 29.2099 2.40058 29.542C1.917 30.0179 1.72559 30.4828 1.72559 31.169C1.72559 31.4679 2.46103 34.7884 3.539 39.3819C5.53376 47.8493 5.45316 47.6169 6.35987 48.115C6.96434 48.4581 7.28673 48.436 9.02962 47.9489C10.8027 47.4398 11.105 47.2959 11.4979 46.6982C11.9109 46.0673 11.9714 45.4585 11.7195 44.3517C11.5986 43.8536 11.5382 43.4108 11.5785 43.3776C11.6188 43.3334 11.9512 43.2227 12.324 43.112L12.9889 42.9238L18.0766 46.1337C21.4817 48.3031 23.3959 49.4432 23.8996 49.6314C24.8466 49.9745 25.9548 50.0962 26.8112 49.9191C27.1739 49.8527 30.4179 48.8344 34.0145 47.6501C37.6212 46.4658 41.5804 45.1707 42.8297 44.7723C44.0789 44.3627 45.2879 43.9089 45.5196 43.765C46.5875 43.0899 47.3028 41.2746 47.061 39.8689C46.8595 38.6624 46.245 37.8212 45.1569 37.2567C44.5726 36.9579 44.3711 36.9136 43.3939 36.8804C42.7894 36.8472 41.9633 36.8915 41.5603 36.969C41.1573 37.0354 38.5178 37.788 35.6969 38.6292C32.8861 39.4704 30.3574 40.1899 30.0955 40.2342L29.6119 40.3227L29.9242 39.8357C30.5891 38.8395 30.6999 37.5556 30.2063 36.3823C29.8335 35.4747 29.4205 35.043 28.2921 34.39C26.6601 33.4381 25.6929 32.785 23.3959 31.0473C21.0989 29.3317 20.8269 29.1435 19.9605 28.8225C19.1545 28.5236 17.4016 28.5458 16.1825 28.8778C15.2053 29.1324 8.89865 30.9919 8.71731 31.0694C8.64679 31.1026 8.53597 30.8038 8.42515 30.3389C8.33448 29.9072 8.12292 29.3649 7.9718 29.1214C7.458 28.3576 6.53114 28.0588 5.55391 28.3466ZM6.64196 30.1286C6.69233 30.2061 7.54867 33.7037 8.53597 37.8876C10.1277 44.6505 10.3091 45.5249 10.168 45.6688C9.97663 45.8791 7.38747 46.6207 7.09531 46.5432C6.94419 46.499 6.84345 46.3551 6.77293 46.0673C4.32482 35.685 3.33751 31.4015 3.33751 31.1801C3.33751 31.0251 3.37781 30.8591 3.43826 30.8259C3.58937 30.7263 6.07779 30.0179 6.31957 30.0068C6.44047 29.9958 6.58151 30.0622 6.64196 30.1286ZM19.89 30.6931C20.2023 30.848 21.3709 31.6671 22.4993 32.5194C24.7459 34.224 25.9045 35.0209 27.3048 35.8178C28.6347 36.5705 29.0477 37.1793 28.8765 38.1422C28.7959 38.6514 28.2921 39.2601 27.8388 39.393C27.1336 39.6143 26.5593 39.3376 23.2045 37.146C22.2373 36.5151 21.4616 36.0835 21.3004 36.0835C20.6859 36.0835 20.293 37.1128 20.7463 37.5445C21.0183 37.8102 24.081 39.7914 25.3302 40.5109C27.6071 41.828 28.9671 42.2154 30.3675 41.9719C30.7604 41.9055 33.4301 41.1418 36.2812 40.2784C41.2077 38.8063 41.5301 38.7178 42.6383 38.6624C43.5752 38.6071 43.9077 38.6403 44.3207 38.7842C45.5498 39.238 45.8923 40.7876 45.0058 41.8945C44.6935 42.2929 44.623 42.3261 35.7775 45.2372C26.8716 48.1703 26.8615 48.1814 25.9045 48.1814C25.1791 48.1814 24.8063 48.126 24.3631 47.9489C24.0508 47.8272 22.5496 46.9417 21.0385 45.9787C19.5374 45.0158 17.3008 43.599 16.0818 42.8242C12.9285 40.8208 13.3214 40.9758 12.1427 41.33C11.6087 41.496 11.1352 41.5845 11.0949 41.5403C11.0546 41.496 10.5811 39.559 10.0472 37.2567C9.50313 34.9545 9.0397 33.0064 9.01955 32.9289C8.98933 32.8514 9.06992 32.7629 9.20089 32.7408C9.33186 32.7076 11.0748 32.1984 13.0796 31.6118C15.0844 31.0141 16.9482 30.4939 17.2101 30.4385C18.0665 30.2614 19.2754 30.3832 19.89 30.6931Z" fill="#D9D9D9"/>
<path d="M5.55391 28.3466C5.36249 28.413 4.65728 28.6122 4.00243 28.8004C2.99498 29.0881 2.73304 29.2099 2.40058 29.542C1.917 30.0179 1.72559 30.4828 1.72559 31.169C1.72559 31.4679 2.46103 34.7884 3.539 39.3819C5.53376 47.8493 5.45316 47.6169 6.35987 48.115C6.96434 48.4581 7.28673 48.436 9.02962 47.9489C10.8027 47.4398 11.105 47.2959 11.4979 46.6982C11.9109 46.0673 11.9714 45.4585 11.7195 44.3517C11.5986 43.8536 11.5382 43.4108 11.5785 43.3776C11.6188 43.3334 11.9512 43.2227 12.324 43.112L12.9889 42.9238L18.0766 46.1337C21.4817 48.3031 23.3959 49.4432 23.8996 49.6314C24.8466 49.9745 25.9548 50.0962 26.8112 49.9191C27.1739 49.8527 30.4179 48.8344 34.0145 47.6501C37.6212 46.4658 41.5804 45.1707 42.8297 44.7723C44.0789 44.3627 45.2879 43.9089 45.5196 43.765C46.5875 43.0899 47.3028 41.2746 47.061 39.8689C46.8595 38.6624 46.245 37.8212 45.1569 37.2567C44.5726 36.9579 44.3711 36.9136 43.3939 36.8804C42.7894 36.8472 41.9633 36.8915 41.5603 36.969C41.1573 37.0354 38.5178 37.788 35.6969 38.6292C32.8861 39.4704 30.3574 40.1899 30.0955 40.2342L29.6119 40.3227L29.9242 39.8357C30.5891 38.8395 30.6999 37.5556 30.2063 36.3823C29.8335 35.4747 29.4205 35.043 28.2921 34.39C26.6601 33.4381 25.6929 32.785 23.3959 31.0473C21.0989 29.3317 20.8269 29.1435 19.9605 28.8225C19.1545 28.5236 17.4016 28.5458 16.1825 28.8778C15.2053 29.1324 8.89865 30.9919 8.71731 31.0694C8.64679 31.1026 8.53597 30.8038 8.42515 30.3389C8.33448 29.9072 8.12292 29.3649 7.9718 29.1214C7.458 28.3576 6.53114 28.0588 5.55391 28.3466ZM6.64196 30.1286C6.69233 30.2061 7.54867 33.7037 8.53597 37.8876C10.1277 44.6505 10.3091 45.5249 10.168 45.6688C9.97663 45.8791 7.38747 46.6207 7.09531 46.5432C6.94419 46.499 6.84345 46.3551 6.77293 46.0673C4.32482 35.685 3.33751 31.4015 3.33751 31.1801C3.33751 31.0251 3.37781 30.8591 3.43826 30.8259C3.58937 30.7263 6.07779 30.0179 6.31957 30.0068C6.44047 29.9958 6.58151 30.0622 6.64196 30.1286ZM19.89 30.6931C20.2023 30.848 21.3709 31.6671 22.4993 32.5194C24.7459 34.224 25.9045 35.0209 27.3048 35.8178C28.6347 36.5705 29.0477 37.1793 28.8765 38.1422C28.7959 38.6514 28.2921 39.2601 27.8388 39.393C27.1336 39.6143 26.5593 39.3376 23.2045 37.146C22.2373 36.5151 21.4616 36.0835 21.3004 36.0835C20.6859 36.0835 20.293 37.1128 20.7463 37.5445C21.0183 37.8102 24.081 39.7914 25.3302 40.5109C27.6071 41.828 28.9671 42.2154 30.3675 41.9719C30.7604 41.9055 33.4301 41.1418 36.2812 40.2784C41.2077 38.8063 41.5301 38.7178 42.6383 38.6624C43.5752 38.6071 43.9077 38.6403 44.3207 38.7842C45.5498 39.238 45.8923 40.7876 45.0058 41.8945C44.6935 42.2929 44.623 42.3261 35.7775 45.2372C26.8716 48.1703 26.8615 48.1814 25.9045 48.1814C25.1791 48.1814 24.8063 48.126 24.3631 47.9489C24.0508 47.8272 22.5496 46.9417 21.0385 45.9787C19.5374 45.0158 17.3008 43.599 16.0818 42.8242C12.9285 40.8208 13.3214 40.9758 12.1427 41.33C11.6087 41.496 11.1352 41.5845 11.0949 41.5403C11.0546 41.496 10.5811 39.559 10.0472 37.2567C9.50313 34.9545 9.0397 33.0064 9.01955 32.9289C8.98933 32.8514 9.06992 32.7629 9.20089 32.7408C9.33186 32.7076 11.0748 32.1984 13.0796 31.6118C15.0844 31.0141 16.9482 30.4939 17.2101 30.4385C18.0665 30.2614 19.2754 30.3832 19.89 30.6931Z" fill="white"/>
<path d="M4.91905 31.7889C4.82838 31.8664 4.70748 32.0656 4.65711 32.2316C4.35487 33.1061 5.40263 33.8144 6.0071 33.1503C6.5209 32.5969 6.17837 31.6561 5.46307 31.6561C5.26158 31.6561 5.00972 31.7225 4.91905 31.7889Z" fill="#D9D9D9"/>
<path d="M4.91905 31.7889C4.82838 31.8664 4.70748 32.0656 4.65711 32.2316C4.35487 33.1061 5.40263 33.8144 6.0071 33.1503C6.5209 32.5969 6.17837 31.6561 5.46307 31.6561C5.26158 31.6561 5.00972 31.7225 4.91905 31.7889Z" fill="white"/>
</svg>
