<?xml version="1.0" standalone="no"?>
<!DOCTYPE svg PUBLIC "-//W3C//DTD SVG 20010904//EN"
 "http://www.w3.org/TR/2001/REC-SVG-20010904/DTD/svg10.dtd">
<svg version="1.0" xmlns="http://www.w3.org/2000/svg"
 width="1192.000000pt" height="1194.000000pt" viewBox="0 0 1192.000000 1194.000000"
 preserveAspectRatio="xMidYMid meet">

<g transform="translate(0.000000,1194.000000) scale(0.100000,-0.100000)"
fill="#000000" stroke="none">
<path d="M5720 10064 c-438 -39 -791 -140 -1101 -315 -528 -300 -918 -849
-1030 -1448 -47 -256 -4 -682 126 -1224 25 -107 25 -109 6 -135 -63 -90 -118
-248 -141 -403 -18 -120 -8 -397 18 -509 60 -255 183 -477 351 -632 l72 -67
183 -549 c173 -516 189 -560 271 -721 l88 -171 -6 -98 c-31 -468 -290 -888
-730 -1184 -50 -34 -465 -255 -922 -491 -456 -236 -865 -448 -908 -472 l-78
-42 58 -54 c233 -215 503 -417 888 -664 130 -84 528 -293 690 -362 366 -157
721 -277 1020 -343 55 -12 114 -26 130 -30 34 -10 205 -41 345 -64 322 -51
749 -81 1020 -72 301 10 645 42 830 75 30 6 96 18 145 26 498 89 1045 268
1503 492 509 250 897 507 1330 881 73 63 129 118 125 123 -4 4 -233 123 -508
264 -1349 694 -1285 659 -1450 784 -89 67 -289 265 -360 356 -186 239 -287
482 -315 758 l-11 109 112 215 111 216 144 461 c80 254 152 486 161 516 12 43
26 64 62 95 178 154 308 368 366 601 80 325 45 702 -86 918 -26 43 -39 76 -36
90 2 11 23 107 45 211 84 387 115 618 116 855 0 135 -4 169 -27 261 -56 227
-172 488 -306 692 -337 510 -818 845 -1421 988 -186 44 -335 60 -590 64 -135
1 -265 1 -290 -1z"/>
</g>
</svg>
