<svg width="100" height="100" viewBox="0 0 100 100" fill="none" xmlns="http://www.w3.org/2000/svg">
<circle cx="50" cy="50" r="50" fill="#CCCCCC"/>
<mask id="mask0_74_25" style="mask-type:alpha" maskUnits="userSpaceOnUse" x="0" y="0" width="100" height="100">
<circle cx="50" cy="50" r="50" fill="#D9D9D9"/>
</mask>
<g mask="url(#mask0_74_25)">
<path d="M47.8876 16.0139C44.2131 16.3405 41.2517 17.1864 38.651 18.6521C34.2215 21.1646 30.9497 25.7626 30.0101 30.7794C29.6158 32.9234 29.9765 36.4913 31.0671 41.0306C31.2768 41.9268 31.2768 41.9435 31.1174 42.1613C30.5889 42.915 30.1275 44.2383 29.9346 45.5365C29.7836 46.5415 29.8674 48.8614 30.0856 49.7995C30.5889 51.9352 31.6208 53.7944 33.0302 55.0926L33.6342 55.6537L35.1695 60.2517C36.6208 64.5733 36.755 64.9419 37.443 66.2903L38.1812 67.7224L38.1309 68.5432C37.8708 72.4628 35.698 75.9804 32.0067 78.4594C31.5872 78.7442 28.1057 80.5951 24.2718 82.5717C20.4463 84.5482 17.0151 86.3238 16.6544 86.5248L16 86.8765L16.4866 87.3288C18.4413 89.1295 20.7064 90.8212 23.9362 92.8899C25.0268 93.5934 28.3658 95.3439 29.7248 95.9218C32.7953 97.2367 35.7735 98.2417 38.2819 98.7944C38.7433 98.895 39.2383 99.0122 39.3725 99.0457C39.6577 99.1295 41.0923 99.3891 42.2668 99.5817C44.9681 100.009 48.5503 100.26 50.8238 100.185C53.349 100.101 56.2349 99.833 57.7869 99.5566C58.0386 99.5063 58.5923 99.4058 59.0034 99.3388C63.1812 98.5934 67.7701 97.0943 71.6124 95.2182C75.8825 93.1244 79.1376 90.972 82.7701 87.8397C83.3825 87.312 83.8523 86.8514 83.8188 86.8095C83.7852 86.776 81.8641 85.7794 79.557 84.5985C68.2399 78.7861 68.7768 79.0792 67.3926 78.0323C66.646 77.4712 64.9681 75.8129 64.3725 75.0507C62.8121 73.0491 61.9648 71.0139 61.7299 68.7023L61.6376 67.7894L62.5772 65.9888L63.5084 64.1797L64.7164 60.3187C65.3876 58.1914 65.9916 56.2484 66.0671 55.9971C66.1678 55.637 66.2852 55.4611 66.5872 55.2015C68.0805 53.9117 69.1711 52.1194 69.6577 50.168C70.3289 47.446 70.0352 44.2886 68.9362 42.4795C68.7181 42.1194 68.6091 41.843 68.6342 41.7258C68.651 41.6336 68.8272 40.8296 69.0117 39.9586C69.7164 36.7174 69.9765 34.7827 69.9849 32.7978C69.9849 31.6671 69.9513 31.3824 69.7584 30.6119C69.2886 28.7107 68.3154 26.5248 67.1913 24.8162C64.3641 20.5449 60.3289 17.7392 55.2701 16.5415C53.7097 16.173 52.4597 16.039 50.3205 16.0055C49.1879 15.9971 48.0973 15.9971 47.8876 16.0139Z" fill="#4B4B4B"/>
</g>
</svg>
