<svg width="48" height="50" viewBox="0 0 48 50" fill="none" xmlns="http://www.w3.org/2000/svg">
<path d="M0 5C0 2.23858 2.23858 0 5 0H42.5248C45.2862 0 47.5248 2.23858 47.5248 5V45C47.5248 47.7614 45.2862 50 42.5248 50H5C2.23857 50 0 47.7614 0 45V5Z" fill="#D9D9D9"/>
<path d="M0 5C0 2.23858 2.23858 0 5 0H42.5248C45.2862 0 47.5248 2.23858 47.5248 5V45C47.5248 47.7614 45.2862 50 42.5248 50H5C2.23857 50 0 47.7614 0 45V5Z" fill="#006EFF"/>
<path d="M14.7977 5.0899C12.7735 5.39474 11.1561 6.07476 9.68399 7.2472C8.60895 8.107 7.65981 9.46704 7.23367 10.7645C6.92374 11.6947 6.92374 13.4065 7.22398 14.321C7.80509 16.0718 9.77116 21.3556 9.92612 21.5745C10.1682 21.9184 10.8365 22.1764 11.466 22.1764H11.9794L12.0762 22.5828C12.1343 22.8095 12.2408 23.2785 12.3183 23.6224C12.5023 24.4196 12.5798 24.5916 12.9188 24.8417C13.4127 25.2091 13.529 25.2247 15.4176 25.2247C17.064 25.2247 17.219 25.2325 17.219 25.3576C17.219 25.4358 17.3255 26.233 17.4611 27.1397C17.7032 28.8124 17.7032 28.8906 17.3352 28.8984C17.0834 28.8984 16.4635 29.211 16.173 29.4768C15.466 30.1256 15.5241 31.0479 16.3086 31.6888C16.7347 32.0249 17.1996 32.1812 17.8195 32.1812C18.1681 32.1812 18.1778 32.1891 18.2262 32.5095C18.4102 33.6038 18.4393 33.9087 18.3715 33.9477C18.3231 33.9712 18.0713 34.0415 17.8001 34.1041C15.4369 34.6746 15.9405 37.34 18.4102 37.34H18.9332L19.0495 38.1216C19.1076 38.5594 19.156 38.9502 19.156 39.0049C19.156 39.0596 18.9429 39.1534 18.6911 39.2081C18.11 39.3254 17.5676 39.6771 17.3061 40.0992C17.1415 40.3493 17.1124 40.5213 17.1415 40.9433C17.1706 41.3967 17.219 41.5217 17.4708 41.7719C17.9066 42.2018 18.4877 42.4441 19.1173 42.4441C19.7177 42.4441 19.6887 42.4128 19.7855 43.2804C19.8921 44.2106 20.1536 44.5936 20.8509 44.8515C21.1995 44.9844 21.5385 45 24.4828 45C27.4367 45 27.766 44.9844 28.1244 44.8515C28.5699 44.6873 28.8798 44.406 29.0251 44.0386C29.1026 43.8432 29.6159 40.5994 29.6159 40.3102C29.6159 40.2789 29.8193 40.2086 30.0614 40.1617C31.4367 39.8803 32.0953 39.1299 31.8434 38.1451C31.7466 37.8012 31.6401 37.6448 31.3108 37.3713C31.0686 37.1759 30.7297 36.9961 30.4875 36.9414C30.1582 36.8632 30.1001 36.8163 30.1389 36.6834C30.1582 36.5896 30.2357 36.1285 30.2938 35.6595L30.41 34.7919L31.0202 34.6512C32.0953 34.4011 32.7054 33.807 32.7151 33.0176C32.7151 32.8144 32.657 32.5252 32.5795 32.3845C32.3858 32.0093 31.8241 31.5872 31.3398 31.4621C30.8652 31.3293 30.8846 31.4387 31.0977 30.0787L31.2139 29.3439L31.7272 29.2032C32.4439 29.0078 32.7538 28.7968 33.0444 28.3356C33.3543 27.8354 33.364 27.382 33.0831 26.8974C32.8797 26.5301 32.2986 26.1236 31.8822 26.0376C31.6982 25.9985 31.6691 25.9516 31.7175 25.7093C31.7369 25.5452 31.7756 25.3732 31.8047 25.3185C31.8241 25.2482 32.2696 25.2247 33.5868 25.2247C36.1727 25.2247 36.3083 25.1387 36.7344 23.2863L36.9959 22.1764H37.4995C38.1968 22.1764 38.807 21.9184 39.0685 21.512C39.3203 21.1368 41.6641 14.7352 41.8675 13.8676C42.2162 12.3903 41.8578 10.405 41.0152 9.18565C40.6665 8.67759 40.0273 8.65414 39.698 9.13875C39.5624 9.33416 39.5624 9.38106 39.7755 9.76406C40.4341 10.9678 40.6956 12.3356 40.4728 13.469C40.3954 13.8754 38.7489 18.5887 37.8869 20.8632C37.8385 20.9961 37.3349 21.0039 29.18 21.0039C22.9525 21.0039 20.4538 21.0274 20.2795 21.0899C19.7855 21.2697 19.7468 21.895 20.2117 22.0904C20.3376 22.1529 22.817 22.1764 27.9597 22.1764H35.5141L35.456 22.4265C35.4366 22.5672 35.3398 22.9814 35.2526 23.3488L35.0879 24.0132H24.4828H13.8776L13.6839 23.1143L13.4805 22.2154L15.5919 22.1764C17.403 22.1451 17.7226 22.1216 17.8969 22.0044C18.1875 21.8012 18.1584 21.3713 17.8388 21.1681C17.587 21.0117 17.4708 21.0039 14.3619 21.0039H11.1464L9.95517 17.7367C8.54115 13.8598 8.53147 13.8129 8.4443 12.914C8.22154 10.3581 10.1101 7.84124 13.0738 6.74696C14.2166 6.32488 14.972 6.19982 16.3473 6.19982C17.403 6.19982 17.742 6.2389 19.0204 6.48902C21.3545 6.95018 22.2455 7.03616 24.4828 7.03616C26.72 7.03616 27.582 6.95018 29.9355 6.49684C31.2333 6.2389 31.5626 6.20763 32.6667 6.19982C33.6933 6.19982 34.0613 6.23108 34.6812 6.37178C35.6303 6.59063 36.7635 7.04398 37.4995 7.51296C38.1968 7.94286 38.5939 7.98975 38.9039 7.66928C39.2138 7.35663 39.1557 7.17686 38.6327 6.77041C37.6448 6.00441 35.8434 5.32439 34.1291 5.0899C32.996 4.92576 31.6013 4.98829 30.1486 5.26186C28.0178 5.66049 27.3108 5.75429 25.9162 5.8559C23.6886 6.00441 22.0421 5.86372 18.817 5.26186C17.4902 5.01174 15.834 4.94139 14.7977 5.0899ZM30.2648 25.6624C30.2357 25.9047 30.197 26.108 30.1776 26.1158C30.1195 26.1549 19.3884 28.4529 19.2625 28.4607C19.1463 28.4685 19.0688 28.1558 18.9042 26.9834C18.7783 26.1627 18.6814 25.4358 18.6814 25.3576C18.6717 25.2325 19.0107 25.2247 24.4925 25.2247H30.3229L30.2648 25.6624ZM31.6497 27.257C31.8919 27.4524 31.9016 27.7416 31.6594 27.9135C31.5529 27.9917 30.4585 28.2731 29.1607 28.5545C27.2333 28.9687 26.8169 29.086 26.6426 29.2501C26.3714 29.5002 26.3617 29.68 26.6232 29.9458C26.8847 30.2115 27.1268 30.2115 28.5118 29.9067C29.1316 29.7738 29.6449 29.68 29.6643 29.6957C29.7127 29.7426 29.4222 31.5012 29.3544 31.5638C29.3156 31.595 27.1655 32.0718 24.5796 32.6268L19.8824 33.6429L19.8146 33.3068C19.7855 33.1192 19.7274 32.7128 19.6887 32.4001L19.6209 31.8295L21.9647 31.3215C23.2625 31.0479 24.415 30.7509 24.5409 30.6727C24.9961 30.3835 24.7346 29.68 24.1729 29.68C24.0566 29.68 22.5458 29.9849 20.8315 30.3522C17.4514 31.087 17.2965 31.0948 17.1609 30.6571C17.0253 30.2272 17.2287 30.1334 19.4659 29.6488C20.5991 29.4065 23.6886 28.7343 26.3229 28.1558C28.9573 27.5853 31.1945 27.1085 31.2914 27.1085C31.3786 27.1006 31.5432 27.171 31.6497 27.257ZM31.1074 32.6971C31.3398 32.8769 31.3011 33.2521 31.0493 33.385C30.8071 33.51 18.5846 36.1676 18.2553 36.1676C17.742 36.1676 17.4998 35.5735 17.926 35.3547C18.1972 35.2062 30.226 32.5877 30.6522 32.5799C30.8168 32.5721 31.0299 32.6268 31.1074 32.6971ZM28.7733 36.066C28.6958 36.574 28.5989 37.0117 28.5699 37.0352C28.4537 37.1212 20.6959 38.7704 20.6378 38.7235C20.5991 38.6844 20.3182 37.0117 20.3569 36.9805C20.386 36.9492 28.6183 35.1671 28.7539 35.1593C28.8895 35.1514 28.8895 35.2374 28.7733 36.066ZM30.381 38.3092C30.4972 38.5046 30.4875 38.5515 30.3229 38.7391C30.1486 38.9267 29.6159 39.0518 24.5893 40.1383C19.311 41.2794 19.0301 41.3341 18.8073 41.2091C18.5361 41.0684 18.478 40.6229 18.7105 40.4744C18.9429 40.318 29.4319 38.0591 29.858 38.0669C30.1776 38.0826 30.2648 38.1216 30.381 38.3092ZM28.0663 40.7948C28.0663 41.0528 27.6885 43.6165 27.6304 43.7259C27.6014 43.8041 26.8847 43.8276 24.4925 43.8276C21.6257 43.8276 21.3932 43.8197 21.3448 43.6947C21.2577 43.4602 21.0833 42.1705 21.1317 42.1314C21.1802 42.0845 27.7563 40.6385 27.95 40.6307C28.0082 40.6229 28.0663 40.701 28.0663 40.7948Z" fill="#D9D9D9"/>
<path d="M14.7977 5.0899C12.7735 5.39474 11.1561 6.07476 9.68399 7.2472C8.60895 8.107 7.65981 9.46704 7.23367 10.7645C6.92374 11.6947 6.92374 13.4065 7.22398 14.321C7.80509 16.0718 9.77116 21.3556 9.92612 21.5745C10.1682 21.9184 10.8365 22.1764 11.466 22.1764H11.9794L12.0762 22.5828C12.1343 22.8095 12.2408 23.2785 12.3183 23.6224C12.5023 24.4196 12.5798 24.5916 12.9188 24.8417C13.4127 25.2091 13.529 25.2247 15.4176 25.2247C17.064 25.2247 17.219 25.2325 17.219 25.3576C17.219 25.4358 17.3255 26.233 17.4611 27.1397C17.7032 28.8124 17.7032 28.8906 17.3352 28.8984C17.0834 28.8984 16.4635 29.211 16.173 29.4768C15.466 30.1256 15.5241 31.0479 16.3086 31.6888C16.7347 32.0249 17.1996 32.1812 17.8195 32.1812C18.1681 32.1812 18.1778 32.1891 18.2262 32.5095C18.4102 33.6038 18.4393 33.9087 18.3715 33.9477C18.3231 33.9712 18.0713 34.0415 17.8001 34.1041C15.4369 34.6746 15.9405 37.34 18.4102 37.34H18.9332L19.0495 38.1216C19.1076 38.5594 19.156 38.9502 19.156 39.0049C19.156 39.0596 18.9429 39.1534 18.6911 39.2081C18.11 39.3254 17.5676 39.6771 17.3061 40.0992C17.1415 40.3493 17.1124 40.5213 17.1415 40.9433C17.1706 41.3967 17.219 41.5217 17.4708 41.7719C17.9066 42.2018 18.4877 42.4441 19.1173 42.4441C19.7177 42.4441 19.6887 42.4128 19.7855 43.2804C19.8921 44.2106 20.1536 44.5936 20.8509 44.8515C21.1995 44.9844 21.5385 45 24.4828 45C27.4367 45 27.766 44.9844 28.1244 44.8515C28.5699 44.6873 28.8798 44.406 29.0251 44.0386C29.1026 43.8432 29.6159 40.5994 29.6159 40.3102C29.6159 40.2789 29.8193 40.2086 30.0614 40.1617C31.4367 39.8803 32.0953 39.1299 31.8434 38.1451C31.7466 37.8012 31.6401 37.6448 31.3108 37.3713C31.0686 37.1759 30.7297 36.9961 30.4875 36.9414C30.1582 36.8632 30.1001 36.8163 30.1389 36.6834C30.1582 36.5896 30.2357 36.1285 30.2938 35.6595L30.41 34.7919L31.0202 34.6512C32.0953 34.4011 32.7054 33.807 32.7151 33.0176C32.7151 32.8144 32.657 32.5252 32.5795 32.3845C32.3858 32.0093 31.8241 31.5872 31.3398 31.4621C30.8652 31.3293 30.8846 31.4387 31.0977 30.0787L31.2139 29.3439L31.7272 29.2032C32.4439 29.0078 32.7538 28.7968 33.0444 28.3356C33.3543 27.8354 33.364 27.382 33.0831 26.8974C32.8797 26.5301 32.2986 26.1236 31.8822 26.0376C31.6982 25.9985 31.6691 25.9516 31.7175 25.7093C31.7369 25.5452 31.7756 25.3732 31.8047 25.3185C31.8241 25.2482 32.2696 25.2247 33.5868 25.2247C36.1727 25.2247 36.3083 25.1387 36.7344 23.2863L36.9959 22.1764H37.4995C38.1968 22.1764 38.807 21.9184 39.0685 21.512C39.3203 21.1368 41.6641 14.7352 41.8675 13.8676C42.2162 12.3903 41.8578 10.405 41.0152 9.18565C40.6665 8.67759 40.0273 8.65414 39.698 9.13875C39.5624 9.33416 39.5624 9.38106 39.7755 9.76406C40.4341 10.9678 40.6956 12.3356 40.4728 13.469C40.3954 13.8754 38.7489 18.5887 37.8869 20.8632C37.8385 20.9961 37.3349 21.0039 29.18 21.0039C22.9525 21.0039 20.4538 21.0274 20.2795 21.0899C19.7855 21.2697 19.7468 21.895 20.2117 22.0904C20.3376 22.1529 22.817 22.1764 27.9597 22.1764H35.5141L35.456 22.4265C35.4366 22.5672 35.3398 22.9814 35.2526 23.3488L35.0879 24.0132H24.4828H13.8776L13.6839 23.1143L13.4805 22.2154L15.5919 22.1764C17.403 22.1451 17.7226 22.1216 17.8969 22.0044C18.1875 21.8012 18.1584 21.3713 17.8388 21.1681C17.587 21.0117 17.4708 21.0039 14.3619 21.0039H11.1464L9.95517 17.7367C8.54115 13.8598 8.53147 13.8129 8.4443 12.914C8.22154 10.3581 10.1101 7.84124 13.0738 6.74696C14.2166 6.32488 14.972 6.19982 16.3473 6.19982C17.403 6.19982 17.742 6.2389 19.0204 6.48902C21.3545 6.95018 22.2455 7.03616 24.4828 7.03616C26.72 7.03616 27.582 6.95018 29.9355 6.49684C31.2333 6.2389 31.5626 6.20763 32.6667 6.19982C33.6933 6.19982 34.0613 6.23108 34.6812 6.37178C35.6303 6.59063 36.7635 7.04398 37.4995 7.51296C38.1968 7.94286 38.5939 7.98975 38.9039 7.66928C39.2138 7.35663 39.1557 7.17686 38.6327 6.77041C37.6448 6.00441 35.8434 5.32439 34.1291 5.0899C32.996 4.92576 31.6013 4.98829 30.1486 5.26186C28.0178 5.66049 27.3108 5.75429 25.9162 5.8559C23.6886 6.00441 22.0421 5.86372 18.817 5.26186C17.4902 5.01174 15.834 4.94139 14.7977 5.0899ZM30.2648 25.6624C30.2357 25.9047 30.197 26.108 30.1776 26.1158C30.1195 26.1549 19.3884 28.4529 19.2625 28.4607C19.1463 28.4685 19.0688 28.1558 18.9042 26.9834C18.7783 26.1627 18.6814 25.4358 18.6814 25.3576C18.6717 25.2325 19.0107 25.2247 24.4925 25.2247H30.3229L30.2648 25.6624ZM31.6497 27.257C31.8919 27.4524 31.9016 27.7416 31.6594 27.9135C31.5529 27.9917 30.4585 28.2731 29.1607 28.5545C27.2333 28.9687 26.8169 29.086 26.6426 29.2501C26.3714 29.5002 26.3617 29.68 26.6232 29.9458C26.8847 30.2115 27.1268 30.2115 28.5118 29.9067C29.1316 29.7738 29.6449 29.68 29.6643 29.6957C29.7127 29.7426 29.4222 31.5012 29.3544 31.5638C29.3156 31.595 27.1655 32.0718 24.5796 32.6268L19.8824 33.6429L19.8146 33.3068C19.7855 33.1192 19.7274 32.7128 19.6887 32.4001L19.6209 31.8295L21.9647 31.3215C23.2625 31.0479 24.415 30.7509 24.5409 30.6727C24.9961 30.3835 24.7346 29.68 24.1729 29.68C24.0566 29.68 22.5458 29.9849 20.8315 30.3522C17.4514 31.087 17.2965 31.0948 17.1609 30.6571C17.0253 30.2272 17.2287 30.1334 19.4659 29.6488C20.5991 29.4065 23.6886 28.7343 26.3229 28.1558C28.9573 27.5853 31.1945 27.1085 31.2914 27.1085C31.3786 27.1006 31.5432 27.171 31.6497 27.257ZM31.1074 32.6971C31.3398 32.8769 31.3011 33.2521 31.0493 33.385C30.8071 33.51 18.5846 36.1676 18.2553 36.1676C17.742 36.1676 17.4998 35.5735 17.926 35.3547C18.1972 35.2062 30.226 32.5877 30.6522 32.5799C30.8168 32.5721 31.0299 32.6268 31.1074 32.6971ZM28.7733 36.066C28.6958 36.574 28.5989 37.0117 28.5699 37.0352C28.4537 37.1212 20.6959 38.7704 20.6378 38.7235C20.5991 38.6844 20.3182 37.0117 20.3569 36.9805C20.386 36.9492 28.6183 35.1671 28.7539 35.1593C28.8895 35.1514 28.8895 35.2374 28.7733 36.066ZM30.381 38.3092C30.4972 38.5046 30.4875 38.5515 30.3229 38.7391C30.1486 38.9267 29.6159 39.0518 24.5893 40.1383C19.311 41.2794 19.0301 41.3341 18.8073 41.2091C18.5361 41.0684 18.478 40.6229 18.7105 40.4744C18.9429 40.318 29.4319 38.0591 29.858 38.0669C30.1776 38.0826 30.2648 38.1216 30.381 38.3092ZM28.0663 40.7948C28.0663 41.0528 27.6885 43.6165 27.6304 43.7259C27.6014 43.8041 26.8847 43.8276 24.4925 43.8276C21.6257 43.8276 21.3932 43.8197 21.3448 43.6947C21.2577 43.4602 21.0833 42.1705 21.1317 42.1314C21.1802 42.0845 27.7563 40.6385 27.95 40.6307C28.0082 40.6229 28.0663 40.701 28.0663 40.7948Z" fill="white"/>
<path d="M18.2844 8.576C17.9939 8.81049 18.0229 9.24039 18.3425 9.40453C18.6428 9.56868 20.1246 9.8657 21.5289 10.0377C22.9817 10.2174 25.9841 10.2174 27.4368 10.0377C28.8993 9.85788 30.4876 9.53741 30.7007 9.38108C30.9331 9.20912 30.9331 8.7167 30.7007 8.55255C30.4973 8.40404 30.013 8.3806 29.5191 8.49784C28.6862 8.69325 27.1463 8.89647 25.8678 8.98245C23.8921 9.11533 21.219 8.9121 19.4466 8.49784C18.9139 8.37278 18.4975 8.40404 18.2844 8.576Z" fill="#D9D9D9"/>
<path d="M18.2844 8.576C17.9939 8.81049 18.0229 9.24039 18.3425 9.40453C18.6428 9.56868 20.1246 9.8657 21.5289 10.0377C22.9817 10.2174 25.9841 10.2174 27.4368 10.0377C28.8993 9.85788 30.4876 9.53741 30.7007 9.38108C30.9331 9.20912 30.9331 8.7167 30.7007 8.55255C30.4973 8.40404 30.013 8.3806 29.5191 8.49784C28.6862 8.69325 27.1463 8.89647 25.8678 8.98245C23.8921 9.11533 21.219 8.9121 19.4466 8.49784C18.9139 8.37278 18.4975 8.40404 18.2844 8.576Z" fill="white"/>
</svg>
