<svg width="551" height="807" viewBox="0 0 551 807" fill="none" xmlns="http://www.w3.org/2000/svg">
<path d="M245.333 12.6666C204.133 18.2666 163.467 32.4 136 50.6666C132 53.3333 125.733 57.6 122 60C108.133 69.2 83.4668 92.8 70.5334 109.067C63.3334 118.267 48.0001 140.4 45.0668 146C44.0001 148.133 41.4668 152.667 39.6001 156C36.1334 161.867 27.7334 182.533 23.4668 195.2C19.8668 206 13.6001 239.6 12.0001 257.333C10.8001 271.067 10.9334 277.733 12.6668 295.333C13.8668 307.067 15.3334 318.8 16.0001 321.333C16.6668 323.867 18.2668 330.533 19.4668 336C23.4668 354.267 29.8668 371.067 41.4668 394C47.7334 406.4 71.0668 452.667 93.2001 496.667C115.467 540.667 146.667 602.4 162.667 634C178.533 665.467 201.467 710.8 213.467 734.667C231.067 769.6 236.533 779.2 241.467 784.267C258.4 801.333 284.8 802.8 304 787.733C310.4 782.667 316.267 772.267 347.2 710.8C379.867 645.6 423.067 560.133 469.067 469.333C484 439.6 501.067 406 506.8 394.667C516.667 374.933 529.333 342.933 529.333 337.6C529.333 336.133 530.933 327.6 532.8 318.533C535.867 304 536.267 298.8 536.4 275.333C536.4 252 536 246.133 532.933 228.667C529.067 207.6 524.533 190.8 519.333 179.467C517.733 175.733 515.867 171.333 515.467 169.867C514.267 165.733 500.933 141.2 495.067 132.267C478.533 106.667 456.933 83.7333 429.333 62.2666C409.333 46.8 369.2 26.8 347.733 21.6C333.2 18 329.333 17.2 314.667 14.6666C294.4 11.0666 263.733 10.1333 245.333 12.6666ZM300.933 149.467C328.133 154.267 362.933 176.533 376.267 197.6C378.4 201.2 380.667 204 381.067 204C382.133 204 386.533 212.133 391.867 224.267C395.333 232 398.133 241.6 400.667 254.267C401.067 255.733 401.333 264.8 401.467 274.267C401.6 294.933 399.6 305.067 391.733 324C378.533 355.467 350.667 382.4 319.6 393.6C301.867 399.867 292.667 401.467 274 401.467C259.6 401.6 254.533 400.933 244 398.133C226.133 393.333 216 389.067 205.867 382.133C201.067 378.8 197.067 376 196.8 376C196.133 376 176.667 356.533 172.667 351.867C167.6 345.867 166.267 343.867 161.2 333.333C152.667 315.733 150.533 308.933 148.533 292C146.4 273.733 147.6 251.733 151.6 237.333C156.4 220.133 171.2 196.267 186 182C194.667 173.733 210.933 162.4 220 158.533C221.867 157.733 225.067 156.267 227.333 155.2C229.6 154.133 232.8 153.067 234.4 152.667C236 152.4 238 151.733 238.667 151.333C239.467 150.8 245.867 149.6 253.067 148.667C266.667 146.667 287.333 147.067 300.933 149.467Z" fill="#FF0707"/>
</svg>
