<svg width="50" height="50" viewBox="0 0 50 50" fill="none" xmlns="http://www.w3.org/2000/svg">
<path d="M0 5C0 2.23858 2.23858 0 5 0H45C47.7614 0 50 2.23858 50 5V45C50 47.7614 47.7614 50 45 50H5C2.23858 50 0 47.7614 0 45V5Z" fill="#D9D9D9"/>
<path d="M0 5C0 2.23858 2.23858 0 5 0H45C47.7614 0 50 2.23858 50 5V45C50 47.7614 47.7614 50 45 50H5C2.23858 50 0 47.7614 0 45V5Z" fill="#006EFF"/>
<path d="M14.0701 5.24595C10.8318 6.16896 8.26303 8.80843 7.28221 12.209C6.90857 13.4882 6.90857 16.1925 7.26664 17.6337C7.62472 19.0749 8.6211 21.1314 9.4151 22.0544L10.0534 22.8155L10.4271 27.1552C10.863 32.256 11.1432 34.2316 11.7504 36.7415C12.8557 41.2918 15.5024 45 17.6508 45C18.4137 45 19.4101 44.4818 19.8149 43.8989C20.7801 42.4739 21.4651 40.0773 21.7765 36.9844C22.0879 33.9077 22.6483 31.916 23.3645 31.2035C23.8782 30.7015 25.077 30.6853 25.5908 31.1549C26.3536 31.8674 26.8985 33.7944 27.2255 37.0006C27.6614 41.227 28.7201 44.0122 30.1679 44.6923C31.538 45.3401 32.6745 44.9514 34.1068 43.3159C35.6792 41.5185 36.9247 38.7009 37.563 35.4137C37.9989 33.2438 38.1701 31.835 38.5905 27.0581L38.9641 22.7993L39.6492 21.9896C40.4587 21.018 41.3461 19.2368 41.7198 17.7956C42.0934 16.3382 42.0934 13.5044 41.7198 12.209C40.7234 8.77605 38.0923 6.10418 34.8541 5.24595C32.9547 4.74397 30.4637 5.01925 27.9105 5.99083C26.8207 6.42805 26.3225 6.5252 24.8902 6.57378C23.3645 6.63856 23.0375 6.60617 21.8543 6.21754C21.1226 5.99083 20.0795 5.65078 19.5191 5.47265C18.149 5.01925 15.2689 4.9059 14.0701 5.24595ZM18.4293 7.20531C18.9897 7.33486 20.0795 7.67492 20.8424 7.96639C22.1813 8.45218 22.3525 8.48457 24.501 8.48457C26.6494 8.48457 26.8207 8.45218 28.2374 7.9502C30.308 7.20531 31.4134 6.94622 32.69 6.94622C37.0025 6.94622 40.521 10.9459 40.1629 15.4476C39.9917 17.7146 39.2444 19.5445 37.8899 21.099L37.1582 21.9572L36.9714 23.9652C36.878 25.0663 36.6911 27.2038 36.5666 28.7259C35.9127 36.1424 34.6828 40.1745 32.3631 42.3929C31.3044 43.3969 30.8374 43.2673 30.1991 41.7452C29.5608 40.2392 29.3272 39.1867 29.0781 36.8225C28.8446 34.4745 28.5955 33.2762 28.035 31.6407C27.0854 28.8879 24.1896 27.9325 22.1813 29.7299C21.0136 30.7663 20.2975 33.0171 19.9083 36.8549C19.7682 38.3446 19.5502 39.6077 19.2855 40.4012C18.3047 43.4617 17.7754 43.7207 16.203 41.9233C14.1324 39.5429 13.0426 35.689 12.4354 28.7259C12.3108 27.2038 12.124 25.0825 12.0306 23.9976L11.8438 22.0058L11.0965 21.1152C9.4618 19.172 8.88577 17.5527 8.88577 14.9618C8.8702 13.472 8.93247 13.0186 9.24384 12.209C10.7384 8.19309 14.3815 6.20134 18.4293 7.20531Z" fill="#D9D9D9"/>
<path d="M14.0701 5.24595C10.8318 6.16896 8.26303 8.80843 7.28221 12.209C6.90857 13.4882 6.90857 16.1925 7.26664 17.6337C7.62472 19.0749 8.6211 21.1314 9.4151 22.0544L10.0534 22.8155L10.4271 27.1552C10.863 32.256 11.1432 34.2316 11.7504 36.7415C12.8557 41.2918 15.5024 45 17.6508 45C18.4137 45 19.4101 44.4818 19.8149 43.8989C20.7801 42.4739 21.4651 40.0773 21.7765 36.9844C22.0879 33.9077 22.6483 31.916 23.3645 31.2035C23.8782 30.7015 25.077 30.6853 25.5908 31.1549C26.3536 31.8674 26.8985 33.7944 27.2255 37.0006C27.6614 41.227 28.7201 44.0122 30.1679 44.6923C31.538 45.3401 32.6745 44.9514 34.1068 43.3159C35.6792 41.5185 36.9247 38.7009 37.563 35.4137C37.9989 33.2438 38.1701 31.835 38.5905 27.0581L38.9641 22.7993L39.6492 21.9896C40.4587 21.018 41.3461 19.2368 41.7198 17.7956C42.0934 16.3382 42.0934 13.5044 41.7198 12.209C40.7234 8.77605 38.0923 6.10418 34.8541 5.24595C32.9547 4.74397 30.4637 5.01925 27.9105 5.99083C26.8207 6.42805 26.3225 6.5252 24.8902 6.57378C23.3645 6.63856 23.0375 6.60617 21.8543 6.21754C21.1226 5.99083 20.0795 5.65078 19.5191 5.47265C18.149 5.01925 15.2689 4.9059 14.0701 5.24595ZM18.4293 7.20531C18.9897 7.33486 20.0795 7.67492 20.8424 7.96639C22.1813 8.45218 22.3525 8.48457 24.501 8.48457C26.6494 8.48457 26.8207 8.45218 28.2374 7.9502C30.308 7.20531 31.4134 6.94622 32.69 6.94622C37.0025 6.94622 40.521 10.9459 40.1629 15.4476C39.9917 17.7146 39.2444 19.5445 37.8899 21.099L37.1582 21.9572L36.9714 23.9652C36.878 25.0663 36.6911 27.2038 36.5666 28.7259C35.9127 36.1424 34.6828 40.1745 32.3631 42.3929C31.3044 43.3969 30.8374 43.2673 30.1991 41.7452C29.5608 40.2392 29.3272 39.1867 29.0781 36.8225C28.8446 34.4745 28.5955 33.2762 28.035 31.6407C27.0854 28.8879 24.1896 27.9325 22.1813 29.7299C21.0136 30.7663 20.2975 33.0171 19.9083 36.8549C19.7682 38.3446 19.5502 39.6077 19.2855 40.4012C18.3047 43.4617 17.7754 43.7207 16.203 41.9233C14.1324 39.5429 13.0426 35.689 12.4354 28.7259C12.3108 27.2038 12.124 25.0825 12.0306 23.9976L11.8438 22.0058L11.0965 21.1152C9.4618 19.172 8.88577 17.5527 8.88577 14.9618C8.8702 13.472 8.93247 13.0186 9.24384 12.209C10.7384 8.19309 14.3815 6.20134 18.4293 7.20531Z" fill="white"/>
<path d="M14.724 10.1364C13.245 10.6707 11.9061 12.4682 11.657 14.2332C11.2678 16.9699 13.5564 20.8076 14.7396 19.4474C15.1133 19.0102 15.0665 18.3948 14.6306 17.9576C14.0857 17.4395 13.6498 16.4031 13.5253 15.3182C13.4319 14.5085 13.463 14.2818 13.8211 13.5045C14.2881 12.5329 14.8642 12.0795 15.9384 11.8204C16.6078 11.6585 17.1839 11.1727 17.1839 10.7679C17.1839 10.6707 17.0749 10.4116 16.9348 10.2173C16.6545 9.78012 15.7671 9.74773 14.724 10.1364Z" fill="#D9D9D9"/>
<path d="M14.724 10.1364C13.245 10.6707 11.9061 12.4682 11.657 14.2332C11.2678 16.9699 13.5564 20.8076 14.7396 19.4474C15.1133 19.0102 15.0665 18.3948 14.6306 17.9576C14.0857 17.4395 13.6498 16.4031 13.5253 15.3182C13.4319 14.5085 13.463 14.2818 13.8211 13.5045C14.2881 12.5329 14.8642 12.0795 15.9384 11.8204C16.6078 11.6585 17.1839 11.1727 17.1839 10.7679C17.1839 10.6707 17.0749 10.4116 16.9348 10.2173C16.6545 9.78012 15.7671 9.74773 14.724 10.1364Z" fill="white"/>
</svg>
