<svg width="48" height="50" viewBox="0 0 48 50" fill="none" xmlns="http://www.w3.org/2000/svg">
<path d="M0 5C0 2.23858 2.23858 0 5 0H42.5248C45.2862 0 47.5248 2.23858 47.5248 5V45C47.5248 47.7614 45.2862 50 42.5248 50H5C2.23857 50 0 47.7614 0 45V5Z" fill="#D9D9D9"/>
<path d="M0 5C0 2.23858 2.23858 0 5 0H42.5248C45.2862 0 47.5248 2.23858 47.5248 5V45C47.5248 47.7614 45.2862 50 42.5248 50H5C2.23857 50 0 47.7614 0 45V5Z" fill="#006EFF"/>
<path d="M17.0623 44.9336C17.4171 44.9336 17.8321 44.8084 18.2078 44.6094C18.5829 44.4106 18.9115 44.1424 19.0994 43.8633V43.8623C19.9661 42.5391 20.6017 40.3615 20.9255 37.5488L20.9861 36.9775C21.1368 35.4374 21.3482 34.1667 21.6091 33.1904C21.8691 32.2177 22.1812 31.5276 22.5398 31.1582V31.1572L22.5408 31.1562C22.8057 30.8888 23.239 30.7564 23.6628 30.748C24.0336 30.7408 24.4125 30.8284 24.6794 31.0186L24.7869 31.1064L24.7878 31.1074C25.17 31.4768 25.4896 32.1514 25.7537 33.125C25.9854 33.9796 26.1768 35.0722 26.3269 36.4072L26.3884 36.9941C26.5989 39.1041 26.9592 40.8509 27.4402 42.1533C27.8923 43.3775 28.4467 44.1964 29.071 44.5645L29.197 44.6328C29.8467 44.9503 30.434 45.0111 31.0271 44.7979C31.5496 44.6099 32.0833 44.2068 32.6707 43.5635L32.9255 43.2725C34.3419 41.5982 35.4866 39.0281 36.1316 36.0107L36.2537 35.4014C36.5693 33.7768 36.7415 32.5795 36.9792 30.0674L37.2458 27.0527L37.6072 22.7939L37.6091 22.7734L37.6228 22.7568L38.2849 21.9473V21.9482C39.0124 21.0454 39.8081 19.4309 40.2009 18.0518L40.2742 17.7793C40.4529 17.0581 40.5437 15.9914 40.5437 14.9414C40.5437 14.0219 40.4744 13.122 40.3376 12.4834L40.2751 12.2266C39.347 8.92034 36.9447 6.32834 33.9714 5.39551L33.6814 5.31055C31.8632 4.81374 29.4696 5.08432 27.0085 6.05273H27.0095C26.4811 6.27192 26.0923 6.40694 25.6609 6.49316C25.3377 6.55774 24.9919 6.59457 24.5466 6.61914L24.0662 6.64062C23.3292 6.67297 22.8762 6.68113 22.4636 6.63184C22.1533 6.59475 21.867 6.52568 21.5017 6.41113L21.1072 6.28125L18.8484 5.53613H18.8474C18.1939 5.31251 17.174 5.17033 16.1697 5.12793C15.2901 5.0908 14.4321 5.13082 13.8503 5.25293L13.6189 5.30957C10.6086 6.19683 8.19717 8.68403 7.19214 11.9121L7.09937 12.2266V12.2275L7.03687 12.4795C6.90015 13.1052 6.83052 13.973 6.82886 14.8604C6.82722 15.747 6.89384 16.647 7.02515 17.3359L7.08472 17.6182C7.25649 18.3331 7.58281 19.2029 7.96167 20.0098C8.29339 20.7163 8.66353 21.3707 9.00464 21.8281L9.14917 22.0117L9.15015 22.0127L9.76733 22.7734L9.78003 22.7891L9.78198 22.8096L10.1433 27.1494C10.5121 31.6118 10.7654 33.6794 11.2156 35.8047L11.4216 36.7266C11.9545 38.9946 12.8587 41.0511 13.8865 42.5391C14.4004 43.2831 14.9434 43.8836 15.4851 44.2969C16.0271 44.7104 16.5628 44.9335 17.0623 44.9336ZM17.3982 43.043C17.1503 43.1694 16.8875 43.1172 16.6003 42.9297C16.3863 42.7899 16.1511 42.5709 15.8865 42.2803L15.6111 41.9668V41.9658C13.7201 39.7176 12.6751 36.1726 12.0681 30.001L11.9529 28.7314C11.8325 27.2099 11.6517 25.0893 11.5613 24.0039L11.3816 22.0322L10.6726 21.1572C9.87891 20.1816 9.33986 19.2844 8.99976 18.3037C8.65981 17.3233 8.51936 16.2626 8.51929 14.9629C8.50608 13.6564 8.55056 13.1383 8.76636 12.4795L8.86987 12.1855C9.59725 10.1651 10.8487 8.64977 12.4148 7.7666C13.9815 6.8832 15.859 6.63471 17.8318 7.14062L17.8308 7.1416C18.3767 7.27208 19.4338 7.61201 20.1736 7.9043L20.1726 7.90527C20.8201 8.14821 21.1796 8.27417 21.6345 8.3418C22.0916 8.40972 22.6471 8.41797 23.6873 8.41797C24.7275 8.41797 25.2833 8.4098 25.7498 8.33984C26.2141 8.27016 26.5922 8.13962 27.2771 7.88867V7.8877C29.2817 7.14202 30.3598 6.87993 31.6062 6.87988C35.6893 6.87988 39.0338 10.6696 38.9216 15.0293L38.9001 15.4531C38.7439 17.59 38.0943 19.3434 36.9265 20.8447L36.6863 21.1416L35.9919 21.9854L35.8132 23.9707L35.4216 28.7314C34.8091 35.9151 33.6741 39.9465 31.5466 42.2256L31.3376 42.4404H31.3367C31.0795 42.6926 30.8544 42.8785 30.6501 42.9883C30.4448 43.0986 30.2538 43.1356 30.072 43.0801C29.8923 43.0252 29.7346 42.884 29.5857 42.668C29.4737 42.5056 29.3642 42.2964 29.2507 42.041L29.1355 41.7705C28.5925 40.4457 28.351 39.4688 28.1375 37.6592L28.0476 36.8291C27.8503 34.7779 27.641 33.6079 27.2302 32.2559L27.0417 31.6621C26.5882 30.3028 25.6718 29.3927 24.6365 29.042C23.6673 28.7138 22.5874 28.8731 21.6707 29.6211L21.489 29.7793L21.2869 29.9834C20.8256 30.4938 20.4405 31.2409 20.1257 32.2617C19.8112 33.2818 19.5684 34.5709 19.3865 36.1611L19.3123 36.8613C19.1936 38.1658 19.0168 39.3001 18.8015 40.0996L18.7068 40.4219C18.4696 41.1871 18.2588 41.7808 18.0515 42.2119C17.8456 42.64 17.6372 42.9208 17.3982 43.043Z" fill="#D9D9D9"/>
<path d="M17.0623 44.9336C17.4171 44.9336 17.8321 44.8084 18.2078 44.6094C18.5829 44.4106 18.9115 44.1424 19.0994 43.8633V43.8623C19.9661 42.5391 20.6017 40.3615 20.9255 37.5488L20.9861 36.9775C21.1368 35.4374 21.3482 34.1667 21.6091 33.1904C21.8691 32.2177 22.1812 31.5276 22.5398 31.1582V31.1572L22.5408 31.1562C22.8057 30.8888 23.239 30.7564 23.6628 30.748C24.0336 30.7408 24.4125 30.8284 24.6794 31.0186L24.7869 31.1064L24.7878 31.1074C25.17 31.4768 25.4896 32.1514 25.7537 33.125C25.9854 33.9796 26.1768 35.0722 26.3269 36.4072L26.3884 36.9941C26.5989 39.1041 26.9592 40.8509 27.4402 42.1533C27.8923 43.3775 28.4467 44.1964 29.071 44.5645L29.197 44.6328C29.8467 44.9503 30.434 45.0111 31.0271 44.7979C31.5496 44.6099 32.0833 44.2068 32.6707 43.5635L32.9255 43.2725C34.3419 41.5982 35.4866 39.0281 36.1316 36.0107L36.2537 35.4014C36.5693 33.7768 36.7415 32.5795 36.9792 30.0674L37.2458 27.0527L37.6072 22.7939L37.6091 22.7734L37.6228 22.7568L38.2849 21.9473V21.9482C39.0124 21.0454 39.8081 19.4309 40.2009 18.0518L40.2742 17.7793C40.4529 17.0581 40.5437 15.9914 40.5437 14.9414C40.5437 14.0219 40.4744 13.122 40.3376 12.4834L40.2751 12.2266C39.347 8.92034 36.9447 6.32834 33.9714 5.39551L33.6814 5.31055C31.8632 4.81374 29.4696 5.08432 27.0085 6.05273H27.0095C26.4811 6.27192 26.0923 6.40694 25.6609 6.49316C25.3377 6.55774 24.9919 6.59457 24.5466 6.61914L24.0662 6.64062C23.3292 6.67297 22.8762 6.68113 22.4636 6.63184C22.1533 6.59475 21.867 6.52568 21.5017 6.41113L21.1072 6.28125L18.8484 5.53613H18.8474C18.1939 5.31251 17.174 5.17033 16.1697 5.12793C15.2901 5.0908 14.4321 5.13082 13.8503 5.25293L13.6189 5.30957C10.6086 6.19683 8.19717 8.68403 7.19214 11.9121L7.09937 12.2266V12.2275L7.03687 12.4795C6.90015 13.1052 6.83052 13.973 6.82886 14.8604C6.82722 15.747 6.89384 16.647 7.02515 17.3359L7.08472 17.6182C7.25649 18.3331 7.58281 19.2029 7.96167 20.0098C8.29339 20.7163 8.66353 21.3707 9.00464 21.8281L9.14917 22.0117L9.15015 22.0127L9.76733 22.7734L9.78003 22.7891L9.78198 22.8096L10.1433 27.1494C10.5121 31.6118 10.7654 33.6794 11.2156 35.8047L11.4216 36.7266C11.9545 38.9946 12.8587 41.0511 13.8865 42.5391C14.4004 43.2831 14.9434 43.8836 15.4851 44.2969C16.0271 44.7104 16.5628 44.9335 17.0623 44.9336ZM17.3982 43.043C17.1503 43.1694 16.8875 43.1172 16.6003 42.9297C16.3863 42.7899 16.1511 42.5709 15.8865 42.2803L15.6111 41.9668V41.9658C13.7201 39.7176 12.6751 36.1726 12.0681 30.001L11.9529 28.7314C11.8325 27.2099 11.6517 25.0893 11.5613 24.0039L11.3816 22.0322L10.6726 21.1572C9.87891 20.1816 9.33986 19.2844 8.99976 18.3037C8.65981 17.3233 8.51936 16.2626 8.51929 14.9629C8.50608 13.6564 8.55056 13.1383 8.76636 12.4795L8.86987 12.1855C9.59725 10.1651 10.8487 8.64977 12.4148 7.7666C13.9815 6.8832 15.859 6.63471 17.8318 7.14062L17.8308 7.1416C18.3767 7.27208 19.4338 7.61201 20.1736 7.9043L20.1726 7.90527C20.8201 8.14821 21.1796 8.27417 21.6345 8.3418C22.0916 8.40972 22.6471 8.41797 23.6873 8.41797C24.7275 8.41797 25.2833 8.4098 25.7498 8.33984C26.2141 8.27016 26.5922 8.13962 27.2771 7.88867V7.8877C29.2817 7.14202 30.3598 6.87993 31.6062 6.87988C35.6893 6.87988 39.0338 10.6696 38.9216 15.0293L38.9001 15.4531C38.7439 17.59 38.0943 19.3434 36.9265 20.8447L36.6863 21.1416L35.9919 21.9854L35.8132 23.9707L35.4216 28.7314C34.8091 35.9151 33.6741 39.9465 31.5466 42.2256L31.3376 42.4404H31.3367C31.0795 42.6926 30.8544 42.8785 30.6501 42.9883C30.4448 43.0986 30.2538 43.1356 30.072 43.0801C29.8923 43.0252 29.7346 42.884 29.5857 42.668C29.4737 42.5056 29.3642 42.2964 29.2507 42.041L29.1355 41.7705C28.5925 40.4457 28.351 39.4688 28.1375 37.6592L28.0476 36.8291C27.8503 34.7779 27.641 33.6079 27.2302 32.2559L27.0417 31.6621C26.5882 30.3028 25.6718 29.3927 24.6365 29.042C23.6673 28.7138 22.5874 28.8731 21.6707 29.6211L21.489 29.7793L21.2869 29.9834C20.8256 30.4938 20.4405 31.2409 20.1257 32.2617C19.8112 33.2818 19.5684 34.5709 19.3865 36.1611L19.3123 36.8613C19.1936 38.1658 19.0168 39.3001 18.8015 40.0996L18.7068 40.4219C18.4696 41.1871 18.2588 41.7808 18.0515 42.2119C17.8456 42.64 17.6372 42.9208 17.3982 43.043Z" fill="white"/>
<path d="M17.0623 44.9336C17.4171 44.9336 17.8321 44.8084 18.2078 44.6094C18.5829 44.4106 18.9115 44.1424 19.0994 43.8633V43.8623C19.9661 42.5391 20.6017 40.3615 20.9255 37.5488L20.9861 36.9775C21.1368 35.4374 21.3482 34.1667 21.6091 33.1904C21.8691 32.2177 22.1812 31.5276 22.5398 31.1582V31.1572L22.5408 31.1562C22.8057 30.8888 23.239 30.7564 23.6628 30.748C24.0336 30.7408 24.4125 30.8284 24.6794 31.0186L24.7869 31.1064L24.7878 31.1074C25.17 31.4768 25.4896 32.1514 25.7537 33.125C25.9854 33.9796 26.1768 35.0722 26.3269 36.4072L26.3884 36.9941C26.5989 39.1041 26.9592 40.8509 27.4402 42.1533C27.8923 43.3775 28.4467 44.1964 29.071 44.5645L29.197 44.6328C29.8467 44.9503 30.434 45.0111 31.0271 44.7979C31.5496 44.6099 32.0833 44.2068 32.6707 43.5635L32.9255 43.2725C34.3419 41.5982 35.4866 39.0281 36.1316 36.0107L36.2537 35.4014C36.5693 33.7768 36.7415 32.5795 36.9792 30.0674L37.2458 27.0527L37.6072 22.7939L37.6091 22.7734L37.6228 22.7568L38.2849 21.9473V21.9482C39.0124 21.0454 39.8081 19.4309 40.2009 18.0518L40.2742 17.7793C40.4529 17.0581 40.5437 15.9914 40.5437 14.9414C40.5437 14.0219 40.4744 13.122 40.3376 12.4834L40.2751 12.2266C39.347 8.92034 36.9447 6.32834 33.9714 5.39551L33.6814 5.31055C31.8632 4.81374 29.4696 5.08432 27.0085 6.05273H27.0095C26.4811 6.27192 26.0923 6.40694 25.6609 6.49316C25.3377 6.55774 24.9919 6.59457 24.5466 6.61914L24.0662 6.64062C23.3292 6.67297 22.8762 6.68113 22.4636 6.63184C22.1533 6.59475 21.867 6.52568 21.5017 6.41113L21.1072 6.28125L18.8484 5.53613H18.8474C18.1939 5.31251 17.174 5.17033 16.1697 5.12793C15.2901 5.0908 14.4321 5.13082 13.8503 5.25293L13.6189 5.30957C10.6086 6.19683 8.19717 8.68403 7.19214 11.9121L7.09937 12.2266V12.2275L7.03687 12.4795C6.90015 13.1052 6.83052 13.973 6.82886 14.8604C6.82722 15.747 6.89384 16.647 7.02515 17.3359L7.08472 17.6182C7.25649 18.3331 7.58281 19.2029 7.96167 20.0098C8.29339 20.7163 8.66353 21.3707 9.00464 21.8281L9.14917 22.0117L9.15015 22.0127L9.76733 22.7734L9.78003 22.7891L9.78198 22.8096L10.1433 27.1494C10.5121 31.6118 10.7654 33.6794 11.2156 35.8047L11.4216 36.7266C11.9545 38.9946 12.8587 41.0511 13.8865 42.5391C14.4004 43.2831 14.9434 43.8836 15.4851 44.2969C16.0271 44.7104 16.5628 44.9335 17.0623 44.9336ZM17.3982 43.043C17.1503 43.1694 16.8875 43.1172 16.6003 42.9297C16.3863 42.7899 16.1511 42.5709 15.8865 42.2803L15.6111 41.9668V41.9658C13.7201 39.7176 12.6751 36.1726 12.0681 30.001L11.9529 28.7314C11.8325 27.2099 11.6517 25.0893 11.5613 24.0039L11.3816 22.0322L10.6726 21.1572C9.87891 20.1816 9.33986 19.2844 8.99976 18.3037C8.65981 17.3233 8.51936 16.2626 8.51929 14.9629C8.50608 13.6564 8.55056 13.1383 8.76636 12.4795L8.86987 12.1855C9.59725 10.1651 10.8487 8.64977 12.4148 7.7666C13.9815 6.8832 15.859 6.63471 17.8318 7.14062L17.8308 7.1416C18.3767 7.27208 19.4338 7.61201 20.1736 7.9043L20.1726 7.90527C20.8201 8.14821 21.1796 8.27417 21.6345 8.3418C22.0916 8.40972 22.6471 8.41797 23.6873 8.41797C24.7275 8.41797 25.2833 8.4098 25.7498 8.33984C26.2141 8.27016 26.5922 8.13962 27.2771 7.88867V7.8877C29.2817 7.14202 30.3598 6.87993 31.6062 6.87988C35.6893 6.87988 39.0338 10.6696 38.9216 15.0293L38.9001 15.4531C38.7439 17.59 38.0943 19.3434 36.9265 20.8447L36.6863 21.1416L35.9919 21.9854L35.8132 23.9707L35.4216 28.7314C34.8091 35.9151 33.6741 39.9465 31.5466 42.2256L31.3376 42.4404H31.3367C31.0795 42.6926 30.8544 42.8785 30.6501 42.9883C30.4448 43.0986 30.2538 43.1356 30.072 43.0801C29.8923 43.0252 29.7346 42.884 29.5857 42.668C29.4737 42.5056 29.3642 42.2964 29.2507 42.041L29.1355 41.7705C28.5925 40.4457 28.351 39.4688 28.1375 37.6592L28.0476 36.8291C27.8503 34.7779 27.641 33.6079 27.2302 32.2559L27.0417 31.6621C26.5882 30.3028 25.6718 29.3927 24.6365 29.042C23.6673 28.7138 22.5874 28.8731 21.6707 29.6211L21.489 29.7793L21.2869 29.9834C20.8256 30.4938 20.4405 31.2409 20.1257 32.2617C19.8112 33.2818 19.5684 34.5709 19.3865 36.1611L19.3123 36.8613C19.1936 38.1658 19.0168 39.3001 18.8015 40.0996L18.7068 40.4219C18.4696 41.1871 18.2588 41.7808 18.0515 42.2119C17.8456 42.64 17.6372 42.9208 17.3982 43.043Z" stroke="#D9D9D9" stroke-width="0.133333"/>
<path d="M17.0623 44.9336C17.4171 44.9336 17.8321 44.8084 18.2078 44.6094C18.5829 44.4106 18.9115 44.1424 19.0994 43.8633V43.8623C19.9661 42.5391 20.6017 40.3615 20.9255 37.5488L20.9861 36.9775C21.1368 35.4374 21.3482 34.1667 21.6091 33.1904C21.8691 32.2177 22.1812 31.5276 22.5398 31.1582V31.1572L22.5408 31.1562C22.8057 30.8888 23.239 30.7564 23.6628 30.748C24.0336 30.7408 24.4125 30.8284 24.6794 31.0186L24.7869 31.1064L24.7878 31.1074C25.17 31.4768 25.4896 32.1514 25.7537 33.125C25.9854 33.9796 26.1768 35.0722 26.3269 36.4072L26.3884 36.9941C26.5989 39.1041 26.9592 40.8509 27.4402 42.1533C27.8923 43.3775 28.4467 44.1964 29.071 44.5645L29.197 44.6328C29.8467 44.9503 30.434 45.0111 31.0271 44.7979C31.5496 44.6099 32.0833 44.2068 32.6707 43.5635L32.9255 43.2725C34.3419 41.5982 35.4866 39.0281 36.1316 36.0107L36.2537 35.4014C36.5693 33.7768 36.7415 32.5795 36.9792 30.0674L37.2458 27.0527L37.6072 22.7939L37.6091 22.7734L37.6228 22.7568L38.2849 21.9473V21.9482C39.0124 21.0454 39.8081 19.4309 40.2009 18.0518L40.2742 17.7793C40.4529 17.0581 40.5437 15.9914 40.5437 14.9414C40.5437 14.0219 40.4744 13.122 40.3376 12.4834L40.2751 12.2266C39.347 8.92034 36.9447 6.32834 33.9714 5.39551L33.6814 5.31055C31.8632 4.81374 29.4696 5.08432 27.0085 6.05273H27.0095C26.4811 6.27192 26.0923 6.40694 25.6609 6.49316C25.3377 6.55774 24.9919 6.59457 24.5466 6.61914L24.0662 6.64062C23.3292 6.67297 22.8762 6.68113 22.4636 6.63184C22.1533 6.59475 21.867 6.52568 21.5017 6.41113L21.1072 6.28125L18.8484 5.53613H18.8474C18.1939 5.31251 17.174 5.17033 16.1697 5.12793C15.2901 5.0908 14.4321 5.13082 13.8503 5.25293L13.6189 5.30957C10.6086 6.19683 8.19717 8.68403 7.19214 11.9121L7.09937 12.2266V12.2275L7.03687 12.4795C6.90015 13.1052 6.83052 13.973 6.82886 14.8604C6.82722 15.747 6.89384 16.647 7.02515 17.3359L7.08472 17.6182C7.25649 18.3331 7.58281 19.2029 7.96167 20.0098C8.29339 20.7163 8.66353 21.3707 9.00464 21.8281L9.14917 22.0117L9.15015 22.0127L9.76733 22.7734L9.78003 22.7891L9.78198 22.8096L10.1433 27.1494C10.5121 31.6118 10.7654 33.6794 11.2156 35.8047L11.4216 36.7266C11.9545 38.9946 12.8587 41.0511 13.8865 42.5391C14.4004 43.2831 14.9434 43.8836 15.4851 44.2969C16.0271 44.7104 16.5628 44.9335 17.0623 44.9336ZM17.3982 43.043C17.1503 43.1694 16.8875 43.1172 16.6003 42.9297C16.3863 42.7899 16.1511 42.5709 15.8865 42.2803L15.6111 41.9668V41.9658C13.7201 39.7176 12.6751 36.1726 12.0681 30.001L11.9529 28.7314C11.8325 27.2099 11.6517 25.0893 11.5613 24.0039L11.3816 22.0322L10.6726 21.1572C9.87891 20.1816 9.33986 19.2844 8.99976 18.3037C8.65981 17.3233 8.51936 16.2626 8.51929 14.9629C8.50608 13.6564 8.55056 13.1383 8.76636 12.4795L8.86987 12.1855C9.59725 10.1651 10.8487 8.64977 12.4148 7.7666C13.9815 6.8832 15.859 6.63471 17.8318 7.14062L17.8308 7.1416C18.3767 7.27208 19.4338 7.61201 20.1736 7.9043L20.1726 7.90527C20.8201 8.14821 21.1796 8.27417 21.6345 8.3418C22.0916 8.40972 22.6471 8.41797 23.6873 8.41797C24.7275 8.41797 25.2833 8.4098 25.7498 8.33984C26.2141 8.27016 26.5922 8.13962 27.2771 7.88867V7.8877C29.2817 7.14202 30.3598 6.87993 31.6062 6.87988C35.6893 6.87988 39.0338 10.6696 38.9216 15.0293L38.9001 15.4531C38.7439 17.59 38.0943 19.3434 36.9265 20.8447L36.6863 21.1416L35.9919 21.9854L35.8132 23.9707L35.4216 28.7314C34.8091 35.9151 33.6741 39.9465 31.5466 42.2256L31.3376 42.4404H31.3367C31.0795 42.6926 30.8544 42.8785 30.6501 42.9883C30.4448 43.0986 30.2538 43.1356 30.072 43.0801C29.8923 43.0252 29.7346 42.884 29.5857 42.668C29.4737 42.5056 29.3642 42.2964 29.2507 42.041L29.1355 41.7705C28.5925 40.4457 28.351 39.4688 28.1375 37.6592L28.0476 36.8291C27.8503 34.7779 27.641 33.6079 27.2302 32.2559L27.0417 31.6621C26.5882 30.3028 25.6718 29.3927 24.6365 29.042C23.6673 28.7138 22.5874 28.8731 21.6707 29.6211L21.489 29.7793L21.2869 29.9834C20.8256 30.4938 20.4405 31.2409 20.1257 32.2617C19.8112 33.2818 19.5684 34.5709 19.3865 36.1611L19.3123 36.8613C19.1936 38.1658 19.0168 39.3001 18.8015 40.0996L18.7068 40.4219C18.4696 41.1871 18.2588 41.7808 18.0515 42.2119C17.8456 42.64 17.6372 42.9208 17.3982 43.043Z" stroke="white" stroke-width="0.133333"/>
<path d="M13.7678 19.66C13.9172 19.6424 14.0624 19.5637 14.1965 19.4042V19.4052C14.5335 18.9974 14.4949 18.4204 14.095 18.0048C13.6209 17.5383 13.2367 16.6735 13.0667 15.7323L13.0071 15.3251C12.9619 14.9201 12.9456 14.653 12.9866 14.3885C13.0173 14.1904 13.0796 13.9958 13.1819 13.7469L13.2981 13.4774L13.2991 13.4764C13.5277 12.9847 13.7848 12.619 14.1204 12.3436C14.4139 12.1028 14.7638 11.9338 15.1985 11.8075L15.3909 11.7557C15.7044 11.6773 15.9961 11.5201 16.2083 11.3348C16.4228 11.1474 16.5442 10.9412 16.5442 10.7675C16.5441 10.7527 16.54 10.7253 16.5286 10.6864C16.5175 10.6487 16.5014 10.6039 16.4807 10.5555C16.4598 10.5066 16.4344 10.4544 16.4065 10.4032L16.3157 10.2557L16.3137 10.2528C16.1954 10.0619 15.9408 9.94729 15.5754 9.93347C15.2579 9.92148 14.8682 9.9867 14.4417 10.1317L14.2561 10.1981V10.1991L13.9954 10.3114C13.391 10.606 12.8191 11.1242 12.3577 11.7626C11.8965 12.4006 11.5482 13.1543 11.3889 13.9159L11.3323 14.2421C11.1466 15.5921 11.6004 17.2213 12.2444 18.3436C12.5667 18.9053 12.9319 19.3314 13.2795 19.5341C13.4525 19.6348 13.6171 19.6777 13.7678 19.66Z" fill="#D9D9D9"/>
<path d="M13.7678 19.66C13.9172 19.6424 14.0624 19.5637 14.1965 19.4042V19.4052C14.5335 18.9974 14.4949 18.4204 14.095 18.0048C13.6209 17.5383 13.2367 16.6735 13.0667 15.7323L13.0071 15.3251C12.9619 14.9201 12.9456 14.653 12.9866 14.3885C13.0173 14.1904 13.0796 13.9958 13.1819 13.7469L13.2981 13.4774L13.2991 13.4764C13.5277 12.9847 13.7848 12.619 14.1204 12.3436C14.4139 12.1028 14.7638 11.9338 15.1985 11.8075L15.3909 11.7557C15.7044 11.6773 15.9961 11.5201 16.2083 11.3348C16.4228 11.1474 16.5442 10.9412 16.5442 10.7675C16.5441 10.7527 16.54 10.7253 16.5286 10.6864C16.5175 10.6487 16.5014 10.6039 16.4807 10.5555C16.4598 10.5066 16.4344 10.4544 16.4065 10.4032L16.3157 10.2557L16.3137 10.2528C16.1954 10.0619 15.9408 9.94729 15.5754 9.93347C15.2579 9.92148 14.8682 9.9867 14.4417 10.1317L14.2561 10.1981V10.1991L13.9954 10.3114C13.391 10.606 12.8191 11.1242 12.3577 11.7626C11.8965 12.4006 11.5482 13.1543 11.3889 13.9159L11.3323 14.2421C11.1466 15.5921 11.6004 17.2213 12.2444 18.3436C12.5667 18.9053 12.9319 19.3314 13.2795 19.5341C13.4525 19.6348 13.6171 19.6777 13.7678 19.66Z" fill="white"/>
<path d="M13.7678 19.66C13.9172 19.6424 14.0624 19.5637 14.1965 19.4042V19.4052C14.5335 18.9974 14.4949 18.4204 14.095 18.0048C13.6209 17.5383 13.2367 16.6735 13.0667 15.7323L13.0071 15.3251C12.9619 14.9201 12.9456 14.653 12.9866 14.3885C13.0173 14.1904 13.0796 13.9958 13.1819 13.7469L13.2981 13.4774L13.2991 13.4764C13.5277 12.9847 13.7848 12.619 14.1204 12.3436C14.4139 12.1028 14.7638 11.9338 15.1985 11.8075L15.3909 11.7557C15.7044 11.6773 15.9961 11.5201 16.2083 11.3348C16.4228 11.1474 16.5442 10.9412 16.5442 10.7675C16.5441 10.7527 16.54 10.7253 16.5286 10.6864C16.5175 10.6487 16.5014 10.6039 16.4807 10.5555C16.4598 10.5066 16.4344 10.4544 16.4065 10.4032L16.3157 10.2557L16.3137 10.2528C16.1954 10.0619 15.9408 9.94729 15.5754 9.93347C15.2579 9.92148 14.8682 9.9867 14.4417 10.1317L14.2561 10.1981V10.1991L13.9954 10.3114C13.391 10.606 12.8191 11.1242 12.3577 11.7626C11.8965 12.4006 11.5482 13.1543 11.3889 13.9159L11.3323 14.2421C11.1466 15.5921 11.6004 17.2213 12.2444 18.3436C12.5667 18.9053 12.9319 19.3314 13.2795 19.5341C13.4525 19.6348 13.6171 19.6777 13.7678 19.66Z" stroke="#D9D9D9" stroke-width="0.133333"/>
<path d="M13.7678 19.66C13.9172 19.6424 14.0624 19.5637 14.1965 19.4042V19.4052C14.5335 18.9974 14.4949 18.4204 14.095 18.0048C13.6209 17.5383 13.2367 16.6735 13.0667 15.7323L13.0071 15.3251C12.9619 14.9201 12.9456 14.653 12.9866 14.3885C13.0173 14.1904 13.0796 13.9958 13.1819 13.7469L13.2981 13.4774L13.2991 13.4764C13.5277 12.9847 13.7848 12.619 14.1204 12.3436C14.4139 12.1028 14.7638 11.9338 15.1985 11.8075L15.3909 11.7557C15.7044 11.6773 15.9961 11.5201 16.2083 11.3348C16.4228 11.1474 16.5442 10.9412 16.5442 10.7675C16.5441 10.7527 16.54 10.7253 16.5286 10.6864C16.5175 10.6487 16.5014 10.6039 16.4807 10.5555C16.4598 10.5066 16.4344 10.4544 16.4065 10.4032L16.3157 10.2557L16.3137 10.2528C16.1954 10.0619 15.9408 9.94729 15.5754 9.93347C15.2579 9.92148 14.8682 9.9867 14.4417 10.1317L14.2561 10.1981V10.1991L13.9954 10.3114C13.391 10.606 12.8191 11.1242 12.3577 11.7626C11.8965 12.4006 11.5482 13.1543 11.3889 13.9159L11.3323 14.2421C11.1466 15.5921 11.6004 17.2213 12.2444 18.3436C12.5667 18.9053 12.9319 19.3314 13.2795 19.5341C13.4525 19.6348 13.6171 19.6777 13.7678 19.66Z" stroke="white" stroke-width="0.133333"/>
<rect x="17.8811" y="20.4" width="12.2373" height="5.2" fill="#D9D9D9"/>
<rect x="17.8811" y="20.4" width="12.2373" height="5.2" fill="white"/>
<rect x="17.8811" y="20.4" width="12.2373" height="5.2" stroke="#D9D9D9" stroke-width="2"/>
<rect x="17.8811" y="20.4" width="12.2373" height="5.2" stroke="white" stroke-width="2"/>
<line x1="44" y1="23.1" x2="31.1186" y2="23.1" stroke="#D9D9D9"/>
<line x1="44" y1="23.1" x2="31.1186" y2="23.1" stroke="white"/>
<line x1="16.8811" y1="23.1" x2="3.99975" y2="23.1" stroke="#D9D9D9"/>
<line x1="16.8811" y1="23.1" x2="3.99975" y2="23.1" stroke="white"/>
</svg>
