<svg width="40" height="50" viewBox="0 0 40 50" fill="none" xmlns="http://www.w3.org/2000/svg">
<path d="M17.8229 0.156425C13.6708 0.918591 10.6901 3.26371 9.48393 6.72276C9.26356 7.34813 9.22877 7.74876 9.18238 9.69325C9.13599 11.3251 9.08959 11.9797 8.97361 12.0872C8.25454 12.7908 8.05737 14.061 8.53289 14.9405C9.02001 15.8296 10.1798 16.6211 11.328 16.8263C11.6064 16.8752 11.7107 16.9534 11.7571 17.1488C12.0819 18.5852 13.0445 20.0704 14.2507 21.0085L14.9466 21.5557V22.5328V23.5099L14.3435 23.6956C10.5045 24.9268 4.54318 26.9201 4.02127 27.1546C2.33956 27.907 1.04059 29.2066 0.367904 30.7993L0.0431603 31.581L0.00836632 39.9355C-0.0148297 45.7299 0.00836632 48.3975 0.10115 48.6516C0.263522 49.1401 0.750638 49.5994 1.31894 49.8144C1.75966 49.9805 2.26997 50 10.0174 49.9902C16.5935 49.9902 18.2868 49.9707 18.4492 49.8632C18.9015 49.5701 18.9131 48.9643 18.4492 48.6711C18.2984 48.5636 17.2082 48.5441 13.3577 48.5343H8.4633L8.42851 45.1241C8.39371 41.2938 8.44011 41.5283 7.47747 40.8736L7.03675 40.5707L4.38081 40.5414L1.72487 40.512V36.4179C1.72487 33.8187 1.77126 32.138 1.85245 31.8058C2.1424 30.6528 3.16302 29.3825 4.38081 28.6692C4.67076 28.5031 6.60762 27.8093 8.68366 27.1253L12.453 25.8844L12.6618 26.1873C13.6128 27.4966 15.4801 28.5128 17.7881 28.9526C19.0175 29.1871 20.9659 29.1871 22.1953 28.9526C24.5033 28.5128 26.3706 27.4966 27.3216 26.1873L27.5304 25.8844L31.1838 27.0765C33.1902 27.7409 35.0111 28.3467 35.2083 28.4347C35.8578 28.7278 37.0871 29.7733 37.5047 30.3987C37.9918 31.1413 38.2585 32.0403 38.2585 33.0077C38.2585 33.6135 38.3049 33.7991 38.5021 34.0141C38.8152 34.3561 39.3951 34.3659 39.7663 34.0239C40.0214 33.7991 40.033 33.7405 39.9634 32.6363C39.8823 30.9655 39.3835 29.8515 38.2469 28.7278C37.6091 28.1024 36.7276 27.4966 35.9273 27.1351C35.417 26.9103 29.2701 24.8486 25.6515 23.6956L25.0368 23.5099V22.4448C25.0368 21.3993 25.0368 21.3798 25.3616 21.1746C26.3822 20.5101 27.658 18.7122 27.9363 17.5396L28.0871 16.8947L28.6206 16.7775C29.676 16.5527 30.7314 15.859 31.2186 15.0675C31.4969 14.5985 31.6129 13.5627 31.4273 13.0057C31.3577 12.781 31.1722 12.4488 31.0214 12.2631C30.7662 11.9407 30.7546 11.8136 30.6851 9.87891C30.6155 7.78784 30.4763 6.98659 30.024 5.97037C28.7714 3.14645 25.9763 1.00653 22.5433 0.254139C21.1863 -0.0390015 19.1335 -0.0878563 17.8229 0.156425ZM22.1953 1.68076C22.5781 1.7687 23.3899 2.04229 23.993 2.29635C24.9209 2.67743 25.2688 2.8924 26.1502 3.63502C28.2031 5.34501 28.9802 7.07453 28.9802 9.90822C28.9802 10.7388 28.957 10.817 28.7598 10.817C28.3655 10.817 28.1683 10.6997 28.1683 10.475C28.1683 10.1623 27.6928 9.65417 26.243 8.40343C24.7469 7.11362 24.4801 7.0159 23.5523 7.4263C19.4698 9.234 17.9853 9.61508 14.6218 9.7128C12.9401 9.76165 12.6966 9.79096 12.3602 9.97662C12.1631 10.0939 11.9311 10.2893 11.8615 10.4163C11.6759 10.7095 11.5832 10.7779 11.212 10.856L10.8873 10.9147V9.59554C10.8873 8.11029 11.0729 7.17225 11.56 6.14626C12.743 3.71319 15.2713 2.05207 18.6579 1.4951C19.203 1.40716 21.4994 1.52441 22.1953 1.68076ZM25.3732 9.74211L26.4402 10.7192L26.4054 13.9145C26.359 17.0804 26.359 17.1292 26.0691 17.7741C25.2804 19.5037 23.7147 20.7153 21.6154 21.2234C20.56 21.4873 18.6231 21.3895 17.5561 21.028C15.9904 20.5003 14.761 19.5721 14.0767 18.3897C13.4968 17.3931 13.4388 17.0413 13.4388 14.0122V11.2078H14.5175C17.2894 11.198 20.2585 10.5434 22.8912 9.36103C23.5987 9.03857 24.2018 8.77475 24.2366 8.77475C24.2714 8.76497 24.7933 9.20469 25.3732 9.74211ZM11.6991 13.7972C11.6991 15.2043 11.6875 15.3118 11.4904 15.3118C11.1424 15.3118 10.3654 14.7841 10.1566 14.403C9.86666 13.9047 9.91305 13.5432 10.3074 13.0839C10.5973 12.7419 11.3164 12.3022 11.618 12.2827C11.6643 12.2827 11.6991 12.9666 11.6991 13.7972ZM28.8758 12.5074C30.2211 13.2696 30.0704 14.6082 28.551 15.2531L28.1683 15.4193V13.8461C28.1683 12.1165 28.1683 12.1068 28.8758 12.5074ZM18.1128 22.6989C19.6322 22.9627 21.3139 22.865 23.042 22.396C23.2855 22.3276 23.2971 22.3471 23.2971 23.0116C23.2971 23.676 23.2855 23.7053 22.868 24.0083C22.636 24.1841 22.1489 24.448 21.7894 24.5848C21.2327 24.8095 21.0007 24.8388 19.9917 24.8388C18.9827 24.8388 18.7507 24.8095 18.194 24.5848C17.8345 24.448 17.3474 24.1841 17.1154 24.0083C16.6979 23.7053 16.6863 23.676 16.6863 23.0214V22.3471L16.9994 22.4546C17.1734 22.5132 17.6721 22.6207 18.1128 22.6989ZM16.2572 25.2883C17.3358 26.0114 18.5188 26.3534 19.9917 26.3534C21.4762 26.3534 22.8448 25.9528 23.8538 25.2199L24.3526 24.8681L25.1064 25.0929C25.9183 25.3372 25.9415 25.3762 25.466 25.855C24.8397 26.5097 23.4479 27.1839 22.1373 27.4869C21.1051 27.7214 18.9827 27.7214 17.9621 27.4966C17.011 27.2817 15.7236 26.7638 15.1205 26.3631C14.6682 26.0505 14.0535 25.4056 14.1463 25.3372C14.2159 25.2883 15.4453 24.8974 15.5613 24.8974C15.6077 24.8877 15.9208 25.0733 16.2572 25.2883ZM6.57283 42.1048C6.67721 42.1927 6.71201 43.0526 6.71201 45.3782V48.5343H4.35761C2.6759 48.5343 1.96843 48.505 1.86405 48.4171C1.75966 48.3291 1.72487 47.4692 1.72487 45.1437V41.9875H4.07926C5.76097 41.9875 6.46845 42.0168 6.57283 42.1048Z" fill="#D9D9D9"/>
<path d="M17.8229 0.156425C13.6708 0.918591 10.6901 3.26371 9.48393 6.72276C9.26356 7.34813 9.22877 7.74876 9.18238 9.69325C9.13599 11.3251 9.08959 11.9797 8.97361 12.0872C8.25454 12.7908 8.05737 14.061 8.53289 14.9405C9.02001 15.8296 10.1798 16.6211 11.328 16.8263C11.6064 16.8752 11.7107 16.9534 11.7571 17.1488C12.0819 18.5852 13.0445 20.0704 14.2507 21.0085L14.9466 21.5557V22.5328V23.5099L14.3435 23.6956C10.5045 24.9268 4.54318 26.9201 4.02127 27.1546C2.33956 27.907 1.04059 29.2066 0.367904 30.7993L0.0431603 31.581L0.00836632 39.9355C-0.0148297 45.7299 0.00836632 48.3975 0.10115 48.6516C0.263522 49.1401 0.750638 49.5994 1.31894 49.8144C1.75966 49.9805 2.26997 50 10.0174 49.9902C16.5935 49.9902 18.2868 49.9707 18.4492 49.8632C18.9015 49.5701 18.9131 48.9643 18.4492 48.6711C18.2984 48.5636 17.2082 48.5441 13.3577 48.5343H8.4633L8.42851 45.1241C8.39371 41.2938 8.44011 41.5283 7.47747 40.8736L7.03675 40.5707L4.38081 40.5414L1.72487 40.512V36.4179C1.72487 33.8187 1.77126 32.138 1.85245 31.8058C2.1424 30.6528 3.16302 29.3825 4.38081 28.6692C4.67076 28.5031 6.60762 27.8093 8.68366 27.1253L12.453 25.8844L12.6618 26.1873C13.6128 27.4966 15.4801 28.5128 17.7881 28.9526C19.0175 29.1871 20.9659 29.1871 22.1953 28.9526C24.5033 28.5128 26.3706 27.4966 27.3216 26.1873L27.5304 25.8844L31.1838 27.0765C33.1902 27.7409 35.0111 28.3467 35.2083 28.4347C35.8578 28.7278 37.0871 29.7733 37.5047 30.3987C37.9918 31.1413 38.2585 32.0403 38.2585 33.0077C38.2585 33.6135 38.3049 33.7991 38.5021 34.0141C38.8152 34.3561 39.3951 34.3659 39.7663 34.0239C40.0214 33.7991 40.033 33.7405 39.9634 32.6363C39.8823 30.9655 39.3835 29.8515 38.2469 28.7278C37.6091 28.1024 36.7276 27.4966 35.9273 27.1351C35.417 26.9103 29.2701 24.8486 25.6515 23.6956L25.0368 23.5099V22.4448C25.0368 21.3993 25.0368 21.3798 25.3616 21.1746C26.3822 20.5101 27.658 18.7122 27.9363 17.5396L28.0871 16.8947L28.6206 16.7775C29.676 16.5527 30.7314 15.859 31.2186 15.0675C31.4969 14.5985 31.6129 13.5627 31.4273 13.0057C31.3577 12.781 31.1722 12.4488 31.0214 12.2631C30.7662 11.9407 30.7546 11.8136 30.6851 9.87891C30.6155 7.78784 30.4763 6.98659 30.024 5.97037C28.7714 3.14645 25.9763 1.00653 22.5433 0.254139C21.1863 -0.0390015 19.1335 -0.0878563 17.8229 0.156425ZM22.1953 1.68076C22.5781 1.7687 23.3899 2.04229 23.993 2.29635C24.9209 2.67743 25.2688 2.8924 26.1502 3.63502C28.2031 5.34501 28.9802 7.07453 28.9802 9.90822C28.9802 10.7388 28.957 10.817 28.7598 10.817C28.3655 10.817 28.1683 10.6997 28.1683 10.475C28.1683 10.1623 27.6928 9.65417 26.243 8.40343C24.7469 7.11362 24.4801 7.0159 23.5523 7.4263C19.4698 9.234 17.9853 9.61508 14.6218 9.7128C12.9401 9.76165 12.6966 9.79096 12.3602 9.97662C12.1631 10.0939 11.9311 10.2893 11.8615 10.4163C11.6759 10.7095 11.5832 10.7779 11.212 10.856L10.8873 10.9147V9.59554C10.8873 8.11029 11.0729 7.17225 11.56 6.14626C12.743 3.71319 15.2713 2.05207 18.6579 1.4951C19.203 1.40716 21.4994 1.52441 22.1953 1.68076ZM25.3732 9.74211L26.4402 10.7192L26.4054 13.9145C26.359 17.0804 26.359 17.1292 26.0691 17.7741C25.2804 19.5037 23.7147 20.7153 21.6154 21.2234C20.56 21.4873 18.6231 21.3895 17.5561 21.028C15.9904 20.5003 14.761 19.5721 14.0767 18.3897C13.4968 17.3931 13.4388 17.0413 13.4388 14.0122V11.2078H14.5175C17.2894 11.198 20.2585 10.5434 22.8912 9.36103C23.5987 9.03857 24.2018 8.77475 24.2366 8.77475C24.2714 8.76497 24.7933 9.20469 25.3732 9.74211ZM11.6991 13.7972C11.6991 15.2043 11.6875 15.3118 11.4904 15.3118C11.1424 15.3118 10.3654 14.7841 10.1566 14.403C9.86666 13.9047 9.91305 13.5432 10.3074 13.0839C10.5973 12.7419 11.3164 12.3022 11.618 12.2827C11.6643 12.2827 11.6991 12.9666 11.6991 13.7972ZM28.8758 12.5074C30.2211 13.2696 30.0704 14.6082 28.551 15.2531L28.1683 15.4193V13.8461C28.1683 12.1165 28.1683 12.1068 28.8758 12.5074ZM18.1128 22.6989C19.6322 22.9627 21.3139 22.865 23.042 22.396C23.2855 22.3276 23.2971 22.3471 23.2971 23.0116C23.2971 23.676 23.2855 23.7053 22.868 24.0083C22.636 24.1841 22.1489 24.448 21.7894 24.5848C21.2327 24.8095 21.0007 24.8388 19.9917 24.8388C18.9827 24.8388 18.7507 24.8095 18.194 24.5848C17.8345 24.448 17.3474 24.1841 17.1154 24.0083C16.6979 23.7053 16.6863 23.676 16.6863 23.0214V22.3471L16.9994 22.4546C17.1734 22.5132 17.6721 22.6207 18.1128 22.6989ZM16.2572 25.2883C17.3358 26.0114 18.5188 26.3534 19.9917 26.3534C21.4762 26.3534 22.8448 25.9528 23.8538 25.2199L24.3526 24.8681L25.1064 25.0929C25.9183 25.3372 25.9415 25.3762 25.466 25.855C24.8397 26.5097 23.4479 27.1839 22.1373 27.4869C21.1051 27.7214 18.9827 27.7214 17.9621 27.4966C17.011 27.2817 15.7236 26.7638 15.1205 26.3631C14.6682 26.0505 14.0535 25.4056 14.1463 25.3372C14.2159 25.2883 15.4453 24.8974 15.5613 24.8974C15.6077 24.8877 15.9208 25.0733 16.2572 25.2883ZM6.57283 42.1048C6.67721 42.1927 6.71201 43.0526 6.71201 45.3782V48.5343H4.35761C2.6759 48.5343 1.96843 48.505 1.86405 48.4171C1.75966 48.3291 1.72487 47.4692 1.72487 45.1437V41.9875H4.07926C5.76097 41.9875 6.46845 42.0168 6.57283 42.1048Z" fill="white"/>
<path d="M23.7609 32.9392C20.641 33.6428 20.757 36.9748 23.9696 39.2124C24.3988 39.5056 25.1294 39.9062 25.5934 40.1016C26.3704 40.4338 26.4632 40.4436 26.8807 40.3459C27.1243 40.2775 27.739 40.0039 28.2377 39.7303C30.3253 38.5773 31.5315 37.0041 31.5315 35.4211C31.5315 34.1216 30.7545 33.2715 29.2815 32.9392C28.5393 32.7633 27.9478 32.8415 27.1127 33.2128L26.4632 33.4962L26.0341 33.2519C25.8021 33.1249 25.3498 32.9685 25.0251 32.9099C24.3524 32.7829 24.422 32.7829 23.7609 32.9392ZM24.8395 34.4049C25.0483 34.4733 25.3614 34.6785 25.5354 34.8446C26.1965 35.4798 26.7764 35.47 27.5882 34.8153C28.2029 34.317 28.5277 34.229 29.038 34.4049C29.8846 34.7078 30.047 35.5677 29.4439 36.5937C29.038 37.2679 27.8318 38.2841 26.9967 38.6555L26.4748 38.89L25.8021 38.5284C24.4452 37.7956 23.5173 36.7989 23.297 35.8315C23.1114 35.0107 23.4129 34.5026 24.1668 34.3365C24.2944 34.317 24.4104 34.2877 24.4336 34.2779C24.4452 34.2779 24.6307 34.3268 24.8395 34.4049Z" fill="#D9D9D9"/>
<path d="M23.7609 32.9392C20.641 33.6428 20.757 36.9748 23.9696 39.2124C24.3988 39.5056 25.1294 39.9062 25.5934 40.1016C26.3704 40.4338 26.4632 40.4436 26.8807 40.3459C27.1243 40.2775 27.739 40.0039 28.2377 39.7303C30.3253 38.5773 31.5315 37.0041 31.5315 35.4211C31.5315 34.1216 30.7545 33.2715 29.2815 32.9392C28.5393 32.7633 27.9478 32.8415 27.1127 33.2128L26.4632 33.4962L26.0341 33.2519C25.8021 33.1249 25.3498 32.9685 25.0251 32.9099C24.3524 32.7829 24.422 32.7829 23.7609 32.9392ZM24.8395 34.4049C25.0483 34.4733 25.3614 34.6785 25.5354 34.8446C26.1965 35.4798 26.7764 35.47 27.5882 34.8153C28.2029 34.317 28.5277 34.229 29.038 34.4049C29.8846 34.7078 30.047 35.5677 29.4439 36.5937C29.038 37.2679 27.8318 38.2841 26.9967 38.6555L26.4748 38.89L25.8021 38.5284C24.4452 37.7956 23.5173 36.7989 23.297 35.8315C23.1114 35.0107 23.4129 34.5026 24.1668 34.3365C24.2944 34.317 24.4104 34.2877 24.4336 34.2779C24.4452 34.2779 24.6307 34.3268 24.8395 34.4049Z" fill="white"/>
<path d="M38.8268 36.3299C38.3281 36.4862 38.2585 36.7696 38.2585 38.7141V40.5218H35.7997C33.1206 40.5218 32.7263 40.5902 32.1464 41.1179C31.5549 41.6553 31.5317 41.8507 31.5317 45.3098V48.5343H26.6721C21.9401 48.5343 21.8126 48.5441 21.511 48.7395C21.2907 48.8861 21.2095 49.0326 21.2095 49.2671C21.2095 49.5017 21.2907 49.6482 21.511 49.7948C21.8126 50 21.9054 50 29.9892 50C37.0871 50 38.2005 49.9805 38.5833 49.8534C39.1516 49.6482 39.5227 49.3453 39.7779 48.8763C39.975 48.5148 39.9982 48.1141 39.9982 42.652C39.9982 39.447 39.9634 36.7501 39.9286 36.6621C39.8706 36.5351 39.2791 36.2029 39.1632 36.2322C39.14 36.2322 38.9892 36.281 38.8268 36.3299ZM38.2585 45.1436C38.2585 47.4692 38.2237 48.3291 38.1193 48.417C38.015 48.505 37.3075 48.5343 35.6258 48.5343H33.2714V45.3782C33.2714 43.0526 33.3062 42.1927 33.4106 42.1048C33.5149 42.0168 34.2224 41.9875 35.9041 41.9875H38.2585V45.1436Z" fill="#D9D9D9"/>
<path d="M38.8268 36.3299C38.3281 36.4862 38.2585 36.7696 38.2585 38.7141V40.5218H35.7997C33.1206 40.5218 32.7263 40.5902 32.1464 41.1179C31.5549 41.6553 31.5317 41.8507 31.5317 45.3098V48.5343H26.6721C21.9401 48.5343 21.8126 48.5441 21.511 48.7395C21.2907 48.8861 21.2095 49.0326 21.2095 49.2671C21.2095 49.5017 21.2907 49.6482 21.511 49.7948C21.8126 50 21.9054 50 29.9892 50C37.0871 50 38.2005 49.9805 38.5833 49.8534C39.1516 49.6482 39.5227 49.3453 39.7779 48.8763C39.975 48.5148 39.9982 48.1141 39.9982 42.652C39.9982 39.447 39.9634 36.7501 39.9286 36.6621C39.8706 36.5351 39.2791 36.2029 39.1632 36.2322C39.14 36.2322 38.9892 36.281 38.8268 36.3299ZM38.2585 45.1436C38.2585 47.4692 38.2237 48.3291 38.1193 48.417C38.015 48.505 37.3075 48.5343 35.6258 48.5343H33.2714V45.3782C33.2714 43.0526 33.3062 42.1927 33.4106 42.1048C33.5149 42.0168 34.2224 41.9875 35.9041 41.9875H38.2585V45.1436Z" fill="white"/>
</svg>
