<svg width="50" height="50" viewBox="0 0 50 50" fill="none" xmlns="http://www.w3.org/2000/svg">
<path d="M0 5C0 2.23858 2.23858 0 5 0H45C47.7614 0 50 2.23858 50 5V45C50 47.7614 47.7614 50 45 50H5C2.23858 50 0 47.7614 0 45V5Z" fill="#D9D9D9"/>
<path d="M0 5C0 2.23858 2.23858 0 5 0H45C47.7614 0 50 2.23858 50 5V45C50 47.7614 47.7614 50 45 50H5C2.23858 50 0 47.7614 0 45V5Z" fill="#006EFF"/>
<path d="M9.34167 5.15361C9.25833 5.23664 9.16667 5.47741 9.13333 5.69328C9.025 6.4073 8.38333 7.02168 7.60833 7.16283C7.11667 7.25416 7 7.36209 7 7.69419C7 8.02629 7.11667 8.12592 7.55833 8.20065C8.325 8.31688 9.025 8.98108 9.13333 9.6951C9.26667 10.5752 10.075 10.6416 10.2 9.78643C10.3167 8.99769 11.0083 8.32518 11.8083 8.19234C12.2083 8.12592 12.3583 7.99308 12.3583 7.68589C12.3583 7.3953 12.1917 7.25416 11.7333 7.17113C10.95 7.02168 10.3167 6.38239 10.2 5.60195C10.1167 5.05398 9.675 4.82151 9.34167 5.15361ZM10.0083 7.33718L10.3333 7.68589L10.0667 7.97648C9.91667 8.14253 9.76667 8.30858 9.74167 8.34179C9.70833 8.3833 9.53333 8.25046 9.35 8.0595L9.01667 7.69419L9.31667 7.35379C9.49167 7.16283 9.63333 6.99678 9.65 6.99678C9.65833 6.98847 9.825 7.14622 10.0083 7.33718Z" fill="#D9D9D9"/>
<path d="M9.34167 5.15361C9.25833 5.23664 9.16667 5.47741 9.13333 5.69328C9.025 6.4073 8.38333 7.02168 7.60833 7.16283C7.11667 7.25416 7 7.36209 7 7.69419C7 8.02629 7.11667 8.12592 7.55833 8.20065C8.325 8.31688 9.025 8.98108 9.13333 9.6951C9.26667 10.5752 10.075 10.6416 10.2 9.78643C10.3167 8.99769 11.0083 8.32518 11.8083 8.19234C12.2083 8.12592 12.3583 7.99308 12.3583 7.68589C12.3583 7.3953 12.1917 7.25416 11.7333 7.17113C10.95 7.02168 10.3167 6.38239 10.2 5.60195C10.1167 5.05398 9.675 4.82151 9.34167 5.15361ZM10.0083 7.33718L10.3333 7.68589L10.0667 7.97648C9.91667 8.14253 9.76667 8.30858 9.74167 8.34179C9.70833 8.3833 9.53333 8.25046 9.35 8.0595L9.01667 7.69419L9.31667 7.35379C9.49167 7.16283 9.63333 6.99678 9.65 6.99678C9.65833 6.98847 9.825 7.14622 10.0083 7.33718Z" fill="white"/>
<path d="M9.34167 5.15361C9.25833 5.23664 9.16667 5.47741 9.13333 5.69328C9.025 6.4073 8.38333 7.02168 7.60833 7.16283C7.11667 7.25416 7 7.36209 7 7.69419C7 8.02629 7.11667 8.12592 7.55833 8.20065C8.325 8.31688 9.025 8.98108 9.13333 9.6951C9.26667 10.5752 10.075 10.6416 10.2 9.78643C10.3167 8.99769 11.0083 8.32518 11.8083 8.19234C12.2083 8.12592 12.3583 7.99308 12.3583 7.68589C12.3583 7.3953 12.1917 7.25416 11.7333 7.17113C10.95 7.02168 10.3167 6.38239 10.2 5.60195C10.1167 5.05398 9.675 4.82151 9.34167 5.15361ZM10.0083 7.33718L10.3333 7.68589L10.0667 7.97648C9.91667 8.14253 9.76667 8.30858 9.74167 8.34179C9.70833 8.3833 9.53333 8.25046 9.35 8.0595L9.01667 7.69419L9.31667 7.35379C9.49167 7.16283 9.63333 6.99678 9.65 6.99678C9.65833 6.98847 9.825 7.14622 10.0083 7.33718Z" stroke="white" stroke-width="0.5"/>
<path d="M35.3583 7.86019C35.2333 7.94321 35.1583 8.10926 35.1249 8.38325C34.9833 9.41276 34.5249 10.6083 34.0583 11.1729L33.8583 11.422L33.1999 11.2559C32.7083 11.1397 32.2583 11.0982 31.4166 11.0982C30.0083 11.1065 29.2083 11.2559 27.4583 11.8454C24.5499 12.8251 23.2416 12.8002 20.2333 11.7292C19.2416 11.3722 18.1333 11.148 17.0416 11.0899C12.9416 10.8574 9.29161 13.8131 8.62494 17.8897C8.18327 20.6129 9.05827 23.5852 10.8916 25.5861L11.3083 26.0428L11.4083 27.0806C11.4583 27.6535 11.5999 29.1977 11.7166 30.5261C11.8249 31.8462 11.9749 33.349 12.0499 33.8721L12.1666 34.8185L11.9083 35.1423C11.5749 35.5575 10.7499 36.1553 10.1749 36.3794C9.93327 36.4708 9.50827 36.5704 9.22494 36.6036C8.90827 36.6368 8.66661 36.7115 8.56661 36.8112C8.22494 37.1516 8.51661 37.6248 9.07494 37.6248C9.57494 37.6248 10.4333 37.9237 10.9916 38.2973C12.0166 38.9781 12.7416 40.099 12.9583 41.3194C13.0749 42.0086 13.1999 42.1912 13.5416 42.1912C13.7583 42.1912 13.9749 41.967 14.0166 41.7097C14.0333 41.5519 14.1583 41.6848 14.6333 42.4154C15.2749 43.3785 16.2166 44.3914 16.7999 44.7318C17.2749 45.0141 17.9333 45.0805 18.4666 44.8978C19.1166 44.6903 19.4583 44.3416 19.8916 43.4864C20.5916 42.0916 21.0083 40.6303 21.1666 38.9532C21.3916 36.5787 21.6333 35.3416 22.1249 34.1377C22.5166 33.1829 23.1333 32.718 24.0083 32.718C24.6166 32.7097 25.1416 32.9422 25.4999 33.3739C26.0249 34.0132 26.6166 36.1137 26.7583 37.8739C26.8916 39.5095 27.1249 40.8545 27.4499 41.8093C28.2499 44.2004 28.9249 44.9643 30.2083 44.9726C30.9916 44.9726 31.2916 44.8148 32.1666 43.9347C34.2666 41.8508 35.4166 38.7623 36.0416 33.5566C36.1083 32.9837 36.2583 31.3813 36.3749 29.9865C36.7166 25.968 36.6916 26.1258 37.0833 25.6774C38.7166 23.8177 39.4999 21.7669 39.4999 19.3011C39.4999 18.1221 39.3583 17.3251 38.9666 16.279C38.6999 15.5649 38.6999 15.5566 38.8666 15.457C39.6249 14.9838 40.6916 14.6268 41.3833 14.6268C41.7749 14.6268 41.9999 14.4358 41.9999 14.112C41.9999 13.8214 41.7499 13.6305 41.3666 13.6305C39.9333 13.6222 38.0916 12.5096 37.1249 11.0567C36.6666 10.3676 36.2666 9.32143 36.1916 8.62402C36.1499 8.2504 36.0916 8.06775 35.9499 7.92661C35.7249 7.70244 35.5999 7.68583 35.3583 7.86019ZM35.8833 10.9072C36.5333 12.2024 37.7916 13.4312 39.1166 14.0871C39.1833 14.112 39.1833 14.1452 39.1166 14.1701C37.7916 14.826 36.5333 16.0548 35.8833 17.3417C35.7666 17.5825 35.6499 17.7817 35.6249 17.7817C35.5999 17.7817 35.5249 17.6489 35.4583 17.4828C34.9749 16.3122 33.4749 14.8343 32.1333 14.1701C32.0666 14.1452 32.0666 14.112 32.1333 14.0871C33.4749 13.4229 34.9749 11.945 35.4583 10.7744C35.5249 10.6083 35.5999 10.4755 35.6249 10.4755C35.6499 10.4755 35.7666 10.6747 35.8833 10.9072ZM17.6999 12.1443C18.4833 12.2439 19.5666 12.5262 20.7583 12.9579C21.7416 13.3067 22.5499 13.4644 23.6249 13.5225C24.9333 13.5806 25.9416 13.4063 27.7333 12.8085C29.4999 12.219 30.7166 12.0032 31.8749 12.0862C32.2916 12.1111 32.7333 12.1609 32.8749 12.2024L33.1249 12.2688L32.7083 12.576C31.8583 13.1904 30.6999 13.6222 29.8833 13.6305C29.4916 13.6305 29.2499 13.8214 29.2499 14.1286C29.2499 14.4607 29.4749 14.6019 30.0999 14.6517C31.3249 14.7596 32.4999 15.3657 33.4749 16.4035C34.3916 17.3749 34.8999 18.4044 35.0749 19.6581C35.1416 20.0815 35.2083 20.2725 35.3416 20.3721C35.7499 20.7042 36.0583 20.4385 36.1749 19.6498C36.3499 18.5622 36.8666 17.4247 37.5499 16.636C37.7166 16.4367 37.8833 16.3039 37.9166 16.3454C37.9583 16.3786 38.0916 16.7273 38.2166 17.1175C38.4416 17.79 38.4499 17.898 38.4499 19.3177C38.4499 20.588 38.4249 20.9118 38.2749 21.4515C37.8749 22.8629 37.2249 24.0501 36.2916 25.0465C36.0333 25.3204 35.8083 25.6193 35.7916 25.7107C35.7249 26.0012 35.5916 27.3961 35.3749 29.945C35.0583 33.7143 34.7749 35.765 34.3249 37.5833C33.6916 40.1405 32.6499 42.1497 31.3083 43.42C30.6416 44.0427 30.2666 44.1506 29.6999 43.8849C29.3499 43.7189 29.0999 43.3204 28.6583 42.1995C28.1999 41.0289 27.9416 39.8499 27.7999 38.1479C27.6583 36.5787 27.4749 35.6156 27.0916 34.4864C26.5999 33.0252 26.1749 32.4025 25.3833 32.0206C23.9916 31.3398 22.3499 31.7881 21.5416 33.0584C21.2916 33.4486 20.8666 34.6193 20.6333 35.5658C20.4499 36.2881 20.3833 36.7364 20.1666 38.9532C20.0083 40.5058 19.3833 42.5648 18.7833 43.4615C18.4333 43.9929 17.7833 44.1672 17.2749 43.8517C16.5333 43.4034 15.3583 41.9006 14.7833 40.6635L14.4916 40.0242L14.7499 39.6257C15.4083 38.5879 16.6749 37.766 17.7499 37.658C18.3583 37.5999 18.5833 37.4505 18.5833 37.1267C18.5833 36.8112 18.3666 36.6617 17.8083 36.5953C16.8499 36.4874 15.9666 36.0224 15.2166 35.2088C14.6416 34.5944 14.2916 33.8887 14.0916 32.9422C13.9333 32.1783 13.8583 32.0621 13.4833 32.0621C13.2166 32.0621 12.9999 32.3278 12.9916 32.6848C12.9666 33.1996 12.8416 32.0704 12.6249 29.5298C12.5083 28.1101 12.3749 26.6405 12.3249 26.2503C12.2333 25.5446 12.2249 25.5446 11.7249 25.0132C10.7833 24.0003 10.1416 22.8297 9.76661 21.4348C9.59161 20.7623 9.55827 20.4634 9.55827 19.3592C9.55827 18.2882 9.58327 17.9644 9.73327 17.4164C10.4749 14.7264 12.6833 12.6757 15.3749 12.1775C16.1166 12.0364 16.7666 12.0281 17.6999 12.1443ZM14.7583 36.1719C15.0083 36.4043 15.3833 36.7032 15.5999 36.8361C15.8249 36.9772 15.9999 37.1017 15.9999 37.1267C15.9916 37.1516 15.7833 37.301 15.5333 37.4588C14.9666 37.8158 14.1166 38.6875 13.7833 39.2687L13.5333 39.7004L13.1249 39.0695C12.6749 38.3803 12.1333 37.849 11.4333 37.4006L10.9916 37.1184L11.5083 36.7779C12.1666 36.3545 12.8083 35.7069 13.2083 35.0593L13.5166 34.5529L13.9083 35.1507C14.1249 35.4828 14.5083 35.9477 14.7583 36.1719Z" fill="#D9D9D9"/>
<path d="M35.3583 7.86019C35.2333 7.94321 35.1583 8.10926 35.1249 8.38325C34.9833 9.41276 34.5249 10.6083 34.0583 11.1729L33.8583 11.422L33.1999 11.2559C32.7083 11.1397 32.2583 11.0982 31.4166 11.0982C30.0083 11.1065 29.2083 11.2559 27.4583 11.8454C24.5499 12.8251 23.2416 12.8002 20.2333 11.7292C19.2416 11.3722 18.1333 11.148 17.0416 11.0899C12.9416 10.8574 9.29161 13.8131 8.62494 17.8897C8.18327 20.6129 9.05827 23.5852 10.8916 25.5861L11.3083 26.0428L11.4083 27.0806C11.4583 27.6535 11.5999 29.1977 11.7166 30.5261C11.8249 31.8462 11.9749 33.349 12.0499 33.8721L12.1666 34.8185L11.9083 35.1423C11.5749 35.5575 10.7499 36.1553 10.1749 36.3794C9.93327 36.4708 9.50827 36.5704 9.22494 36.6036C8.90827 36.6368 8.66661 36.7115 8.56661 36.8112C8.22494 37.1516 8.51661 37.6248 9.07494 37.6248C9.57494 37.6248 10.4333 37.9237 10.9916 38.2973C12.0166 38.9781 12.7416 40.099 12.9583 41.3194C13.0749 42.0086 13.1999 42.1912 13.5416 42.1912C13.7583 42.1912 13.9749 41.967 14.0166 41.7097C14.0333 41.5519 14.1583 41.6848 14.6333 42.4154C15.2749 43.3785 16.2166 44.3914 16.7999 44.7318C17.2749 45.0141 17.9333 45.0805 18.4666 44.8978C19.1166 44.6903 19.4583 44.3416 19.8916 43.4864C20.5916 42.0916 21.0083 40.6303 21.1666 38.9532C21.3916 36.5787 21.6333 35.3416 22.1249 34.1377C22.5166 33.1829 23.1333 32.718 24.0083 32.718C24.6166 32.7097 25.1416 32.9422 25.4999 33.3739C26.0249 34.0132 26.6166 36.1137 26.7583 37.8739C26.8916 39.5095 27.1249 40.8545 27.4499 41.8093C28.2499 44.2004 28.9249 44.9643 30.2083 44.9726C30.9916 44.9726 31.2916 44.8148 32.1666 43.9347C34.2666 41.8508 35.4166 38.7623 36.0416 33.5566C36.1083 32.9837 36.2583 31.3813 36.3749 29.9865C36.7166 25.968 36.6916 26.1258 37.0833 25.6774C38.7166 23.8177 39.4999 21.7669 39.4999 19.3011C39.4999 18.1221 39.3583 17.3251 38.9666 16.279C38.6999 15.5649 38.6999 15.5566 38.8666 15.457C39.6249 14.9838 40.6916 14.6268 41.3833 14.6268C41.7749 14.6268 41.9999 14.4358 41.9999 14.112C41.9999 13.8214 41.7499 13.6305 41.3666 13.6305C39.9333 13.6222 38.0916 12.5096 37.1249 11.0567C36.6666 10.3676 36.2666 9.32143 36.1916 8.62402C36.1499 8.2504 36.0916 8.06775 35.9499 7.92661C35.7249 7.70244 35.5999 7.68583 35.3583 7.86019ZM35.8833 10.9072C36.5333 12.2024 37.7916 13.4312 39.1166 14.0871C39.1833 14.112 39.1833 14.1452 39.1166 14.1701C37.7916 14.826 36.5333 16.0548 35.8833 17.3417C35.7666 17.5825 35.6499 17.7817 35.6249 17.7817C35.5999 17.7817 35.5249 17.6489 35.4583 17.4828C34.9749 16.3122 33.4749 14.8343 32.1333 14.1701C32.0666 14.1452 32.0666 14.112 32.1333 14.0871C33.4749 13.4229 34.9749 11.945 35.4583 10.7744C35.5249 10.6083 35.5999 10.4755 35.6249 10.4755C35.6499 10.4755 35.7666 10.6747 35.8833 10.9072ZM17.6999 12.1443C18.4833 12.2439 19.5666 12.5262 20.7583 12.9579C21.7416 13.3067 22.5499 13.4644 23.6249 13.5225C24.9333 13.5806 25.9416 13.4063 27.7333 12.8085C29.4999 12.219 30.7166 12.0032 31.8749 12.0862C32.2916 12.1111 32.7333 12.1609 32.8749 12.2024L33.1249 12.2688L32.7083 12.576C31.8583 13.1904 30.6999 13.6222 29.8833 13.6305C29.4916 13.6305 29.2499 13.8214 29.2499 14.1286C29.2499 14.4607 29.4749 14.6019 30.0999 14.6517C31.3249 14.7596 32.4999 15.3657 33.4749 16.4035C34.3916 17.3749 34.8999 18.4044 35.0749 19.6581C35.1416 20.0815 35.2083 20.2725 35.3416 20.3721C35.7499 20.7042 36.0583 20.4385 36.1749 19.6498C36.3499 18.5622 36.8666 17.4247 37.5499 16.636C37.7166 16.4367 37.8833 16.3039 37.9166 16.3454C37.9583 16.3786 38.0916 16.7273 38.2166 17.1175C38.4416 17.79 38.4499 17.898 38.4499 19.3177C38.4499 20.588 38.4249 20.9118 38.2749 21.4515C37.8749 22.8629 37.2249 24.0501 36.2916 25.0465C36.0333 25.3204 35.8083 25.6193 35.7916 25.7107C35.7249 26.0012 35.5916 27.3961 35.3749 29.945C35.0583 33.7143 34.7749 35.765 34.3249 37.5833C33.6916 40.1405 32.6499 42.1497 31.3083 43.42C30.6416 44.0427 30.2666 44.1506 29.6999 43.8849C29.3499 43.7189 29.0999 43.3204 28.6583 42.1995C28.1999 41.0289 27.9416 39.8499 27.7999 38.1479C27.6583 36.5787 27.4749 35.6156 27.0916 34.4864C26.5999 33.0252 26.1749 32.4025 25.3833 32.0206C23.9916 31.3398 22.3499 31.7881 21.5416 33.0584C21.2916 33.4486 20.8666 34.6193 20.6333 35.5658C20.4499 36.2881 20.3833 36.7364 20.1666 38.9532C20.0083 40.5058 19.3833 42.5648 18.7833 43.4615C18.4333 43.9929 17.7833 44.1672 17.2749 43.8517C16.5333 43.4034 15.3583 41.9006 14.7833 40.6635L14.4916 40.0242L14.7499 39.6257C15.4083 38.5879 16.6749 37.766 17.7499 37.658C18.3583 37.5999 18.5833 37.4505 18.5833 37.1267C18.5833 36.8112 18.3666 36.6617 17.8083 36.5953C16.8499 36.4874 15.9666 36.0224 15.2166 35.2088C14.6416 34.5944 14.2916 33.8887 14.0916 32.9422C13.9333 32.1783 13.8583 32.0621 13.4833 32.0621C13.2166 32.0621 12.9999 32.3278 12.9916 32.6848C12.9666 33.1996 12.8416 32.0704 12.6249 29.5298C12.5083 28.1101 12.3749 26.6405 12.3249 26.2503C12.2333 25.5446 12.2249 25.5446 11.7249 25.0132C10.7833 24.0003 10.1416 22.8297 9.76661 21.4348C9.59161 20.7623 9.55827 20.4634 9.55827 19.3592C9.55827 18.2882 9.58327 17.9644 9.73327 17.4164C10.4749 14.7264 12.6833 12.6757 15.3749 12.1775C16.1166 12.0364 16.7666 12.0281 17.6999 12.1443ZM14.7583 36.1719C15.0083 36.4043 15.3833 36.7032 15.5999 36.8361C15.8249 36.9772 15.9999 37.1017 15.9999 37.1267C15.9916 37.1516 15.7833 37.301 15.5333 37.4588C14.9666 37.8158 14.1166 38.6875 13.7833 39.2687L13.5333 39.7004L13.1249 39.0695C12.6749 38.3803 12.1333 37.849 11.4333 37.4006L10.9916 37.1184L11.5083 36.7779C12.1666 36.3545 12.8083 35.7069 13.2083 35.0593L13.5166 34.5529L13.9083 35.1507C14.1249 35.4828 14.5083 35.9477 14.7583 36.1719Z" fill="white"/>
<path d="M35.3583 7.86019C35.2333 7.94321 35.1583 8.10926 35.1249 8.38325C34.9833 9.41276 34.5249 10.6083 34.0583 11.1729L33.8583 11.422L33.1999 11.2559C32.7083 11.1397 32.2583 11.0982 31.4166 11.0982C30.0083 11.1065 29.2083 11.2559 27.4583 11.8454C24.5499 12.8251 23.2416 12.8002 20.2333 11.7292C19.2416 11.3722 18.1333 11.148 17.0416 11.0899C12.9416 10.8574 9.29161 13.8131 8.62494 17.8897C8.18327 20.6129 9.05827 23.5852 10.8916 25.5861L11.3083 26.0428L11.4083 27.0806C11.4583 27.6535 11.5999 29.1977 11.7166 30.5261C11.8249 31.8462 11.9749 33.349 12.0499 33.8721L12.1666 34.8185L11.9083 35.1423C11.5749 35.5575 10.7499 36.1553 10.1749 36.3794C9.93327 36.4708 9.50827 36.5704 9.22494 36.6036C8.90827 36.6368 8.66661 36.7115 8.56661 36.8112C8.22494 37.1516 8.51661 37.6248 9.07494 37.6248C9.57494 37.6248 10.4333 37.9237 10.9916 38.2973C12.0166 38.9781 12.7416 40.099 12.9583 41.3194C13.0749 42.0086 13.1999 42.1912 13.5416 42.1912C13.7583 42.1912 13.9749 41.967 14.0166 41.7097C14.0333 41.5519 14.1583 41.6848 14.6333 42.4154C15.2749 43.3785 16.2166 44.3914 16.7999 44.7318C17.2749 45.0141 17.9333 45.0805 18.4666 44.8978C19.1166 44.6903 19.4583 44.3416 19.8916 43.4864C20.5916 42.0916 21.0083 40.6303 21.1666 38.9532C21.3916 36.5787 21.6333 35.3416 22.1249 34.1377C22.5166 33.1829 23.1333 32.718 24.0083 32.718C24.6166 32.7097 25.1416 32.9422 25.4999 33.3739C26.0249 34.0132 26.6166 36.1137 26.7583 37.8739C26.8916 39.5095 27.1249 40.8545 27.4499 41.8093C28.2499 44.2004 28.9249 44.9643 30.2083 44.9726C30.9916 44.9726 31.2916 44.8148 32.1666 43.9347C34.2666 41.8508 35.4166 38.7623 36.0416 33.5566C36.1083 32.9837 36.2583 31.3813 36.3749 29.9865C36.7166 25.968 36.6916 26.1258 37.0833 25.6774C38.7166 23.8177 39.4999 21.7669 39.4999 19.3011C39.4999 18.1221 39.3583 17.3251 38.9666 16.279C38.6999 15.5649 38.6999 15.5566 38.8666 15.457C39.6249 14.9838 40.6916 14.6268 41.3833 14.6268C41.7749 14.6268 41.9999 14.4358 41.9999 14.112C41.9999 13.8214 41.7499 13.6305 41.3666 13.6305C39.9333 13.6222 38.0916 12.5096 37.1249 11.0567C36.6666 10.3676 36.2666 9.32143 36.1916 8.62402C36.1499 8.2504 36.0916 8.06775 35.9499 7.92661C35.7249 7.70244 35.5999 7.68583 35.3583 7.86019ZM35.8833 10.9072C36.5333 12.2024 37.7916 13.4312 39.1166 14.0871C39.1833 14.112 39.1833 14.1452 39.1166 14.1701C37.7916 14.826 36.5333 16.0548 35.8833 17.3417C35.7666 17.5825 35.6499 17.7817 35.6249 17.7817C35.5999 17.7817 35.5249 17.6489 35.4583 17.4828C34.9749 16.3122 33.4749 14.8343 32.1333 14.1701C32.0666 14.1452 32.0666 14.112 32.1333 14.0871C33.4749 13.4229 34.9749 11.945 35.4583 10.7744C35.5249 10.6083 35.5999 10.4755 35.6249 10.4755C35.6499 10.4755 35.7666 10.6747 35.8833 10.9072ZM17.6999 12.1443C18.4833 12.2439 19.5666 12.5262 20.7583 12.9579C21.7416 13.3067 22.5499 13.4644 23.6249 13.5225C24.9333 13.5806 25.9416 13.4063 27.7333 12.8085C29.4999 12.219 30.7166 12.0032 31.8749 12.0862C32.2916 12.1111 32.7333 12.1609 32.8749 12.2024L33.1249 12.2688L32.7083 12.576C31.8583 13.1904 30.6999 13.6222 29.8833 13.6305C29.4916 13.6305 29.2499 13.8214 29.2499 14.1286C29.2499 14.4607 29.4749 14.6019 30.0999 14.6517C31.3249 14.7596 32.4999 15.3657 33.4749 16.4035C34.3916 17.3749 34.8999 18.4044 35.0749 19.6581C35.1416 20.0815 35.2083 20.2725 35.3416 20.3721C35.7499 20.7042 36.0583 20.4385 36.1749 19.6498C36.3499 18.5622 36.8666 17.4247 37.5499 16.636C37.7166 16.4367 37.8833 16.3039 37.9166 16.3454C37.9583 16.3786 38.0916 16.7273 38.2166 17.1175C38.4416 17.79 38.4499 17.898 38.4499 19.3177C38.4499 20.588 38.4249 20.9118 38.2749 21.4515C37.8749 22.8629 37.2249 24.0501 36.2916 25.0465C36.0333 25.3204 35.8083 25.6193 35.7916 25.7107C35.7249 26.0012 35.5916 27.3961 35.3749 29.945C35.0583 33.7143 34.7749 35.765 34.3249 37.5833C33.6916 40.1405 32.6499 42.1497 31.3083 43.42C30.6416 44.0427 30.2666 44.1506 29.6999 43.8849C29.3499 43.7189 29.0999 43.3204 28.6583 42.1995C28.1999 41.0289 27.9416 39.8499 27.7999 38.1479C27.6583 36.5787 27.4749 35.6156 27.0916 34.4864C26.5999 33.0252 26.1749 32.4025 25.3833 32.0206C23.9916 31.3398 22.3499 31.7881 21.5416 33.0584C21.2916 33.4486 20.8666 34.6193 20.6333 35.5658C20.4499 36.2881 20.3833 36.7364 20.1666 38.9532C20.0083 40.5058 19.3833 42.5648 18.7833 43.4615C18.4333 43.9929 17.7833 44.1672 17.2749 43.8517C16.5333 43.4034 15.3583 41.9006 14.7833 40.6635L14.4916 40.0242L14.7499 39.6257C15.4083 38.5879 16.6749 37.766 17.7499 37.658C18.3583 37.5999 18.5833 37.4505 18.5833 37.1267C18.5833 36.8112 18.3666 36.6617 17.8083 36.5953C16.8499 36.4874 15.9666 36.0224 15.2166 35.2088C14.6416 34.5944 14.2916 33.8887 14.0916 32.9422C13.9333 32.1783 13.8583 32.0621 13.4833 32.0621C13.2166 32.0621 12.9999 32.3278 12.9916 32.6848C12.9666 33.1996 12.8416 32.0704 12.6249 29.5298C12.5083 28.1101 12.3749 26.6405 12.3249 26.2503C12.2333 25.5446 12.2249 25.5446 11.7249 25.0132C10.7833 24.0003 10.1416 22.8297 9.76661 21.4348C9.59161 20.7623 9.55827 20.4634 9.55827 19.3592C9.55827 18.2882 9.58327 17.9644 9.73327 17.4164C10.4749 14.7264 12.6833 12.6757 15.3749 12.1775C16.1166 12.0364 16.7666 12.0281 17.6999 12.1443ZM14.7583 36.1719C15.0083 36.4043 15.3833 36.7032 15.5999 36.8361C15.8249 36.9772 15.9999 37.1017 15.9999 37.1267C15.9916 37.1516 15.7833 37.301 15.5333 37.4588C14.9666 37.8158 14.1166 38.6875 13.7833 39.2687L13.5333 39.7004L13.1249 39.0695C12.6749 38.3803 12.1333 37.849 11.4333 37.4006L10.9916 37.1184L11.5083 36.7779C12.1666 36.3545 12.8083 35.7069 13.2083 35.0593L13.5166 34.5529L13.9083 35.1507C14.1249 35.4828 14.5083 35.9477 14.7583 36.1719Z" stroke="white" stroke-width="0.5"/>
<path d="M38.8084 34.2042C38.725 34.2873 38.6667 34.445 38.6667 34.5612C38.6584 34.8518 38.3917 35.3832 38.1167 35.6655C37.8334 35.9478 37.3 36.2051 36.9917 36.2134C36.5584 36.2134 36.3334 36.7863 36.65 37.0686C36.7334 37.1516 36.9084 37.2097 37.0334 37.2097C37.6584 37.2097 38.5084 37.9985 38.6334 38.6959C38.7084 39.1442 38.8834 39.3684 39.15 39.3684C39.4917 39.3684 39.575 39.2771 39.7084 38.754C39.9584 37.7992 40.425 37.3924 41.5083 37.1765C41.975 37.0769 41.975 36.3463 41.5083 36.2467C40.425 36.0308 39.9584 35.624 39.7084 34.6692C39.6417 34.4035 39.5334 34.1627 39.4834 34.1212C39.2917 34.005 38.95 34.0465 38.8084 34.2042ZM39.5417 36.3795L39.8667 36.7116L39.525 37.052L39.1834 37.3924L38.8417 37.052L38.5 36.7116L38.8167 36.3795C38.9834 36.2051 39.1417 36.0557 39.1667 36.0474C39.1917 36.0474 39.3667 36.1968 39.5417 36.3795Z" fill="#D9D9D9"/>
<path d="M38.8084 34.2042C38.725 34.2873 38.6667 34.445 38.6667 34.5612C38.6584 34.8518 38.3917 35.3832 38.1167 35.6655C37.8334 35.9478 37.3 36.2051 36.9917 36.2134C36.5584 36.2134 36.3334 36.7863 36.65 37.0686C36.7334 37.1516 36.9084 37.2097 37.0334 37.2097C37.6584 37.2097 38.5084 37.9985 38.6334 38.6959C38.7084 39.1442 38.8834 39.3684 39.15 39.3684C39.4917 39.3684 39.575 39.2771 39.7084 38.754C39.9584 37.7992 40.425 37.3924 41.5083 37.1765C41.975 37.0769 41.975 36.3463 41.5083 36.2467C40.425 36.0308 39.9584 35.624 39.7084 34.6692C39.6417 34.4035 39.5334 34.1627 39.4834 34.1212C39.2917 34.005 38.95 34.0465 38.8084 34.2042ZM39.5417 36.3795L39.8667 36.7116L39.525 37.052L39.1834 37.3924L38.8417 37.052L38.5 36.7116L38.8167 36.3795C38.9834 36.2051 39.1417 36.0557 39.1667 36.0474C39.1917 36.0474 39.3667 36.1968 39.5417 36.3795Z" fill="white"/>
<path d="M38.8084 34.2042C38.725 34.2873 38.6667 34.445 38.6667 34.5612C38.6584 34.8518 38.3917 35.3832 38.1167 35.6655C37.8334 35.9478 37.3 36.2051 36.9917 36.2134C36.5584 36.2134 36.3334 36.7863 36.65 37.0686C36.7334 37.1516 36.9084 37.2097 37.0334 37.2097C37.6584 37.2097 38.5084 37.9985 38.6334 38.6959C38.7084 39.1442 38.8834 39.3684 39.15 39.3684C39.4917 39.3684 39.575 39.2771 39.7084 38.754C39.9584 37.7992 40.425 37.3924 41.5083 37.1765C41.975 37.0769 41.975 36.3463 41.5083 36.2467C40.425 36.0308 39.9584 35.624 39.7084 34.6692C39.6417 34.4035 39.5334 34.1627 39.4834 34.1212C39.2917 34.005 38.95 34.0465 38.8084 34.2042ZM39.5417 36.3795L39.8667 36.7116L39.525 37.052L39.1834 37.3924L38.8417 37.052L38.5 36.7116L38.8167 36.3795C38.9834 36.2051 39.1417 36.0557 39.1667 36.0474C39.1917 36.0474 39.3667 36.1968 39.5417 36.3795Z" stroke="white" stroke-width="0.5"/>
</svg>
