<svg width="50" height="51" viewBox="0 0 50 51" fill="none" xmlns="http://www.w3.org/2000/svg">
<path d="M26.7189 0.531277C23.5237 0.934824 20.3887 2.26653 18.2284 4.14303L17.6356 4.65755L15.4753 4.76853L13.315 4.8795L13.0839 5.1519C12.6418 5.66642 12.7423 5.86819 14.0887 7.31087C14.4605 7.71442 14.7619 8.07762 14.7418 8.11797C14.7217 8.15833 14.4505 8.7132 14.139 9.34879C12.26 13.1421 11.9586 17.3693 13.2648 21.3846C14.7921 26.0859 18.6002 29.9398 23.2323 31.4935C25.1414 32.129 26.1361 32.2905 28.2763 32.2905C30.316 32.2905 31.2705 32.1694 32.8079 31.7053C39.6102 29.6674 44.2021 23.5032 44.2021 16.4109C44.2021 15.1498 44.0313 13.6466 43.76 12.6377L43.6294 12.0929L46.2318 9.49003C47.6686 8.04735 49.0351 6.61476 49.2662 6.30201C50.6629 4.46587 49.9897 1.78227 47.8897 0.813761C47.3471 0.561543 47.1461 0.521189 46.3624 0.521189C44.9255 0.521189 44.6944 0.67252 42.072 3.2754L39.8916 5.44447L39.1681 4.76853C36.9878 2.70035 34.1643 1.27784 31.1198 0.712873C30.3059 0.561543 27.4222 0.440479 26.7189 0.531277ZM31.2102 2.37751C33.8327 2.95256 36.1236 4.14303 37.9724 5.88837L38.7863 6.65511L38.1834 7.27052L37.5705 7.88593L36.9978 7.31087C34.3251 4.6979 30.3361 3.39647 26.6184 3.94125C25.2418 4.14303 23.6643 4.65755 22.5289 5.26287L21.705 5.69669L21.715 5.35367C21.7351 4.84924 21.3835 4.50622 20.8509 4.50622H20.439L20.7404 4.29436C21.3634 3.87063 22.8605 3.17451 23.8452 2.84159C24.7193 2.54902 25.6437 2.33715 26.8696 2.14547C27.583 2.03449 30.3059 2.18582 31.2102 2.37751ZM47.327 2.36742C48.3117 2.88194 48.6834 4.06232 48.161 5.04092C47.8897 5.55544 32.6069 21.0214 32.1346 21.2635C31.6825 21.4956 30.8787 21.5157 30.4064 21.314C30.2256 21.2333 28.5476 19.6191 26.5983 17.6619C23.5036 14.5243 23.1016 14.0905 23.0012 13.697C22.6595 12.3855 23.6241 11.1345 24.9705 11.1446C25.2519 11.1446 25.6437 11.2253 25.8246 11.3161C26.0155 11.417 27.2313 12.557 28.5375 13.8483C30.6978 16.0073 30.9289 16.2091 31.2504 16.2091C31.572 16.2091 32.004 15.7955 38.3744 9.3387C43.1471 4.49613 45.2772 2.39768 45.5586 2.27662C46.1413 2.00422 46.694 2.03449 47.327 2.36742ZM29.6327 5.51509C31.8031 5.78748 33.8729 6.71564 35.5208 8.14824C36.5657 9.0764 36.7366 8.7132 33.8428 11.6288C32.4361 13.0413 31.2504 14.1914 31.1902 14.1914C31.1399 14.1914 30.1653 13.2632 29.0299 12.1333C27.8643 10.9731 26.7892 9.98438 26.5681 9.8734C24.9705 9.06631 22.8705 9.64136 21.9059 11.1446C21.4839 11.8104 21.2528 12.7689 21.3332 13.5356C21.4538 14.7765 21.6347 14.9985 25.5835 18.9431C29.7533 23.0997 29.6327 23.0089 31.1902 23.019C32.8179 23.019 32.848 22.9988 36.3447 19.5081L39.2988 16.5622L39.2284 17.3693C38.8064 22.1412 35.2696 26.1465 30.5873 27.1654C29.6026 27.3773 27.2514 27.4075 26.3672 27.2159C21.4739 26.1767 18.0074 22.4036 17.4749 17.5105C17.304 15.9468 17.5351 14.1006 18.0978 12.5973L18.339 11.9618L18.9619 12.6175C19.3036 12.9807 19.6954 13.3036 19.8361 13.3439C20.1375 13.4145 20.5495 13.1825 20.6902 12.8496C20.7504 12.7285 20.9213 11.5784 21.0921 10.3072L21.3935 7.98682L21.7753 7.66398C21.9763 7.48238 22.4787 7.14946 22.8705 6.91742C25.0007 5.69669 27.2715 5.2326 29.6327 5.51509ZM19.9868 6.24147C19.9868 6.46342 19.4744 10.398 19.4241 10.5493C19.394 10.6502 19.2433 10.5594 18.9217 10.2265C18.2284 9.49003 17.706 9.60101 17.2136 10.5897C16.1284 12.7386 15.616 15.3717 15.8672 17.6114C16.3394 21.9597 18.7509 25.5512 22.5088 27.5488C26.0557 29.4253 30.2055 29.4858 33.8026 27.7203C36.8873 26.1969 39.1581 23.6243 40.2332 20.406C40.6954 19.0238 40.816 18.2571 40.8461 16.5218L40.8763 14.8673L41.5595 14.1712C42.0318 13.697 42.2528 13.5255 42.3131 13.6163C42.494 13.9492 42.6145 15.634 42.5643 17.0162C42.4236 20.6179 41.0772 23.7554 38.5653 26.3482C36.4954 28.487 34.1342 29.7986 31.16 30.4543C29.7533 30.7671 27.0002 30.7671 25.5433 30.4543C21.7452 29.6271 18.6002 27.5084 16.5203 24.3809C14.8624 21.889 14.1189 19.4173 14.1189 16.4109C14.1189 13.5659 14.7418 11.3262 16.2088 8.88471C16.7313 8.01708 16.7012 7.75478 15.9978 7.0183C15.6863 6.69547 15.4552 6.42307 15.4753 6.41298C15.4954 6.41298 16.4902 6.34236 17.6758 6.28183C18.8615 6.21121 19.8662 6.14059 19.9165 6.14059C19.9567 6.1305 19.9868 6.18094 19.9868 6.24147Z" fill="#D9D9D9"/>
<path d="M26.7189 0.531277C23.5237 0.934824 20.3887 2.26653 18.2284 4.14303L17.6356 4.65755L15.4753 4.76853L13.315 4.8795L13.0839 5.1519C12.6418 5.66642 12.7423 5.86819 14.0887 7.31087C14.4605 7.71442 14.7619 8.07762 14.7418 8.11797C14.7217 8.15833 14.4505 8.7132 14.139 9.34879C12.26 13.1421 11.9586 17.3693 13.2648 21.3846C14.7921 26.0859 18.6002 29.9398 23.2323 31.4935C25.1414 32.129 26.1361 32.2905 28.2763 32.2905C30.316 32.2905 31.2705 32.1694 32.8079 31.7053C39.6102 29.6674 44.2021 23.5032 44.2021 16.4109C44.2021 15.1498 44.0313 13.6466 43.76 12.6377L43.6294 12.0929L46.2318 9.49003C47.6686 8.04735 49.0351 6.61476 49.2662 6.30201C50.6629 4.46587 49.9897 1.78227 47.8897 0.813761C47.3471 0.561543 47.1461 0.521189 46.3624 0.521189C44.9255 0.521189 44.6944 0.67252 42.072 3.2754L39.8916 5.44447L39.1681 4.76853C36.9878 2.70035 34.1643 1.27784 31.1198 0.712873C30.3059 0.561543 27.4222 0.440479 26.7189 0.531277ZM31.2102 2.37751C33.8327 2.95256 36.1236 4.14303 37.9724 5.88837L38.7863 6.65511L38.1834 7.27052L37.5705 7.88593L36.9978 7.31087C34.3251 4.6979 30.3361 3.39647 26.6184 3.94125C25.2418 4.14303 23.6643 4.65755 22.5289 5.26287L21.705 5.69669L21.715 5.35367C21.7351 4.84924 21.3835 4.50622 20.8509 4.50622H20.439L20.7404 4.29436C21.3634 3.87063 22.8605 3.17451 23.8452 2.84159C24.7193 2.54902 25.6437 2.33715 26.8696 2.14547C27.583 2.03449 30.3059 2.18582 31.2102 2.37751ZM47.327 2.36742C48.3117 2.88194 48.6834 4.06232 48.161 5.04092C47.8897 5.55544 32.6069 21.0214 32.1346 21.2635C31.6825 21.4956 30.8787 21.5157 30.4064 21.314C30.2256 21.2333 28.5476 19.6191 26.5983 17.6619C23.5036 14.5243 23.1016 14.0905 23.0012 13.697C22.6595 12.3855 23.6241 11.1345 24.9705 11.1446C25.2519 11.1446 25.6437 11.2253 25.8246 11.3161C26.0155 11.417 27.2313 12.557 28.5375 13.8483C30.6978 16.0073 30.9289 16.2091 31.2504 16.2091C31.572 16.2091 32.004 15.7955 38.3744 9.3387C43.1471 4.49613 45.2772 2.39768 45.5586 2.27662C46.1413 2.00422 46.694 2.03449 47.327 2.36742ZM29.6327 5.51509C31.8031 5.78748 33.8729 6.71564 35.5208 8.14824C36.5657 9.0764 36.7366 8.7132 33.8428 11.6288C32.4361 13.0413 31.2504 14.1914 31.1902 14.1914C31.1399 14.1914 30.1653 13.2632 29.0299 12.1333C27.8643 10.9731 26.7892 9.98438 26.5681 9.8734C24.9705 9.06631 22.8705 9.64136 21.9059 11.1446C21.4839 11.8104 21.2528 12.7689 21.3332 13.5356C21.4538 14.7765 21.6347 14.9985 25.5835 18.9431C29.7533 23.0997 29.6327 23.0089 31.1902 23.019C32.8179 23.019 32.848 22.9988 36.3447 19.5081L39.2988 16.5622L39.2284 17.3693C38.8064 22.1412 35.2696 26.1465 30.5873 27.1654C29.6026 27.3773 27.2514 27.4075 26.3672 27.2159C21.4739 26.1767 18.0074 22.4036 17.4749 17.5105C17.304 15.9468 17.5351 14.1006 18.0978 12.5973L18.339 11.9618L18.9619 12.6175C19.3036 12.9807 19.6954 13.3036 19.8361 13.3439C20.1375 13.4145 20.5495 13.1825 20.6902 12.8496C20.7504 12.7285 20.9213 11.5784 21.0921 10.3072L21.3935 7.98682L21.7753 7.66398C21.9763 7.48238 22.4787 7.14946 22.8705 6.91742C25.0007 5.69669 27.2715 5.2326 29.6327 5.51509ZM19.9868 6.24147C19.9868 6.46342 19.4744 10.398 19.4241 10.5493C19.394 10.6502 19.2433 10.5594 18.9217 10.2265C18.2284 9.49003 17.706 9.60101 17.2136 10.5897C16.1284 12.7386 15.616 15.3717 15.8672 17.6114C16.3394 21.9597 18.7509 25.5512 22.5088 27.5488C26.0557 29.4253 30.2055 29.4858 33.8026 27.7203C36.8873 26.1969 39.1581 23.6243 40.2332 20.406C40.6954 19.0238 40.816 18.2571 40.8461 16.5218L40.8763 14.8673L41.5595 14.1712C42.0318 13.697 42.2528 13.5255 42.3131 13.6163C42.494 13.9492 42.6145 15.634 42.5643 17.0162C42.4236 20.6179 41.0772 23.7554 38.5653 26.3482C36.4954 28.487 34.1342 29.7986 31.16 30.4543C29.7533 30.7671 27.0002 30.7671 25.5433 30.4543C21.7452 29.6271 18.6002 27.5084 16.5203 24.3809C14.8624 21.889 14.1189 19.4173 14.1189 16.4109C14.1189 13.5659 14.7418 11.3262 16.2088 8.88471C16.7313 8.01708 16.7012 7.75478 15.9978 7.0183C15.6863 6.69547 15.4552 6.42307 15.4753 6.41298C15.4954 6.41298 16.4902 6.34236 17.6758 6.28183C18.8615 6.21121 19.8662 6.14059 19.9165 6.14059C19.9567 6.1305 19.9868 6.18094 19.9868 6.24147Z" fill="white"/>
<path d="M15.1137 30.8881C14.0587 31.1202 13.285 31.5035 9.83861 33.5011L6.47258 35.4583L6.1611 34.9135C5.74914 34.177 5.4678 33.9047 4.95536 33.7029C4.19172 33.4103 3.71948 33.5314 2.18216 34.4091C0.755363 35.2162 0.293162 35.6096 0.0922051 36.2351C-0.169039 37.0321 -0.108752 37.1532 3.51852 43.5797C5.39746 46.9191 7.05536 49.7742 7.19603 49.9255C7.5678 50.3189 8.23096 50.551 8.78359 50.4905C9.22569 50.44 11.2554 49.3908 12.029 48.8258C12.4812 48.4828 12.7826 47.8573 12.7826 47.2217C12.7826 46.798 12.7022 46.5458 12.3606 45.9304C12.1396 45.5167 11.9487 45.1636 11.9487 45.1435C11.9487 45.1233 12.23 44.9619 12.5817 44.7702L13.2046 44.4272L17.9774 45.7185C20.5998 46.4247 23.0917 47.0906 23.5037 47.1915C24.9204 47.5446 26.518 47.3932 27.7037 46.7879C28.829 46.2129 42.8558 37.4962 43.2477 37.1229C43.8104 36.5983 44.1218 35.9123 44.1821 35.0649C44.373 32.3914 42.0721 30.8982 39.2185 31.8365C38.1032 32.2098 37.6912 32.4317 33.2601 35.0144C28.8089 37.6173 28.1659 37.9704 28.0754 37.8897C28.0553 37.8594 28.1056 37.6173 28.186 37.3449C28.4974 36.336 28.186 35.1355 27.4123 34.3586C26.8898 33.834 26.3974 33.602 25.2922 33.3599C23.9156 33.0471 22.2477 32.5427 19.9065 31.7053C17.0228 30.6763 16.4702 30.5855 15.1137 30.8881ZM18.7309 33.0169C21.9262 34.1367 22.6898 34.3788 24.3075 34.7824C25.1616 34.9942 25.9654 35.2565 26.1061 35.3574C26.93 35.9728 26.8697 37.1633 25.9855 37.698C25.4128 38.0511 24.8802 37.9704 21.4439 37.0019C20.4491 36.7194 19.5348 36.4874 19.4042 36.4874C19.0826 36.4874 18.6807 36.9212 18.6807 37.2642C18.6908 37.8796 18.8314 37.9502 21.8558 38.7573C25.051 39.6048 25.6238 39.7157 26.8195 39.7157C27.7238 39.7157 28.3769 39.5745 29.1506 39.2416C29.4018 39.1205 31.5721 37.8796 33.9635 36.4773C36.3649 35.0749 38.7061 33.7634 39.1783 33.5717C40.6855 32.9664 41.7807 33.037 42.3233 33.8038C42.6348 34.2477 42.6448 35.3372 42.3333 35.7509C42.1324 36.0132 28.3869 44.6088 27.1209 45.2544C26.3472 45.658 25.6238 45.7992 24.7697 45.7387C24.2975 45.7084 22.2075 45.1838 18.6104 44.2153C15.6161 43.4082 13.0841 42.7423 12.9836 42.7423C12.8831 42.7423 12.4611 42.9441 12.0491 43.1963C11.6372 43.4486 11.2453 43.6503 11.185 43.6503C11.0946 43.6503 7.32665 37.0826 7.32665 36.9111C7.32665 36.8405 8.27115 36.2755 12.3908 33.8946C13.4558 33.2792 14.5109 32.7545 14.953 32.6032C16.1687 32.2098 16.5506 32.2501 18.7309 33.0169ZM4.64388 35.5491C4.7745 35.761 6.29172 38.4446 8.01995 41.5014C10.1199 45.2242 11.1448 47.1511 11.1247 47.3024C11.0845 47.6253 8.69316 48.9772 8.44196 48.8258C8.18072 48.6644 1.57929 36.901 1.64962 36.7093C1.70991 36.5176 3.96062 35.1859 4.23191 35.1758C4.33239 35.1758 4.51325 35.3473 4.64388 35.5491Z" fill="#D9D9D9"/>
<path d="M15.1137 30.8881C14.0587 31.1202 13.285 31.5035 9.83861 33.5011L6.47258 35.4583L6.1611 34.9135C5.74914 34.177 5.4678 33.9047 4.95536 33.7029C4.19172 33.4103 3.71948 33.5314 2.18216 34.4091C0.755363 35.2162 0.293162 35.6096 0.0922051 36.2351C-0.169039 37.0321 -0.108752 37.1532 3.51852 43.5797C5.39746 46.9191 7.05536 49.7742 7.19603 49.9255C7.5678 50.3189 8.23096 50.551 8.78359 50.4905C9.22569 50.44 11.2554 49.3908 12.029 48.8258C12.4812 48.4828 12.7826 47.8573 12.7826 47.2217C12.7826 46.798 12.7022 46.5458 12.3606 45.9304C12.1396 45.5167 11.9487 45.1636 11.9487 45.1435C11.9487 45.1233 12.23 44.9619 12.5817 44.7702L13.2046 44.4272L17.9774 45.7185C20.5998 46.4247 23.0917 47.0906 23.5037 47.1915C24.9204 47.5446 26.518 47.3932 27.7037 46.7879C28.829 46.2129 42.8558 37.4962 43.2477 37.1229C43.8104 36.5983 44.1218 35.9123 44.1821 35.0649C44.373 32.3914 42.0721 30.8982 39.2185 31.8365C38.1032 32.2098 37.6912 32.4317 33.2601 35.0144C28.8089 37.6173 28.1659 37.9704 28.0754 37.8897C28.0553 37.8594 28.1056 37.6173 28.186 37.3449C28.4974 36.336 28.186 35.1355 27.4123 34.3586C26.8898 33.834 26.3974 33.602 25.2922 33.3599C23.9156 33.0471 22.2477 32.5427 19.9065 31.7053C17.0228 30.6763 16.4702 30.5855 15.1137 30.8881ZM18.7309 33.0169C21.9262 34.1367 22.6898 34.3788 24.3075 34.7824C25.1616 34.9942 25.9654 35.2565 26.1061 35.3574C26.93 35.9728 26.8697 37.1633 25.9855 37.698C25.4128 38.0511 24.8802 37.9704 21.4439 37.0019C20.4491 36.7194 19.5348 36.4874 19.4042 36.4874C19.0826 36.4874 18.6807 36.9212 18.6807 37.2642C18.6908 37.8796 18.8314 37.9502 21.8558 38.7573C25.051 39.6048 25.6238 39.7157 26.8195 39.7157C27.7238 39.7157 28.3769 39.5745 29.1506 39.2416C29.4018 39.1205 31.5721 37.8796 33.9635 36.4773C36.3649 35.0749 38.7061 33.7634 39.1783 33.5717C40.6855 32.9664 41.7807 33.037 42.3233 33.8038C42.6348 34.2477 42.6448 35.3372 42.3333 35.7509C42.1324 36.0132 28.3869 44.6088 27.1209 45.2544C26.3472 45.658 25.6238 45.7992 24.7697 45.7387C24.2975 45.7084 22.2075 45.1838 18.6104 44.2153C15.6161 43.4082 13.0841 42.7423 12.9836 42.7423C12.8831 42.7423 12.4611 42.9441 12.0491 43.1963C11.6372 43.4486 11.2453 43.6503 11.185 43.6503C11.0946 43.6503 7.32665 37.0826 7.32665 36.9111C7.32665 36.8405 8.27115 36.2755 12.3908 33.8946C13.4558 33.2792 14.5109 32.7545 14.953 32.6032C16.1687 32.2098 16.5506 32.2501 18.7309 33.0169ZM4.64388 35.5491C4.7745 35.761 6.29172 38.4446 8.01995 41.5014C10.1199 45.2242 11.1448 47.1511 11.1247 47.3024C11.0845 47.6253 8.69316 48.9772 8.44196 48.8258C8.18072 48.6644 1.57929 36.901 1.64962 36.7093C1.70991 36.5176 3.96062 35.1859 4.23191 35.1758C4.33239 35.1758 4.51325 35.3473 4.64388 35.5491Z" fill="white"/>
<path d="M3.23726 36.8304C2.84539 37.1734 2.84539 37.8191 3.23726 38.1621C4.01094 38.828 5.12625 38.0007 4.6741 37.1028C4.37266 36.5378 3.71955 36.4067 3.23726 36.8304Z" fill="#D9D9D9"/>
<path d="M3.23726 36.8304C2.84539 37.1734 2.84539 37.8191 3.23726 38.1621C4.01094 38.828 5.12625 38.0007 4.6741 37.1028C4.37266 36.5378 3.71955 36.4067 3.23726 36.8304Z" fill="white"/>
</svg>
