<svg width="50" height="51" viewBox="0 0 50 51" fill="none" xmlns="http://www.w3.org/2000/svg">
<path d="M16.5978 0.649837C14.5361 1.02489 12.8076 1.93125 11.2977 3.45228C9.96491 4.78579 9.11107 6.26515 8.6425 8.0883C8.37177 9.08843 8.25723 11.1929 8.43424 11.6304C8.67373 12.193 9.53799 12.3076 9.83995 11.8075C9.93367 11.6721 10.0066 11.0887 10.0378 10.2865C10.1107 8.77589 10.2773 8.06746 10.8396 6.89023C11.6518 5.19209 13.0366 3.81691 14.7339 2.99389C16.0459 2.36881 16.7123 2.22296 18.3367 2.22296C19.9611 2.22296 20.6275 2.36881 21.9395 2.99389C25.0425 4.48367 26.8334 7.59865 26.6356 11.1199C26.5731 12.1096 26.4274 13.1619 26.292 13.6411C26.2607 13.7453 26.1462 13.8286 26.0317 13.8286C25.8651 13.8286 25.8338 13.7557 25.8338 13.2556C25.8338 12.7764 25.7922 12.6306 25.5735 12.4222C25.334 12.1722 25.2507 12.1617 24.1574 12.1617C23.5222 12.1617 22.8037 12.1096 22.5747 12.0367C22.0124 11.87 21.2106 11.0991 20.8566 10.3907C20.3568 9.38013 19.6591 9.39055 19.1177 10.4115C18.7324 11.1408 18.3159 11.5887 17.764 11.8805C17.3683 12.0992 17.1705 12.1096 14.2966 12.1617L11.2353 12.2138L11.0374 12.4639C10.902 12.6306 10.8396 12.8702 10.8396 13.266V13.8286H10.194C9.36097 13.8286 8.62167 14.162 8.12186 14.7558C7.52834 15.4434 7.38256 16.1727 7.62205 17.2874C7.97608 18.9543 9.12148 20.0378 10.9541 20.4336C11.152 20.4753 11.3081 20.6837 11.6622 21.3817C11.9225 21.8922 12.3702 22.5381 12.7243 22.934L13.3386 23.6007V25.9344V28.2576L13.6406 28.7785C14.0675 29.5286 14.6506 30.1328 15.3587 30.5495C16.3166 31.1121 16.9622 31.2684 18.3367 31.2684C19.7112 31.2684 20.3568 31.1121 21.3147 30.5391C22.0957 30.0807 22.5018 29.664 22.9599 28.8931L23.3348 28.268V25.9344V23.6007L23.9491 22.934C24.3032 22.5381 24.7509 21.8922 25.0112 21.3817C25.3653 20.6837 25.5214 20.4753 25.7193 20.4336C26.8543 20.1836 27.6977 19.6835 28.312 18.8709C28.8535 18.1625 29.093 17.4437 29.1034 16.4852C29.1138 15.756 29.0826 15.5893 28.8327 15.1621C28.6661 14.9017 28.3953 14.5683 28.2287 14.4329L27.906 14.1828L28.0934 13.1931C28.3329 11.8388 28.3433 9.2447 28.0934 8.2654C27.8331 7.2236 27.3437 6.07762 26.7918 5.18167C26.1462 4.11904 24.6468 2.65009 23.5535 1.97293C21.5126 0.722763 18.9198 0.2227 16.5978 0.649837ZM20.3672 12.5785C21.1273 13.3702 22.2831 13.8286 23.5118 13.8286H24.1678V16.1518C24.1678 18.8709 24.0845 19.4127 23.5326 20.5795C22.4497 22.8298 20.0027 24.1112 17.4933 23.7466C15.5878 23.4757 13.9634 22.288 13.1408 20.5795C12.5889 19.4127 12.5056 18.8709 12.5056 16.1518V13.8286H14.8276C16.5874 13.8286 17.2954 13.7869 17.764 13.6724C18.4512 13.4848 19.1593 13.0785 19.6383 12.5785C19.8049 12.4118 19.9715 12.2659 20.0027 12.2659C20.034 12.2659 20.2006 12.4118 20.3672 12.5785ZM10.6417 15.5997C10.8187 15.7039 10.8396 15.8393 10.8396 17.1624C10.8396 18.8084 10.8292 18.8188 10.1315 18.3084C9.62129 17.9437 9.28808 17.3395 9.20478 16.6415C9.15272 16.1727 9.17354 16.1102 9.4651 15.8185C9.7983 15.4747 10.2565 15.3913 10.6417 15.5997ZM27.2083 15.8185C27.4999 16.1102 27.5207 16.1727 27.4686 16.6623C27.3853 17.3187 26.9792 18.0167 26.4794 18.3605C25.8442 18.798 25.8338 18.7876 25.8338 17.1624C25.8338 15.558 25.8547 15.5059 26.5419 15.4955C26.7918 15.4955 26.9792 15.5788 27.2083 15.8185ZM15.6294 24.9863C16.3791 25.2676 17.5766 25.4968 18.3367 25.4968C19.0968 25.4968 20.2943 25.2676 21.044 24.9863C21.3564 24.8613 21.6271 24.7675 21.6479 24.7675C21.6583 24.7675 21.6688 25.4655 21.6688 26.3198V27.8721L21.3251 28.3305C19.9819 30.1016 16.6915 30.1016 15.3483 28.3305L15.0046 27.8721V26.3198C15.0046 25.4655 15.0151 24.7675 15.0359 24.7675C15.0463 24.7675 15.317 24.8613 15.6294 24.9863Z" fill="#D9D9D9"/>
<path d="M16.5978 0.649837C14.5361 1.02489 12.8076 1.93125 11.2977 3.45228C9.96491 4.78579 9.11107 6.26515 8.6425 8.0883C8.37177 9.08843 8.25723 11.1929 8.43424 11.6304C8.67373 12.193 9.53799 12.3076 9.83995 11.8075C9.93367 11.6721 10.0066 11.0887 10.0378 10.2865C10.1107 8.77589 10.2773 8.06746 10.8396 6.89023C11.6518 5.19209 13.0366 3.81691 14.7339 2.99389C16.0459 2.36881 16.7123 2.22296 18.3367 2.22296C19.9611 2.22296 20.6275 2.36881 21.9395 2.99389C25.0425 4.48367 26.8334 7.59865 26.6356 11.1199C26.5731 12.1096 26.4274 13.1619 26.292 13.6411C26.2607 13.7453 26.1462 13.8286 26.0317 13.8286C25.8651 13.8286 25.8338 13.7557 25.8338 13.2556C25.8338 12.7764 25.7922 12.6306 25.5735 12.4222C25.334 12.1722 25.2507 12.1617 24.1574 12.1617C23.5222 12.1617 22.8037 12.1096 22.5747 12.0367C22.0124 11.87 21.2106 11.0991 20.8566 10.3907C20.3568 9.38013 19.6591 9.39055 19.1177 10.4115C18.7324 11.1408 18.3159 11.5887 17.764 11.8805C17.3683 12.0992 17.1705 12.1096 14.2966 12.1617L11.2353 12.2138L11.0374 12.4639C10.902 12.6306 10.8396 12.8702 10.8396 13.266V13.8286H10.194C9.36097 13.8286 8.62167 14.162 8.12186 14.7558C7.52834 15.4434 7.38256 16.1727 7.62205 17.2874C7.97608 18.9543 9.12148 20.0378 10.9541 20.4336C11.152 20.4753 11.3081 20.6837 11.6622 21.3817C11.9225 21.8922 12.3702 22.5381 12.7243 22.934L13.3386 23.6007V25.9344V28.2576L13.6406 28.7785C14.0675 29.5286 14.6506 30.1328 15.3587 30.5495C16.3166 31.1121 16.9622 31.2684 18.3367 31.2684C19.7112 31.2684 20.3568 31.1121 21.3147 30.5391C22.0957 30.0807 22.5018 29.664 22.9599 28.8931L23.3348 28.268V25.9344V23.6007L23.9491 22.934C24.3032 22.5381 24.7509 21.8922 25.0112 21.3817C25.3653 20.6837 25.5214 20.4753 25.7193 20.4336C26.8543 20.1836 27.6977 19.6835 28.312 18.8709C28.8535 18.1625 29.093 17.4437 29.1034 16.4852C29.1138 15.756 29.0826 15.5893 28.8327 15.1621C28.6661 14.9017 28.3953 14.5683 28.2287 14.4329L27.906 14.1828L28.0934 13.1931C28.3329 11.8388 28.3433 9.2447 28.0934 8.2654C27.8331 7.2236 27.3437 6.07762 26.7918 5.18167C26.1462 4.11904 24.6468 2.65009 23.5535 1.97293C21.5126 0.722763 18.9198 0.2227 16.5978 0.649837ZM20.3672 12.5785C21.1273 13.3702 22.2831 13.8286 23.5118 13.8286H24.1678V16.1518C24.1678 18.8709 24.0845 19.4127 23.5326 20.5795C22.4497 22.8298 20.0027 24.1112 17.4933 23.7466C15.5878 23.4757 13.9634 22.288 13.1408 20.5795C12.5889 19.4127 12.5056 18.8709 12.5056 16.1518V13.8286H14.8276C16.5874 13.8286 17.2954 13.7869 17.764 13.6724C18.4512 13.4848 19.1593 13.0785 19.6383 12.5785C19.8049 12.4118 19.9715 12.2659 20.0027 12.2659C20.034 12.2659 20.2006 12.4118 20.3672 12.5785ZM10.6417 15.5997C10.8187 15.7039 10.8396 15.8393 10.8396 17.1624C10.8396 18.8084 10.8292 18.8188 10.1315 18.3084C9.62129 17.9437 9.28808 17.3395 9.20478 16.6415C9.15272 16.1727 9.17354 16.1102 9.4651 15.8185C9.7983 15.4747 10.2565 15.3913 10.6417 15.5997ZM27.2083 15.8185C27.4999 16.1102 27.5207 16.1727 27.4686 16.6623C27.3853 17.3187 26.9792 18.0167 26.4794 18.3605C25.8442 18.798 25.8338 18.7876 25.8338 17.1624C25.8338 15.558 25.8547 15.5059 26.5419 15.4955C26.7918 15.4955 26.9792 15.5788 27.2083 15.8185ZM15.6294 24.9863C16.3791 25.2676 17.5766 25.4968 18.3367 25.4968C19.0968 25.4968 20.2943 25.2676 21.044 24.9863C21.3564 24.8613 21.6271 24.7675 21.6479 24.7675C21.6583 24.7675 21.6688 25.4655 21.6688 26.3198V27.8721L21.3251 28.3305C19.9819 30.1016 16.6915 30.1016 15.3483 28.3305L15.0046 27.8721V26.3198C15.0046 25.4655 15.0151 24.7675 15.0359 24.7675C15.0463 24.7675 15.317 24.8613 15.6294 24.9863Z" fill="white"/>
<path d="M35.2575 4.0878C35.0389 4.29615 34.9972 4.44201 34.9972 4.92123V5.49422H34.4141C34.0913 5.49422 33.6331 5.54632 33.3937 5.61924C32.821 5.78593 31.9567 6.65063 31.7901 7.22362C31.5923 7.89037 31.6235 14.2662 31.8213 15.4434C32.4461 18.996 35.2055 21.9234 38.7145 22.7256C39.0998 22.8194 39.5371 22.9027 39.6829 22.9131L39.9432 22.9444L39.9745 28.9868C39.9953 35.7794 40.0161 35.6648 39.256 36.4253C38.7354 36.9358 38.0377 37.1858 37.2151 37.1441L36.6112 37.1129L36.5383 36.4878C36.3404 34.9355 35.5178 32.8936 34.5599 31.5913C32.8418 29.2785 30.1553 27.6638 27.3543 27.2783C26.0215 27.0908 25.5529 27.122 25.2614 27.4241C24.9177 27.7575 24.9177 28.2367 25.2614 28.5701C25.4696 28.7889 25.6154 28.8306 26.1152 28.8306C26.9066 28.8306 28.4268 29.1535 29.2702 29.4973C32.2274 30.7058 34.4141 33.4457 34.8723 36.5086L34.966 37.165H30.7697H26.5734L26.3234 36.6128C26.0111 35.9252 25.48 35.3835 24.7615 35.0084C24.293 34.7688 24.0951 34.7272 23.335 34.7272C22.5749 34.7272 22.377 34.7688 21.9085 35.0084C21.2212 35.3627 20.7006 35.8836 20.3466 36.5711C20.1071 37.04 20.0654 37.2379 20.0654 37.9984C20.0654 38.7589 20.1071 38.9569 20.3466 39.4257C20.9713 40.6342 22.0126 41.2801 23.335 41.2801C23.9598 41.2801 24.2305 41.228 24.6887 41.0092C25.4071 40.6654 26.0007 40.082 26.3234 39.384L26.5734 38.8423L32.5294 38.811L38.4855 38.7798L39.1831 38.4464C40.1515 37.988 40.7554 37.4046 41.224 36.4566L41.6093 35.6648L41.6613 29.3098L41.7134 22.9444L42.0258 22.9131C42.2028 22.8923 42.6922 22.7985 43.1191 22.6839C46.5449 21.8192 49.2209 18.923 49.8353 15.4434C50.0331 14.2662 50.0644 7.90079 49.8665 7.22362C49.6999 6.65063 48.8357 5.78593 48.263 5.61924C48.0235 5.54632 47.5653 5.49422 47.2425 5.49422H46.6594V4.92123C46.6594 4.22323 46.3574 3.82734 45.8264 3.82734C45.6286 3.82734 45.4099 3.92111 45.2537 4.0878C44.9934 4.33783 44.9934 4.35866 44.9934 6.30683C44.9934 8.08831 45.0142 8.30709 45.1912 8.52587C45.337 8.71339 45.4932 8.7759 45.8264 8.7759C46.4303 8.7759 46.6594 8.4842 46.6594 7.72368V7.16111H47.2321C47.7111 7.16111 47.8569 7.20278 48.0755 7.42156L48.3359 7.68201L48.3046 11.4637C48.263 15.0684 48.2526 15.2663 48.0235 15.9643C47.5757 17.3187 47.1072 18.0792 46.0971 19.0897C45.0559 20.1315 44.2541 20.6108 42.9108 21.0275C41.7863 21.3817 39.8703 21.3817 38.7458 21.0275C36.2155 20.2461 34.4766 18.5167 33.6331 15.9643C33.4041 15.2663 33.3937 15.0684 33.352 11.4637L33.3208 7.68201L33.5811 7.42156C33.7998 7.20278 33.9455 7.16111 34.4245 7.16111H34.9972V7.7341C34.9972 8.43211 35.2992 8.82799 35.8302 8.82799C36.0281 8.82799 36.2467 8.73423 36.4029 8.56754C36.6632 8.31751 36.6632 8.29667 36.6632 6.32767C36.6632 4.35866 36.6632 4.33783 36.4029 4.0878C36.2467 3.92111 36.0281 3.82734 35.8302 3.82734C35.6324 3.82734 35.4137 3.92111 35.2575 4.0878ZM23.991 36.4774C25.0635 36.9254 25.3238 38.3214 24.4908 39.1548C23.814 39.832 22.856 39.832 22.1792 39.1548C20.888 37.8734 22.3146 35.769 23.991 36.4774Z" fill="#D9D9D9"/>
<path d="M35.2575 4.0878C35.0389 4.29615 34.9972 4.44201 34.9972 4.92123V5.49422H34.4141C34.0913 5.49422 33.6331 5.54632 33.3937 5.61924C32.821 5.78593 31.9567 6.65063 31.7901 7.22362C31.5923 7.89037 31.6235 14.2662 31.8213 15.4434C32.4461 18.996 35.2055 21.9234 38.7145 22.7256C39.0998 22.8194 39.5371 22.9027 39.6829 22.9131L39.9432 22.9444L39.9745 28.9868C39.9953 35.7794 40.0161 35.6648 39.256 36.4253C38.7354 36.9358 38.0377 37.1858 37.2151 37.1441L36.6112 37.1129L36.5383 36.4878C36.3404 34.9355 35.5178 32.8936 34.5599 31.5913C32.8418 29.2785 30.1553 27.6638 27.3543 27.2783C26.0215 27.0908 25.5529 27.122 25.2614 27.4241C24.9177 27.7575 24.9177 28.2367 25.2614 28.5701C25.4696 28.7889 25.6154 28.8306 26.1152 28.8306C26.9066 28.8306 28.4268 29.1535 29.2702 29.4973C32.2274 30.7058 34.4141 33.4457 34.8723 36.5086L34.966 37.165H30.7697H26.5734L26.3234 36.6128C26.0111 35.9252 25.48 35.3835 24.7615 35.0084C24.293 34.7688 24.0951 34.7272 23.335 34.7272C22.5749 34.7272 22.377 34.7688 21.9085 35.0084C21.2212 35.3627 20.7006 35.8836 20.3466 36.5711C20.1071 37.04 20.0654 37.2379 20.0654 37.9984C20.0654 38.7589 20.1071 38.9569 20.3466 39.4257C20.9713 40.6342 22.0126 41.2801 23.335 41.2801C23.9598 41.2801 24.2305 41.228 24.6887 41.0092C25.4071 40.6654 26.0007 40.082 26.3234 39.384L26.5734 38.8423L32.5294 38.811L38.4855 38.7798L39.1831 38.4464C40.1515 37.988 40.7554 37.4046 41.224 36.4566L41.6093 35.6648L41.6613 29.3098L41.7134 22.9444L42.0258 22.9131C42.2028 22.8923 42.6922 22.7985 43.1191 22.6839C46.5449 21.8192 49.2209 18.923 49.8353 15.4434C50.0331 14.2662 50.0644 7.90079 49.8665 7.22362C49.6999 6.65063 48.8357 5.78593 48.263 5.61924C48.0235 5.54632 47.5653 5.49422 47.2425 5.49422H46.6594V4.92123C46.6594 4.22323 46.3574 3.82734 45.8264 3.82734C45.6286 3.82734 45.4099 3.92111 45.2537 4.0878C44.9934 4.33783 44.9934 4.35866 44.9934 6.30683C44.9934 8.08831 45.0142 8.30709 45.1912 8.52587C45.337 8.71339 45.4932 8.7759 45.8264 8.7759C46.4303 8.7759 46.6594 8.4842 46.6594 7.72368V7.16111H47.2321C47.7111 7.16111 47.8569 7.20278 48.0755 7.42156L48.3359 7.68201L48.3046 11.4637C48.263 15.0684 48.2526 15.2663 48.0235 15.9643C47.5757 17.3187 47.1072 18.0792 46.0971 19.0897C45.0559 20.1315 44.2541 20.6108 42.9108 21.0275C41.7863 21.3817 39.8703 21.3817 38.7458 21.0275C36.2155 20.2461 34.4766 18.5167 33.6331 15.9643C33.4041 15.2663 33.3937 15.0684 33.352 11.4637L33.3208 7.68201L33.5811 7.42156C33.7998 7.20278 33.9455 7.16111 34.4245 7.16111H34.9972V7.7341C34.9972 8.43211 35.2992 8.82799 35.8302 8.82799C36.0281 8.82799 36.2467 8.73423 36.4029 8.56754C36.6632 8.31751 36.6632 8.29667 36.6632 6.32767C36.6632 4.35866 36.6632 4.33783 36.4029 4.0878C36.2467 3.92111 36.0281 3.82734 35.8302 3.82734C35.6324 3.82734 35.4137 3.92111 35.2575 4.0878ZM23.991 36.4774C25.0635 36.9254 25.3238 38.3214 24.4908 39.1548C23.814 39.832 22.856 39.832 22.1792 39.1548C20.888 37.8734 22.3146 35.769 23.991 36.4774Z" fill="white"/>
<path d="M9.22563 27.2783C5.62285 27.7992 2.24914 30.4245 0.885078 33.7687C0.0416507 35.8419 0.0728888 35.4564 0.031238 43.124L0 49.9791L0.260317 50.2395L0.520634 50.5H18.3367H36.1528L36.4027 50.2395L36.663 49.9895V45.4994V41.0092L36.4027 40.7592C36.0695 40.4154 35.5905 40.4154 35.2573 40.7592C35.0074 40.9988 34.997 41.0613 34.997 42.426V43.8325H32.9145H30.8319V42.4365C30.8319 41.1863 30.8111 41.0196 30.6133 40.7696C30.3217 40.4049 29.7803 40.3945 29.4262 40.7592L29.1659 41.0092V44.9264V48.8331H18.3367H7.50754V44.9264V41.0092L7.24722 40.7592C6.91402 40.4154 6.43504 40.4154 6.10183 40.7592C5.85193 40.9988 5.84151 41.0613 5.84151 42.426V43.8325H3.74856H1.65562L1.69727 40.1549C1.73892 36.7795 1.75974 36.4253 1.968 35.6543C3.01968 31.8309 6.3205 29.1327 10.2669 28.8618C11.0479 28.8097 11.2353 28.7576 11.4331 28.5597C11.7559 28.2367 11.7455 27.7471 11.4123 27.4241C11.1936 27.1949 11.0687 27.1637 10.5064 27.1741C10.1419 27.1845 9.56925 27.2262 9.22563 27.2783ZM5.84151 47.1662V48.8331H3.75898H1.67644V47.1662V45.4994H3.75898H5.84151V47.1662ZM34.997 47.1662V48.8331H32.9145H30.8319V47.1662V45.4994H32.9145H34.997V47.1662Z" fill="#D9D9D9"/>
<path d="M9.22563 27.2783C5.62285 27.7992 2.24914 30.4245 0.885078 33.7687C0.0416507 35.8419 0.0728888 35.4564 0.031238 43.124L0 49.9791L0.260317 50.2395L0.520634 50.5H18.3367H36.1528L36.4027 50.2395L36.663 49.9895V45.4994V41.0092L36.4027 40.7592C36.0695 40.4154 35.5905 40.4154 35.2573 40.7592C35.0074 40.9988 34.997 41.0613 34.997 42.426V43.8325H32.9145H30.8319V42.4365C30.8319 41.1863 30.8111 41.0196 30.6133 40.7696C30.3217 40.4049 29.7803 40.3945 29.4262 40.7592L29.1659 41.0092V44.9264V48.8331H18.3367H7.50754V44.9264V41.0092L7.24722 40.7592C6.91402 40.4154 6.43504 40.4154 6.10183 40.7592C5.85193 40.9988 5.84151 41.0613 5.84151 42.426V43.8325H3.74856H1.65562L1.69727 40.1549C1.73892 36.7795 1.75974 36.4253 1.968 35.6543C3.01968 31.8309 6.3205 29.1327 10.2669 28.8618C11.0479 28.8097 11.2353 28.7576 11.4331 28.5597C11.7559 28.2367 11.7455 27.7471 11.4123 27.4241C11.1936 27.1949 11.0687 27.1637 10.5064 27.1741C10.1419 27.1845 9.56925 27.2262 9.22563 27.2783ZM5.84151 47.1662V48.8331H3.75898H1.67644V47.1662V45.4994H3.75898H5.84151V47.1662ZM34.997 47.1662V48.8331H32.9145H30.8319V47.1662V45.4994H32.9145H34.997V47.1662Z" fill="white"/>
</svg>
