<svg width="48" height="50" viewBox="0 0 48 50" fill="none" xmlns="http://www.w3.org/2000/svg">
<path d="M0 5C0 2.23858 2.23858 0 5 0H42.5248C45.2862 0 47.5248 2.23858 47.5248 5V45C47.5248 47.7614 45.2862 50 42.5248 50H5C2.23857 50 0 47.7614 0 45V5Z" fill="#D9D9D9"/>
<path d="M0 5C0 2.23858 2.23858 0 5 0H42.5248C45.2862 0 47.5248 2.23858 47.5248 5V45C47.5248 47.7614 45.2862 50 42.5248 50H5C2.23857 50 0 47.7614 0 45V5Z" fill="#006EFF"/>
<path d="M36.088 5.05509C35.7535 5.1512 35.3455 5.54366 35.2476 5.86403C35.1089 6.32057 35.215 6.71303 35.5822 7.10549L35.9004 7.44188L34.8478 8.47509L33.7952 9.50029L33.3057 9.05177C32.7753 8.5712 32.4816 8.45907 31.9104 8.53917C31.0619 8.65129 30.5397 9.58839 30.8823 10.3893L30.9966 10.6536L28.4916 13.1045L25.9949 15.5554L25.4237 15.6755C24.363 15.8998 23.3594 16.3163 22.4455 16.925C21.6622 17.4456 21.3032 17.5898 20.6831 17.6298C19.8998 17.6779 19.3776 17.5177 18.529 16.957C17.6805 16.4044 16.8727 16.0199 16.0731 15.8117C12.3605 14.8185 8.56643 16.4765 6.8448 19.8484C5.90647 21.6745 5.74329 23.757 6.38788 25.7353C6.60002 26.3921 6.89376 26.9687 7.59547 28.1061C8.24006 29.1633 8.6725 30.1324 8.95808 31.1817C9.13759 31.8465 9.17023 32.1909 9.22734 33.9049C9.34157 37.1567 9.70875 38.7505 10.8674 40.9691C11.6833 42.5149 13.2826 44.3731 14.1719 44.8056C14.9634 45.1821 16.0241 44.9979 16.6524 44.3731C17.2154 43.8125 17.248 43.6683 17.3133 41.5939C17.4194 38.326 17.8844 35.9152 18.7493 34.1692C19.8917 31.8705 21.5317 32.1748 22.5353 34.874C23.2125 36.7001 23.5552 39.0309 23.6205 42.2747C23.6368 43.3079 23.6531 43.428 23.8571 43.8045C24.412 44.8617 25.7093 45.2942 26.7945 44.7736C27.333 44.5093 28.4345 43.412 29.1689 42.4028C30.7192 40.2803 31.6656 37.3169 31.6656 34.5857C31.6738 32.295 32.1715 30.2526 33.1833 28.4104C34.7091 25.6312 34.8886 25.0865 34.8804 23.2924C34.8804 22.3073 34.8478 21.9709 34.7009 21.4102C34.3664 20.1768 33.6157 18.8472 32.7345 17.9422L32.4489 17.6458L33.8605 16.2522L35.2803 14.8586L35.5495 14.9707C36.4307 15.3311 37.4507 14.6824 37.4588 13.7453C37.4588 13.2647 37.3527 13.0484 36.8713 12.5519L36.447 12.1113L37.4996 11.0781L38.5522 10.0369L38.8459 10.3172C39.2131 10.6697 39.5313 10.7818 39.9637 10.7177C40.6655 10.6136 41.1469 9.87673 40.9592 9.19593C40.8858 8.93163 40.5349 8.54718 39.0662 7.08146C37.0182 5.05509 36.7489 4.87087 36.088 5.05509ZM38.3727 7.61008C40.1351 9.3401 40.2901 9.54835 40.0535 9.78062C39.7761 10.0529 39.5803 9.90877 37.8097 8.17874C36.0309 6.44071 35.8841 6.24848 36.1696 5.96815C36.4063 5.73588 36.6184 5.89607 38.3727 7.61008ZM36.8877 10.4774L35.8269 11.5187L35.1171 10.8138L34.399 10.117L35.4598 9.07579L36.5205 8.03457L37.2303 8.73139L37.9484 9.43621L36.8877 10.4774ZM34.497 11.4225C35.9575 12.8482 36.6429 13.5771 36.6429 13.6972C36.6429 13.9775 36.3736 14.2258 36.0799 14.2258C35.8433 14.2258 35.5985 14.0176 33.7463 12.1914C32.4245 10.8939 31.6575 10.077 31.6249 9.94081C31.5841 9.77261 31.6167 9.6765 31.7799 9.52432C31.8941 9.40418 32.0655 9.31607 32.1715 9.31607C32.3021 9.31607 32.9548 9.90076 34.497 11.4225ZM33.6892 15.219L32.6937 16.1961L32.1471 15.6835C31.5922 15.1629 31.323 15.0508 31.1108 15.259C30.8823 15.4833 31.0047 15.7556 31.5433 16.2842L32.0736 16.8048L31.323 17.5417L30.5723 18.2786L29.9848 17.7259C29.5442 17.3014 29.3565 17.1733 29.2423 17.2133C28.7283 17.3975 28.7772 17.6458 29.4381 18.3026L29.993 18.8472L29.2342 19.5841L28.4835 20.329L27.9205 19.7763C27.4391 19.3038 27.3249 19.2317 27.1454 19.2797C26.8679 19.3438 26.7374 19.5921 26.8598 19.8244C26.9087 19.9285 27.1617 20.2168 27.4065 20.4731L27.8715 20.9297L26.9903 21.7947L26.1173 22.6517L24.5915 21.1459L23.0575 19.6482L27.3412 15.4433L31.6249 11.2383L33.1507 12.7361L34.6846 14.2418L33.6892 15.219ZM15.7141 16.5646C16.4892 16.7728 17.1256 17.0692 17.9171 17.5737C18.8391 18.1584 19.2389 18.3346 19.9406 18.4468C20.9197 18.615 21.7846 18.3827 22.878 17.6458C23.4247 17.2854 24.6078 16.6847 24.7873 16.6847C24.8199 16.6847 23.9632 17.5577 22.878 18.623C21.597 19.8885 20.8626 20.6734 20.781 20.8656C20.6178 21.25 20.6178 21.8908 20.7729 22.2752C20.8463 22.4354 21.0829 22.7558 21.3032 22.9721L21.7112 23.3725L20.1283 24.9264L18.5454 26.4802L18.1455 26.312C17.5499 26.0637 17.0767 26.0236 16.4974 26.1678C15.2734 26.4722 14.5391 27.4012 14.5309 28.6187C14.5309 30.0604 15.5998 31.1256 17.0685 31.1336C17.6233 31.1416 17.7457 31.1096 18.2516 30.8613C19.5326 30.2205 20.0385 28.7068 19.3939 27.4733L19.1736 27.0649L20.7484 25.519L22.3232 23.9732L22.7311 24.3737C23.1962 24.8222 23.596 25.0145 24.0856 25.0145C24.9178 25.0145 24.8526 25.0705 28.459 21.5384L31.8288 18.2545L32.1226 18.5269C32.5632 18.9433 33.1017 19.7203 33.4199 20.4011C33.8687 21.3462 34.0563 22.2432 34.0563 23.3725C34.0482 24.8463 33.7708 25.6872 32.6448 27.6175C31.5188 29.5478 30.8497 31.9426 30.8497 34.049C30.8497 37.7253 29.6584 40.857 27.3657 43.1957C26.5252 44.0608 26.2641 44.2049 25.6522 44.1328C25.2361 44.0928 24.9342 43.9006 24.6812 43.5321C24.5262 43.3159 24.5099 43.1317 24.4609 41.6179C24.3059 36.4759 23.1309 32.8797 21.3277 31.9906C20.8789 31.7744 20.0956 31.7664 19.6224 31.9746C17.7621 32.7996 16.5545 36.604 16.4647 41.8742C16.4402 43.38 16.3831 43.5962 15.9099 43.9246C15.5345 44.1889 14.8981 44.2209 14.4738 44.0127C13.6905 43.6122 12.1239 41.6499 11.3977 40.1442C10.5002 38.302 10.2228 37.0125 10.1249 34.3454C10.0106 31.0535 9.63531 29.788 8.06055 27.2331C7.51387 26.36 7.28541 25.8474 7.04063 24.9744C6.8448 24.2776 6.85296 22.2833 7.05695 21.5704C7.29357 20.7535 7.94632 19.504 8.44404 18.9113C9.51292 17.6458 11.0958 16.7248 12.6706 16.4444C13.2989 16.3403 15.1347 16.4124 15.7141 16.5646ZM23.9958 21.7707L25.5053 23.2604L25.0484 23.6929C24.518 24.1975 24.1672 24.3016 23.7266 24.0934C23.5715 24.0213 23.0167 23.5407 22.5027 23.0201C21.5235 22.043 21.3685 21.7707 21.5072 21.3221C21.5643 21.1459 22.3395 20.2889 22.4374 20.2889C22.4619 20.2889 23.1636 20.9537 23.9958 21.7707ZM17.6805 27.0168L17.9008 27.1049L17.2725 27.7296C16.9298 28.074 16.6524 28.4184 16.6524 28.4905C16.6524 28.5626 16.7258 28.6908 16.8156 28.7789C16.9053 28.867 17.0359 28.939 17.1093 28.939C17.1827 28.939 17.5336 28.6587 17.8926 28.3223C18.5943 27.6495 18.6106 27.6415 18.782 28.2502C18.8799 28.5946 18.8228 29.0031 18.6351 29.3796C18.3251 29.9803 17.7947 30.3006 17.1093 30.3006C16.5626 30.3006 16.3505 30.2286 15.9588 29.8842C15.0042 29.0672 15.2082 27.6656 16.3668 27.0729C16.6442 26.9207 17.3541 26.8967 17.6805 27.0168Z" fill="#D9D9D9"/>
<path d="M36.088 5.05509C35.7535 5.1512 35.3455 5.54366 35.2476 5.86403C35.1089 6.32057 35.215 6.71303 35.5822 7.10549L35.9004 7.44188L34.8478 8.47509L33.7952 9.50029L33.3057 9.05177C32.7753 8.5712 32.4816 8.45907 31.9104 8.53917C31.0619 8.65129 30.5397 9.58839 30.8823 10.3893L30.9966 10.6536L28.4916 13.1045L25.9949 15.5554L25.4237 15.6755C24.363 15.8998 23.3594 16.3163 22.4455 16.925C21.6622 17.4456 21.3032 17.5898 20.6831 17.6298C19.8998 17.6779 19.3776 17.5177 18.529 16.957C17.6805 16.4044 16.8727 16.0199 16.0731 15.8117C12.3605 14.8185 8.56643 16.4765 6.8448 19.8484C5.90647 21.6745 5.74329 23.757 6.38788 25.7353C6.60002 26.3921 6.89376 26.9687 7.59547 28.1061C8.24006 29.1633 8.6725 30.1324 8.95808 31.1817C9.13759 31.8465 9.17023 32.1909 9.22734 33.9049C9.34157 37.1567 9.70875 38.7505 10.8674 40.9691C11.6833 42.5149 13.2826 44.3731 14.1719 44.8056C14.9634 45.1821 16.0241 44.9979 16.6524 44.3731C17.2154 43.8125 17.248 43.6683 17.3133 41.5939C17.4194 38.326 17.8844 35.9152 18.7493 34.1692C19.8917 31.8705 21.5317 32.1748 22.5353 34.874C23.2125 36.7001 23.5552 39.0309 23.6205 42.2747C23.6368 43.3079 23.6531 43.428 23.8571 43.8045C24.412 44.8617 25.7093 45.2942 26.7945 44.7736C27.333 44.5093 28.4345 43.412 29.1689 42.4028C30.7192 40.2803 31.6656 37.3169 31.6656 34.5857C31.6738 32.295 32.1715 30.2526 33.1833 28.4104C34.7091 25.6312 34.8886 25.0865 34.8804 23.2924C34.8804 22.3073 34.8478 21.9709 34.7009 21.4102C34.3664 20.1768 33.6157 18.8472 32.7345 17.9422L32.4489 17.6458L33.8605 16.2522L35.2803 14.8586L35.5495 14.9707C36.4307 15.3311 37.4507 14.6824 37.4588 13.7453C37.4588 13.2647 37.3527 13.0484 36.8713 12.5519L36.447 12.1113L37.4996 11.0781L38.5522 10.0369L38.8459 10.3172C39.2131 10.6697 39.5313 10.7818 39.9637 10.7177C40.6655 10.6136 41.1469 9.87673 40.9592 9.19593C40.8858 8.93163 40.5349 8.54718 39.0662 7.08146C37.0182 5.05509 36.7489 4.87087 36.088 5.05509ZM38.3727 7.61008C40.1351 9.3401 40.2901 9.54835 40.0535 9.78062C39.7761 10.0529 39.5803 9.90877 37.8097 8.17874C36.0309 6.44071 35.8841 6.24848 36.1696 5.96815C36.4063 5.73588 36.6184 5.89607 38.3727 7.61008ZM36.8877 10.4774L35.8269 11.5187L35.1171 10.8138L34.399 10.117L35.4598 9.07579L36.5205 8.03457L37.2303 8.73139L37.9484 9.43621L36.8877 10.4774ZM34.497 11.4225C35.9575 12.8482 36.6429 13.5771 36.6429 13.6972C36.6429 13.9775 36.3736 14.2258 36.0799 14.2258C35.8433 14.2258 35.5985 14.0176 33.7463 12.1914C32.4245 10.8939 31.6575 10.077 31.6249 9.94081C31.5841 9.77261 31.6167 9.6765 31.7799 9.52432C31.8941 9.40418 32.0655 9.31607 32.1715 9.31607C32.3021 9.31607 32.9548 9.90076 34.497 11.4225ZM33.6892 15.219L32.6937 16.1961L32.1471 15.6835C31.5922 15.1629 31.323 15.0508 31.1108 15.259C30.8823 15.4833 31.0047 15.7556 31.5433 16.2842L32.0736 16.8048L31.323 17.5417L30.5723 18.2786L29.9848 17.7259C29.5442 17.3014 29.3565 17.1733 29.2423 17.2133C28.7283 17.3975 28.7772 17.6458 29.4381 18.3026L29.993 18.8472L29.2342 19.5841L28.4835 20.329L27.9205 19.7763C27.4391 19.3038 27.3249 19.2317 27.1454 19.2797C26.8679 19.3438 26.7374 19.5921 26.8598 19.8244C26.9087 19.9285 27.1617 20.2168 27.4065 20.4731L27.8715 20.9297L26.9903 21.7947L26.1173 22.6517L24.5915 21.1459L23.0575 19.6482L27.3412 15.4433L31.6249 11.2383L33.1507 12.7361L34.6846 14.2418L33.6892 15.219ZM15.7141 16.5646C16.4892 16.7728 17.1256 17.0692 17.9171 17.5737C18.8391 18.1584 19.2389 18.3346 19.9406 18.4468C20.9197 18.615 21.7846 18.3827 22.878 17.6458C23.4247 17.2854 24.6078 16.6847 24.7873 16.6847C24.8199 16.6847 23.9632 17.5577 22.878 18.623C21.597 19.8885 20.8626 20.6734 20.781 20.8656C20.6178 21.25 20.6178 21.8908 20.7729 22.2752C20.8463 22.4354 21.0829 22.7558 21.3032 22.9721L21.7112 23.3725L20.1283 24.9264L18.5454 26.4802L18.1455 26.312C17.5499 26.0637 17.0767 26.0236 16.4974 26.1678C15.2734 26.4722 14.5391 27.4012 14.5309 28.6187C14.5309 30.0604 15.5998 31.1256 17.0685 31.1336C17.6233 31.1416 17.7457 31.1096 18.2516 30.8613C19.5326 30.2205 20.0385 28.7068 19.3939 27.4733L19.1736 27.0649L20.7484 25.519L22.3232 23.9732L22.7311 24.3737C23.1962 24.8222 23.596 25.0145 24.0856 25.0145C24.9178 25.0145 24.8526 25.0705 28.459 21.5384L31.8288 18.2545L32.1226 18.5269C32.5632 18.9433 33.1017 19.7203 33.4199 20.4011C33.8687 21.3462 34.0563 22.2432 34.0563 23.3725C34.0482 24.8463 33.7708 25.6872 32.6448 27.6175C31.5188 29.5478 30.8497 31.9426 30.8497 34.049C30.8497 37.7253 29.6584 40.857 27.3657 43.1957C26.5252 44.0608 26.2641 44.2049 25.6522 44.1328C25.2361 44.0928 24.9342 43.9006 24.6812 43.5321C24.5262 43.3159 24.5099 43.1317 24.4609 41.6179C24.3059 36.4759 23.1309 32.8797 21.3277 31.9906C20.8789 31.7744 20.0956 31.7664 19.6224 31.9746C17.7621 32.7996 16.5545 36.604 16.4647 41.8742C16.4402 43.38 16.3831 43.5962 15.9099 43.9246C15.5345 44.1889 14.8981 44.2209 14.4738 44.0127C13.6905 43.6122 12.1239 41.6499 11.3977 40.1442C10.5002 38.302 10.2228 37.0125 10.1249 34.3454C10.0106 31.0535 9.63531 29.788 8.06055 27.2331C7.51387 26.36 7.28541 25.8474 7.04063 24.9744C6.8448 24.2776 6.85296 22.2833 7.05695 21.5704C7.29357 20.7535 7.94632 19.504 8.44404 18.9113C9.51292 17.6458 11.0958 16.7248 12.6706 16.4444C13.2989 16.3403 15.1347 16.4124 15.7141 16.5646ZM23.9958 21.7707L25.5053 23.2604L25.0484 23.6929C24.518 24.1975 24.1672 24.3016 23.7266 24.0934C23.5715 24.0213 23.0167 23.5407 22.5027 23.0201C21.5235 22.043 21.3685 21.7707 21.5072 21.3221C21.5643 21.1459 22.3395 20.2889 22.4374 20.2889C22.4619 20.2889 23.1636 20.9537 23.9958 21.7707ZM17.6805 27.0168L17.9008 27.1049L17.2725 27.7296C16.9298 28.074 16.6524 28.4184 16.6524 28.4905C16.6524 28.5626 16.7258 28.6908 16.8156 28.7789C16.9053 28.867 17.0359 28.939 17.1093 28.939C17.1827 28.939 17.5336 28.6587 17.8926 28.3223C18.5943 27.6495 18.6106 27.6415 18.782 28.2502C18.8799 28.5946 18.8228 29.0031 18.6351 29.3796C18.3251 29.9803 17.7947 30.3006 17.1093 30.3006C16.5626 30.3006 16.3505 30.2286 15.9588 29.8842C15.0042 29.0672 15.2082 27.6656 16.3668 27.0729C16.6442 26.9207 17.3541 26.8967 17.6805 27.0168Z" fill="white"/>
<path d="M36.088 5.05509C35.7535 5.1512 35.3455 5.54366 35.2476 5.86403C35.1089 6.32057 35.215 6.71303 35.5822 7.10549L35.9004 7.44188L34.8478 8.47509L33.7952 9.50029L33.3057 9.05177C32.7753 8.5712 32.4816 8.45907 31.9104 8.53917C31.0619 8.65129 30.5397 9.58839 30.8823 10.3893L30.9966 10.6536L28.4916 13.1045L25.9949 15.5554L25.4237 15.6755C24.363 15.8998 23.3594 16.3163 22.4455 16.925C21.6622 17.4456 21.3032 17.5898 20.6831 17.6298C19.8998 17.6779 19.3776 17.5177 18.529 16.957C17.6805 16.4044 16.8727 16.0199 16.0731 15.8117C12.3605 14.8185 8.56643 16.4765 6.8448 19.8484C5.90647 21.6745 5.74329 23.757 6.38788 25.7353C6.60002 26.3921 6.89376 26.9687 7.59547 28.1061C8.24006 29.1633 8.6725 30.1324 8.95808 31.1817C9.13759 31.8465 9.17023 32.1909 9.22734 33.9049C9.34157 37.1567 9.70875 38.7505 10.8674 40.9691C11.6833 42.5149 13.2826 44.3731 14.1719 44.8056C14.9634 45.1821 16.0241 44.9979 16.6524 44.3731C17.2154 43.8125 17.248 43.6683 17.3133 41.5939C17.4194 38.326 17.8844 35.9152 18.7493 34.1692C19.8917 31.8705 21.5317 32.1748 22.5353 34.874C23.2125 36.7001 23.5552 39.0309 23.6205 42.2747C23.6368 43.3079 23.6531 43.428 23.8571 43.8045C24.412 44.8617 25.7093 45.2942 26.7945 44.7736C27.333 44.5093 28.4345 43.412 29.1689 42.4028C30.7192 40.2803 31.6656 37.3169 31.6656 34.5857C31.6738 32.295 32.1715 30.2526 33.1833 28.4104C34.7091 25.6312 34.8886 25.0865 34.8804 23.2924C34.8804 22.3073 34.8478 21.9709 34.7009 21.4102C34.3664 20.1768 33.6157 18.8472 32.7345 17.9422L32.4489 17.6458L33.8605 16.2522L35.2803 14.8586L35.5495 14.9707C36.4307 15.3311 37.4507 14.6824 37.4588 13.7453C37.4588 13.2647 37.3527 13.0484 36.8713 12.5519L36.447 12.1113L37.4996 11.0781L38.5522 10.0369L38.8459 10.3172C39.2131 10.6697 39.5313 10.7818 39.9637 10.7177C40.6655 10.6136 41.1469 9.87673 40.9592 9.19593C40.8858 8.93163 40.5349 8.54718 39.0662 7.08146C37.0182 5.05509 36.7489 4.87087 36.088 5.05509ZM38.3727 7.61008C40.1351 9.3401 40.2901 9.54835 40.0535 9.78062C39.7761 10.0529 39.5803 9.90877 37.8097 8.17874C36.0309 6.44071 35.8841 6.24848 36.1696 5.96815C36.4063 5.73588 36.6184 5.89607 38.3727 7.61008ZM36.8877 10.4774L35.8269 11.5187L35.1171 10.8138L34.399 10.117L35.4598 9.07579L36.5205 8.03457L37.2303 8.73139L37.9484 9.43621L36.8877 10.4774ZM34.497 11.4225C35.9575 12.8482 36.6429 13.5771 36.6429 13.6972C36.6429 13.9775 36.3736 14.2258 36.0799 14.2258C35.8433 14.2258 35.5985 14.0176 33.7463 12.1914C32.4245 10.8939 31.6575 10.077 31.6249 9.94081C31.5841 9.77261 31.6167 9.6765 31.7799 9.52432C31.8941 9.40418 32.0655 9.31607 32.1715 9.31607C32.3021 9.31607 32.9548 9.90076 34.497 11.4225ZM33.6892 15.219L32.6937 16.1961L32.1471 15.6835C31.5922 15.1629 31.323 15.0508 31.1108 15.259C30.8823 15.4833 31.0047 15.7556 31.5433 16.2842L32.0736 16.8048L31.323 17.5417L30.5723 18.2786L29.9848 17.7259C29.5442 17.3014 29.3565 17.1733 29.2423 17.2133C28.7283 17.3975 28.7772 17.6458 29.4381 18.3026L29.993 18.8472L29.2342 19.5841L28.4835 20.329L27.9205 19.7763C27.4391 19.3038 27.3249 19.2317 27.1454 19.2797C26.8679 19.3438 26.7374 19.5921 26.8598 19.8244C26.9087 19.9285 27.1617 20.2168 27.4065 20.4731L27.8715 20.9297L26.9903 21.7947L26.1173 22.6517L24.5915 21.1459L23.0575 19.6482L27.3412 15.4433L31.6249 11.2383L33.1507 12.7361L34.6846 14.2418L33.6892 15.219ZM15.7141 16.5646C16.4892 16.7728 17.1256 17.0692 17.9171 17.5737C18.8391 18.1584 19.2389 18.3346 19.9406 18.4468C20.9197 18.615 21.7846 18.3827 22.878 17.6458C23.4247 17.2854 24.6078 16.6847 24.7873 16.6847C24.8199 16.6847 23.9632 17.5577 22.878 18.623C21.597 19.8885 20.8626 20.6734 20.781 20.8656C20.6178 21.25 20.6178 21.8908 20.7729 22.2752C20.8463 22.4354 21.0829 22.7558 21.3032 22.9721L21.7112 23.3725L20.1283 24.9264L18.5454 26.4802L18.1455 26.312C17.5499 26.0637 17.0767 26.0236 16.4974 26.1678C15.2734 26.4722 14.5391 27.4012 14.5309 28.6187C14.5309 30.0604 15.5998 31.1256 17.0685 31.1336C17.6233 31.1416 17.7457 31.1096 18.2516 30.8613C19.5326 30.2205 20.0385 28.7068 19.3939 27.4733L19.1736 27.0649L20.7484 25.519L22.3232 23.9732L22.7311 24.3737C23.1962 24.8222 23.596 25.0145 24.0856 25.0145C24.9178 25.0145 24.8526 25.0705 28.459 21.5384L31.8288 18.2545L32.1226 18.5269C32.5632 18.9433 33.1017 19.7203 33.4199 20.4011C33.8687 21.3462 34.0563 22.2432 34.0563 23.3725C34.0482 24.8463 33.7708 25.6872 32.6448 27.6175C31.5188 29.5478 30.8497 31.9426 30.8497 34.049C30.8497 37.7253 29.6584 40.857 27.3657 43.1957C26.5252 44.0608 26.2641 44.2049 25.6522 44.1328C25.2361 44.0928 24.9342 43.9006 24.6812 43.5321C24.5262 43.3159 24.5099 43.1317 24.4609 41.6179C24.3059 36.4759 23.1309 32.8797 21.3277 31.9906C20.8789 31.7744 20.0956 31.7664 19.6224 31.9746C17.7621 32.7996 16.5545 36.604 16.4647 41.8742C16.4402 43.38 16.3831 43.5962 15.9099 43.9246C15.5345 44.1889 14.8981 44.2209 14.4738 44.0127C13.6905 43.6122 12.1239 41.6499 11.3977 40.1442C10.5002 38.302 10.2228 37.0125 10.1249 34.3454C10.0106 31.0535 9.63531 29.788 8.06055 27.2331C7.51387 26.36 7.28541 25.8474 7.04063 24.9744C6.8448 24.2776 6.85296 22.2833 7.05695 21.5704C7.29357 20.7535 7.94632 19.504 8.44404 18.9113C9.51292 17.6458 11.0958 16.7248 12.6706 16.4444C13.2989 16.3403 15.1347 16.4124 15.7141 16.5646ZM23.9958 21.7707L25.5053 23.2604L25.0484 23.6929C24.518 24.1975 24.1672 24.3016 23.7266 24.0934C23.5715 24.0213 23.0167 23.5407 22.5027 23.0201C21.5235 22.043 21.3685 21.7707 21.5072 21.3221C21.5643 21.1459 22.3395 20.2889 22.4374 20.2889C22.4619 20.2889 23.1636 20.9537 23.9958 21.7707ZM17.6805 27.0168L17.9008 27.1049L17.2725 27.7296C16.9298 28.074 16.6524 28.4184 16.6524 28.4905C16.6524 28.5626 16.7258 28.6908 16.8156 28.7789C16.9053 28.867 17.0359 28.939 17.1093 28.939C17.1827 28.939 17.5336 28.6587 17.8926 28.3223C18.5943 27.6495 18.6106 27.6415 18.782 28.2502C18.8799 28.5946 18.8228 29.0031 18.6351 29.3796C18.3251 29.9803 17.7947 30.3006 17.1093 30.3006C16.5626 30.3006 16.3505 30.2286 15.9588 29.8842C15.0042 29.0672 15.2082 27.6656 16.3668 27.0729C16.6442 26.9207 17.3541 26.8967 17.6805 27.0168Z" stroke="#D9D9D9" stroke-width="0.5"/>
<path d="M36.088 5.05509C35.7535 5.1512 35.3455 5.54366 35.2476 5.86403C35.1089 6.32057 35.215 6.71303 35.5822 7.10549L35.9004 7.44188L34.8478 8.47509L33.7952 9.50029L33.3057 9.05177C32.7753 8.5712 32.4816 8.45907 31.9104 8.53917C31.0619 8.65129 30.5397 9.58839 30.8823 10.3893L30.9966 10.6536L28.4916 13.1045L25.9949 15.5554L25.4237 15.6755C24.363 15.8998 23.3594 16.3163 22.4455 16.925C21.6622 17.4456 21.3032 17.5898 20.6831 17.6298C19.8998 17.6779 19.3776 17.5177 18.529 16.957C17.6805 16.4044 16.8727 16.0199 16.0731 15.8117C12.3605 14.8185 8.56643 16.4765 6.8448 19.8484C5.90647 21.6745 5.74329 23.757 6.38788 25.7353C6.60002 26.3921 6.89376 26.9687 7.59547 28.1061C8.24006 29.1633 8.6725 30.1324 8.95808 31.1817C9.13759 31.8465 9.17023 32.1909 9.22734 33.9049C9.34157 37.1567 9.70875 38.7505 10.8674 40.9691C11.6833 42.5149 13.2826 44.3731 14.1719 44.8056C14.9634 45.1821 16.0241 44.9979 16.6524 44.3731C17.2154 43.8125 17.248 43.6683 17.3133 41.5939C17.4194 38.326 17.8844 35.9152 18.7493 34.1692C19.8917 31.8705 21.5317 32.1748 22.5353 34.874C23.2125 36.7001 23.5552 39.0309 23.6205 42.2747C23.6368 43.3079 23.6531 43.428 23.8571 43.8045C24.412 44.8617 25.7093 45.2942 26.7945 44.7736C27.333 44.5093 28.4345 43.412 29.1689 42.4028C30.7192 40.2803 31.6656 37.3169 31.6656 34.5857C31.6738 32.295 32.1715 30.2526 33.1833 28.4104C34.7091 25.6312 34.8886 25.0865 34.8804 23.2924C34.8804 22.3073 34.8478 21.9709 34.7009 21.4102C34.3664 20.1768 33.6157 18.8472 32.7345 17.9422L32.4489 17.6458L33.8605 16.2522L35.2803 14.8586L35.5495 14.9707C36.4307 15.3311 37.4507 14.6824 37.4588 13.7453C37.4588 13.2647 37.3527 13.0484 36.8713 12.5519L36.447 12.1113L37.4996 11.0781L38.5522 10.0369L38.8459 10.3172C39.2131 10.6697 39.5313 10.7818 39.9637 10.7177C40.6655 10.6136 41.1469 9.87673 40.9592 9.19593C40.8858 8.93163 40.5349 8.54718 39.0662 7.08146C37.0182 5.05509 36.7489 4.87087 36.088 5.05509ZM38.3727 7.61008C40.1351 9.3401 40.2901 9.54835 40.0535 9.78062C39.7761 10.0529 39.5803 9.90877 37.8097 8.17874C36.0309 6.44071 35.8841 6.24848 36.1696 5.96815C36.4063 5.73588 36.6184 5.89607 38.3727 7.61008ZM36.8877 10.4774L35.8269 11.5187L35.1171 10.8138L34.399 10.117L35.4598 9.07579L36.5205 8.03457L37.2303 8.73139L37.9484 9.43621L36.8877 10.4774ZM34.497 11.4225C35.9575 12.8482 36.6429 13.5771 36.6429 13.6972C36.6429 13.9775 36.3736 14.2258 36.0799 14.2258C35.8433 14.2258 35.5985 14.0176 33.7463 12.1914C32.4245 10.8939 31.6575 10.077 31.6249 9.94081C31.5841 9.77261 31.6167 9.6765 31.7799 9.52432C31.8941 9.40418 32.0655 9.31607 32.1715 9.31607C32.3021 9.31607 32.9548 9.90076 34.497 11.4225ZM33.6892 15.219L32.6937 16.1961L32.1471 15.6835C31.5922 15.1629 31.323 15.0508 31.1108 15.259C30.8823 15.4833 31.0047 15.7556 31.5433 16.2842L32.0736 16.8048L31.323 17.5417L30.5723 18.2786L29.9848 17.7259C29.5442 17.3014 29.3565 17.1733 29.2423 17.2133C28.7283 17.3975 28.7772 17.6458 29.4381 18.3026L29.993 18.8472L29.2342 19.5841L28.4835 20.329L27.9205 19.7763C27.4391 19.3038 27.3249 19.2317 27.1454 19.2797C26.8679 19.3438 26.7374 19.5921 26.8598 19.8244C26.9087 19.9285 27.1617 20.2168 27.4065 20.4731L27.8715 20.9297L26.9903 21.7947L26.1173 22.6517L24.5915 21.1459L23.0575 19.6482L27.3412 15.4433L31.6249 11.2383L33.1507 12.7361L34.6846 14.2418L33.6892 15.219ZM15.7141 16.5646C16.4892 16.7728 17.1256 17.0692 17.9171 17.5737C18.8391 18.1584 19.2389 18.3346 19.9406 18.4468C20.9197 18.615 21.7846 18.3827 22.878 17.6458C23.4247 17.2854 24.6078 16.6847 24.7873 16.6847C24.8199 16.6847 23.9632 17.5577 22.878 18.623C21.597 19.8885 20.8626 20.6734 20.781 20.8656C20.6178 21.25 20.6178 21.8908 20.7729 22.2752C20.8463 22.4354 21.0829 22.7558 21.3032 22.9721L21.7112 23.3725L20.1283 24.9264L18.5454 26.4802L18.1455 26.312C17.5499 26.0637 17.0767 26.0236 16.4974 26.1678C15.2734 26.4722 14.5391 27.4012 14.5309 28.6187C14.5309 30.0604 15.5998 31.1256 17.0685 31.1336C17.6233 31.1416 17.7457 31.1096 18.2516 30.8613C19.5326 30.2205 20.0385 28.7068 19.3939 27.4733L19.1736 27.0649L20.7484 25.519L22.3232 23.9732L22.7311 24.3737C23.1962 24.8222 23.596 25.0145 24.0856 25.0145C24.9178 25.0145 24.8526 25.0705 28.459 21.5384L31.8288 18.2545L32.1226 18.5269C32.5632 18.9433 33.1017 19.7203 33.4199 20.4011C33.8687 21.3462 34.0563 22.2432 34.0563 23.3725C34.0482 24.8463 33.7708 25.6872 32.6448 27.6175C31.5188 29.5478 30.8497 31.9426 30.8497 34.049C30.8497 37.7253 29.6584 40.857 27.3657 43.1957C26.5252 44.0608 26.2641 44.2049 25.6522 44.1328C25.2361 44.0928 24.9342 43.9006 24.6812 43.5321C24.5262 43.3159 24.5099 43.1317 24.4609 41.6179C24.3059 36.4759 23.1309 32.8797 21.3277 31.9906C20.8789 31.7744 20.0956 31.7664 19.6224 31.9746C17.7621 32.7996 16.5545 36.604 16.4647 41.8742C16.4402 43.38 16.3831 43.5962 15.9099 43.9246C15.5345 44.1889 14.8981 44.2209 14.4738 44.0127C13.6905 43.6122 12.1239 41.6499 11.3977 40.1442C10.5002 38.302 10.2228 37.0125 10.1249 34.3454C10.0106 31.0535 9.63531 29.788 8.06055 27.2331C7.51387 26.36 7.28541 25.8474 7.04063 24.9744C6.8448 24.2776 6.85296 22.2833 7.05695 21.5704C7.29357 20.7535 7.94632 19.504 8.44404 18.9113C9.51292 17.6458 11.0958 16.7248 12.6706 16.4444C13.2989 16.3403 15.1347 16.4124 15.7141 16.5646ZM23.9958 21.7707L25.5053 23.2604L25.0484 23.6929C24.518 24.1975 24.1672 24.3016 23.7266 24.0934C23.5715 24.0213 23.0167 23.5407 22.5027 23.0201C21.5235 22.043 21.3685 21.7707 21.5072 21.3221C21.5643 21.1459 22.3395 20.2889 22.4374 20.2889C22.4619 20.2889 23.1636 20.9537 23.9958 21.7707ZM17.6805 27.0168L17.9008 27.1049L17.2725 27.7296C16.9298 28.074 16.6524 28.4184 16.6524 28.4905C16.6524 28.5626 16.7258 28.6908 16.8156 28.7789C16.9053 28.867 17.0359 28.939 17.1093 28.939C17.1827 28.939 17.5336 28.6587 17.8926 28.3223C18.5943 27.6495 18.6106 27.6415 18.782 28.2502C18.8799 28.5946 18.8228 29.0031 18.6351 29.3796C18.3251 29.9803 17.7947 30.3006 17.1093 30.3006C16.5626 30.3006 16.3505 30.2286 15.9588 29.8842C15.0042 29.0672 15.2082 27.6656 16.3668 27.0729C16.6442 26.9207 17.3541 26.8967 17.6805 27.0168Z" stroke="white" stroke-width="0.5"/>
<path d="M9.32861 22.5326C9.3919 22.5343 9.45318 22.5286 9.50342 22.515C9.52922 22.508 9.55038 22.4996 9.56689 22.4906L9.60303 22.4623L9.60693 22.4594V22.4584L9.61084 22.4545C9.61316 22.4514 9.6162 22.447 9.61963 22.4418C9.62651 22.4313 9.63444 22.4168 9.64404 22.3998C9.66323 22.3658 9.68676 22.3211 9.7124 22.2689L9.87939 21.8959C10.4192 20.5538 11.6219 19.6494 13.2632 19.3353V19.3344C13.4261 19.3007 13.582 19.2589 13.7007 19.2201C13.7601 19.2007 13.809 19.1826 13.8442 19.1664C13.8616 19.1584 13.8746 19.1514 13.8833 19.1459L13.8892 19.1429L13.8921 19.139C13.9364 19.0825 13.9583 19.0006 13.9536 18.9193C13.95 18.8578 13.9318 18.8034 13.9048 18.764L13.8755 18.7299C13.8577 18.7143 13.8136 18.6959 13.7368 18.683C13.6632 18.6707 13.5686 18.6655 13.4595 18.6674C13.2411 18.6711 12.9699 18.7046 12.7007 18.7679H12.6997C11.6538 19.021 10.6236 19.6292 9.95654 20.3802L9.82861 20.5316C9.51102 20.9247 9.25854 21.3588 9.11475 21.722C9.04283 21.9037 8.99896 22.0647 8.98682 22.1927C8.97749 22.2917 8.98772 22.3617 9.00928 22.4066L9.03369 22.4437H9.03467C9.05619 22.4661 9.09464 22.4885 9.14893 22.5052C9.20229 22.5217 9.26541 22.5308 9.32861 22.5326Z" fill="#D9D9D9"/>
<path d="M9.32861 22.5326C9.3919 22.5343 9.45318 22.5286 9.50342 22.515C9.52922 22.508 9.55038 22.4996 9.56689 22.4906L9.60303 22.4623L9.60693 22.4594V22.4584L9.61084 22.4545C9.61316 22.4514 9.6162 22.447 9.61963 22.4418C9.62651 22.4313 9.63444 22.4168 9.64404 22.3998C9.66323 22.3658 9.68676 22.3211 9.7124 22.2689L9.87939 21.8959C10.4192 20.5538 11.6219 19.6494 13.2632 19.3353V19.3344C13.4261 19.3007 13.582 19.2589 13.7007 19.2201C13.7601 19.2007 13.809 19.1826 13.8442 19.1664C13.8616 19.1584 13.8746 19.1514 13.8833 19.1459L13.8892 19.1429L13.8921 19.139C13.9364 19.0825 13.9583 19.0006 13.9536 18.9193C13.95 18.8578 13.9318 18.8034 13.9048 18.764L13.8755 18.7299C13.8577 18.7143 13.8136 18.6959 13.7368 18.683C13.6632 18.6707 13.5686 18.6655 13.4595 18.6674C13.2411 18.6711 12.9699 18.7046 12.7007 18.7679H12.6997C11.6538 19.021 10.6236 19.6292 9.95654 20.3802L9.82861 20.5316C9.51102 20.9247 9.25854 21.3588 9.11475 21.722C9.04283 21.9037 8.99896 22.0647 8.98682 22.1927C8.97749 22.2917 8.98772 22.3617 9.00928 22.4066L9.03369 22.4437H9.03467C9.05619 22.4661 9.09464 22.4885 9.14893 22.5052C9.20229 22.5217 9.26541 22.5308 9.32861 22.5326Z" fill="white"/>
<path d="M9.32861 22.5326C9.3919 22.5343 9.45318 22.5286 9.50342 22.515C9.52922 22.508 9.55038 22.4996 9.56689 22.4906L9.60303 22.4623L9.60693 22.4594V22.4584L9.61084 22.4545C9.61316 22.4514 9.6162 22.447 9.61963 22.4418C9.62651 22.4313 9.63444 22.4168 9.64404 22.3998C9.66323 22.3658 9.68676 22.3211 9.7124 22.2689L9.87939 21.8959C10.4192 20.5538 11.6219 19.6494 13.2632 19.3353V19.3344C13.4261 19.3007 13.582 19.2589 13.7007 19.2201C13.7601 19.2007 13.809 19.1826 13.8442 19.1664C13.8616 19.1584 13.8746 19.1514 13.8833 19.1459L13.8892 19.1429L13.8921 19.139C13.9364 19.0825 13.9583 19.0006 13.9536 18.9193C13.95 18.8578 13.9318 18.8034 13.9048 18.764L13.8755 18.7299C13.8577 18.7143 13.8136 18.6959 13.7368 18.683C13.6632 18.6707 13.5686 18.6655 13.4595 18.6674C13.2411 18.6711 12.9699 18.7046 12.7007 18.7679H12.6997C11.6538 19.021 10.6236 19.6292 9.95654 20.3802L9.82861 20.5316C9.51102 20.9247 9.25854 21.3588 9.11475 21.722C9.04283 21.9037 8.99896 22.0647 8.98682 22.1927C8.97749 22.2917 8.98772 22.3617 9.00928 22.4066L9.03369 22.4437H9.03467C9.05619 22.4661 9.09464 22.4885 9.14893 22.5052C9.20229 22.5217 9.26541 22.5308 9.32861 22.5326Z" stroke="#D9D9D9" stroke-width="0.133333"/>
<path d="M9.32861 22.5326C9.3919 22.5343 9.45318 22.5286 9.50342 22.515C9.52922 22.508 9.55038 22.4996 9.56689 22.4906L9.60303 22.4623L9.60693 22.4594V22.4584L9.61084 22.4545C9.61316 22.4514 9.6162 22.447 9.61963 22.4418C9.62651 22.4313 9.63444 22.4168 9.64404 22.3998C9.66323 22.3658 9.68676 22.3211 9.7124 22.2689L9.87939 21.8959C10.4192 20.5538 11.6219 19.6494 13.2632 19.3353V19.3344C13.4261 19.3007 13.582 19.2589 13.7007 19.2201C13.7601 19.2007 13.809 19.1826 13.8442 19.1664C13.8616 19.1584 13.8746 19.1514 13.8833 19.1459L13.8892 19.1429L13.8921 19.139C13.9364 19.0825 13.9583 19.0006 13.9536 18.9193C13.95 18.8578 13.9318 18.8034 13.9048 18.764L13.8755 18.7299C13.8577 18.7143 13.8136 18.6959 13.7368 18.683C13.6632 18.6707 13.5686 18.6655 13.4595 18.6674C13.2411 18.6711 12.9699 18.7046 12.7007 18.7679H12.6997C11.6538 19.021 10.6236 19.6292 9.95654 20.3802L9.82861 20.5316C9.51102 20.9247 9.25854 21.3588 9.11475 21.722C9.04283 21.9037 8.99896 22.0647 8.98682 22.1927C8.97749 22.2917 8.98772 22.3617 9.00928 22.4066L9.03369 22.4437H9.03467C9.05619 22.4661 9.09464 22.4885 9.14893 22.5052C9.20229 22.5217 9.26541 22.5308 9.32861 22.5326Z" stroke="white" stroke-width="0.133333"/>
</svg>
